<?xml version="1.0" encoding="UTF-8"?>
<!-- Generated by Pixelmator Pro 3.7.1 -->
<svg width="120" height="380" viewBox="0 0 120 380" xmlns="http://www.w3.org/2000/svg">
    <g id="Group">
        <path id="Rectangle" fill="#929292" fill-rule="evenodd" stroke="none" d="M 0 380 L 120 380 L 120 0 L 0 0 Z"/>
        <path id="Path-copy" fill="#d5d5d5" stroke="none" d="M 54.91703 366.623474 L 188.952484 416.429138 L 188.952484 319.854553 L 54.952419 270.062744 L 54.91703 366.623474 Z M -70.952484 189.590561 L -70.952484 223.278519 L 13.969713 254.609894 L 188.950958 189.590561 L 188.950958 93.016022 L -70.952484 189.590561 Z M -70.952484 61.574524 L -70.952484 158.148026 L 188.950958 61.574524 L 188.950958 -35 L -70.952484 61.574524 Z"/>
        <g id="Group-copy">
            <path id="Path" fill="#151515" stroke="none" d="M 57.873299 373.961487 L 53.617786 373.961487 L 49.362228 362.580414 L 53.617786 362.580414 L 57.873299 373.961487 Z"/>
            <path id="path1" fill="#151515" stroke="none" d="M 60.743271 373.961487 L 59.258812 373.961487 L 55.003258 362.580414 L 59.258812 362.580414 L 62.12389 370.242767 L 60.743271 373.961487 Z"/>
            <path id="path2" fill="#151515" stroke="none" d="M 67.059769 368.449707 L 69.254456 362.580353 L 64.998894 362.580353 L 62.804817 368.448151 L 67.059769 368.449707 Z"/>
            <path id="path3" fill="#151515" stroke="none" d="M 63.466427 361.037872 L 59.411812 361.037872 C 59.411812 361.037872 59.381641 358.849365 56.310925 358.849365 C 53.240273 358.849365 53.309315 361.530212 53.309315 361.530212 L 49.254704 361.530212 C 49.254704 361.530212 49.10294 355 56.278572 355 C 63.45425 355 63.466427 361.037872 63.466427 361.037872 Z"/>
        </g>
    </g>
    <path id="Rounded-Rectangle" fill="#151515" fill-rule="evenodd" stroke="none" d="M 81 364 C 81 366.209137 82.790863 368 85 368 L 105 368 C 107.209137 368 109 366.209137 109 364 L 109 326 C 109 323.790863 107.209137 322 105 322 L 85 322 C 82.790863 322 81 323.790863 81 326 Z"/>
    <path id="CAB-SIM" fill="#484848" fill-rule="evenodd" stroke="none" d="M 6.9 60.246002 L 6.9 57.419983 L 15.918 56.160004 L 15.918 56.123993 L 6.9 54.864014 L 6.9 52.037994 L 19.5 52.037994 L 19.5 53.910004 L 9.96 53.910004 L 9.96 53.945984 L 19.5 55.385986 L 19.5 57.041992 L 9.96 58.481995 L 9.96 58.518005 L 19.5 58.518005 L 19.5 60.246002 Z M 6.9 64.962006 L 6.9 62.981995 L 19.5 62.981995 L 19.5 64.962006 Z M 19.68 70.343994 C 19.68 71.304016 19.407003 72.029999 18.861 72.522003 C 18.314997 73.014008 17.532005 73.26001 16.512001 73.26001 L 15.792 73.26001 L 15.792 71.388 L 16.656 71.388 C 17.472004 71.388 17.880001 71.046021 17.880001 70.362 C 17.880001 70.026001 17.781002 69.770996 17.583 69.596985 C 17.384998 69.423004 17.064003 69.335999 16.619999 69.335999 C 16.091997 69.335999 15.627002 69.455994 15.225 69.695984 C 14.822998 69.936005 14.340003 70.380005 13.776 71.028015 C 13.055996 71.843994 12.405003 72.414001 11.823 72.738007 C 11.240997 73.062012 10.584003 73.223999 9.852 73.223999 C 8.855995 73.223999 8.085003 72.972015 7.539 72.467987 C 6.992998 71.963989 6.719999 71.231995 6.719999 70.272003 C 6.719999 69.324005 6.992998 68.606995 7.539 68.121002 C 8.085003 67.63501 8.867995 67.391998 9.888 67.391998 L 10.41 67.391998 L 10.41 69.264008 L 9.762 69.264008 C 9.329998 69.264008 9.015001 69.347992 8.817 69.515991 C 8.618999 69.68399 8.52 69.929993 8.52 70.253998 C 8.52 70.914001 8.921996 71.243988 9.726 71.243988 C 10.182002 71.243988 10.607998 71.121002 11.004 70.875 C 11.400002 70.628998 11.879997 70.182007 12.444 69.533997 C 13.164003 68.705994 13.817997 68.135986 14.406 67.824005 C 14.994003 67.511993 15.683996 67.355988 16.476 67.355988 C 17.508005 67.355988 18.299997 67.610992 18.852001 68.121002 C 19.404003 68.631012 19.68 69.372009 19.68 70.343994 Z M 6.9 85.589996 L 6.9 82.60199 C 6.9 81.582001 7.136997 80.838013 7.611 80.369995 C 8.085003 79.902008 8.813995 79.667999 9.798 79.667999 L 10.302 79.667999 C 10.950004 79.667999 11.477998 79.77301 11.886 79.983002 C 12.294002 80.192993 12.587999 80.514008 12.768 80.945984 L 12.804 80.945984 C 13.140001 79.962006 14.015993 79.470001 15.432 79.470001 L 16.512001 79.470001 C 17.484005 79.470001 18.224998 79.725006 18.735001 80.234985 C 19.245003 80.744995 19.5 81.492004 19.5 82.476013 L 19.5 85.589996 Z M 12.03 82.835999 C 12.03 82.440002 11.928001 82.143005 11.724 81.945007 C 11.519999 81.747009 11.178002 81.64801 10.698 81.64801 L 9.996 81.64801 C 9.539998 81.64801 9.210001 81.729004 9.006 81.890991 C 8.801999 82.053009 8.7 82.307983 8.7 82.656006 L 8.7 83.609985 L 12.03 83.609985 Z M 17.700001 82.476013 C 17.700001 82.127991 17.607 81.869995 17.421 81.701996 C 17.234999 81.533997 16.914001 81.450012 16.458 81.450012 L 15.36 81.450012 C 14.783998 81.450012 14.385001 81.549011 14.163 81.747009 C 13.940999 81.945007 13.83 82.272003 13.83 82.727997 L 13.83 83.609985 L 17.700001 83.609985 Z M 6.9 92.537994 L 6.9 89.855988 L 19.5 87.804016 L 19.5 89.783997 L 16.998001 90.144012 L 17.034 90.144012 L 17.034 92.394012 L 19.5 92.753998 L 19.5 94.589996 Z M 15.324 90.377991 L 9.096 91.26001 L 9.096 91.29599 L 15.324 92.160004 Z M 19.68 99.432007 C 19.68 100.380005 19.410004 101.102997 18.869999 101.601013 C 18.329998 102.098999 17.568005 102.347992 16.584 102.347992 L 9.816 102.347992 C 8.831995 102.347992 8.070004 102.098999 7.530001 101.601013 C 6.989998 101.102997 6.719999 100.380005 6.719999 99.432007 C 6.719999 98.484009 6.989998 97.761017 7.530001 97.263 C 8.070004 96.764984 8.831995 96.515991 9.816 96.515991 L 11.148 96.515991 L 11.148 98.388 L 9.69 98.388 C 8.909996 98.388 8.52 98.717987 8.52 99.377991 C 8.52 100.037994 8.909996 100.368011 9.69 100.368011 L 16.728001 100.368011 C 17.496004 100.368011 17.880001 100.037994 17.880001 99.377991 C 17.880001 98.717987 17.496004 98.388 16.728001 98.388 L 14.802 98.388 L 14.802 96.515991 L 16.584 96.515991 C 17.568005 96.515991 18.329998 96.764984 18.869999 97.263 C 19.410004 97.761017 19.68 98.484009 19.68 99.432007 Z"/>
    <g id="g1">
        <path id="BLEND" fill="#484848" fill-rule="evenodd" stroke="none" d="M 65.908005 86.700012 L 67.419998 86.700012 C 67.912003 86.700012 68.280998 86.832001 68.527 87.096008 C 68.773003 87.360016 68.895996 87.747009 68.895996 88.256989 L 68.895996 91.442993 C 68.895996 91.953003 68.773003 92.339996 68.527 92.604004 C 68.280998 92.868011 67.912003 93 67.419998 93 L 65.908005 93 Z M 67.402 92.100006 C 67.564003 92.100006 67.688499 92.052002 67.775497 91.955994 C 67.862503 91.859985 67.905998 91.70401 67.905998 91.488007 L 67.905998 88.212006 C 67.905998 87.996002 67.862503 87.839996 67.775497 87.743988 C 67.688499 87.64801 67.564003 87.600006 67.402 87.600006 L 66.898003 87.600006 L 66.898003 92.100006 Z M 61.434998 86.700012 L 62.677002 86.700012 L 63.639999 90.471008 L 63.658001 90.471008 L 63.658001 86.700012 L 64.540001 86.700012 L 64.540001 93 L 63.523003 93 L 62.334999 88.401001 L 62.317001 88.401001 L 62.317001 93 L 61.434998 93 Z M 57.538002 86.700012 L 60.237999 86.700012 L 60.237999 87.600006 L 58.528 87.600006 L 58.528 89.265015 L 59.887001 89.265015 L 59.887001 90.165009 L 58.528 90.165009 L 58.528 92.100006 L 60.237999 92.100006 L 60.237999 93 L 57.538002 93 Z M 53.812 86.700012 L 54.802002 86.700012 L 54.802002 92.100006 L 56.431 92.100006 L 56.431 93 L 53.812 93 Z M 49.546001 86.700012 L 51.040001 86.700012 C 51.550003 86.700012 51.921997 86.818512 52.155998 87.055511 C 52.389999 87.292511 52.507 87.656982 52.507 88.148987 L 52.507 88.401001 C 52.507 88.725006 52.454502 88.989014 52.349499 89.192993 C 52.244499 89.397003 52.084 89.544006 51.868 89.634003 L 51.868 89.652008 C 52.360001 89.820007 52.605999 90.257996 52.605999 90.966003 L 52.605999 91.506012 C 52.605999 91.992004 52.4785 92.362488 52.223499 92.617493 C 51.968498 92.872498 51.595001 93 51.103001 93 L 49.546001 93 Z M 50.923 89.265015 C 51.121002 89.265015 51.269501 89.213989 51.3685 89.112 C 51.467499 89.01001 51.516998 88.838989 51.516998 88.598999 L 51.516998 88.247986 C 51.516998 88.019989 51.476501 87.855011 51.3955 87.752991 C 51.314499 87.651001 51.187 87.600006 51.013 87.600006 L 50.535999 87.600006 L 50.535999 89.265015 Z M 51.103001 92.100006 C 51.277 92.100006 51.405998 92.053497 51.489998 91.96051 C 51.574001 91.867493 51.616001 91.707001 51.616001 91.479004 L 51.616001 90.929993 C 51.616001 90.641998 51.566502 90.442505 51.467499 90.331512 C 51.3685 90.22049 51.205002 90.165009 50.977001 90.165009 L 50.535999 90.165009 L 50.535999 92.100006 Z"/>
        <path id="HP" fill="#484848" fill-rule="evenodd" stroke="none" d="M 25.521999 153.699997 L 26.98 153.699997 C 27.472002 153.699997 27.841 153.832001 28.087 154.095993 C 28.333 154.360001 28.456001 154.746994 28.456001 155.257004 L 28.456001 155.878006 C 28.456001 156.388 28.333 156.774994 28.087 157.039001 C 27.841 157.303009 27.472002 157.434998 26.98 157.434998 L 26.512001 157.434998 L 26.512001 160 L 25.521999 160 Z M 26.98 156.535004 C 27.142002 156.535004 27.2635 156.490005 27.3445 156.399994 C 27.425501 156.309998 27.466 156.156998 27.466 155.940994 L 27.466 155.194 C 27.466 154.977997 27.425501 154.824997 27.3445 154.735001 C 27.2635 154.645004 27.142002 154.600006 26.98 154.600006 L 26.512001 154.600006 L 26.512001 156.535004 Z M 21.112 153.699997 L 22.102001 153.699997 L 22.102001 156.264999 L 23.164 156.264999 L 23.164 153.699997 L 24.153999 153.699997 L 24.153999 160 L 23.164 160 L 23.164 157.164993 L 22.102001 157.164993 L 22.102001 160 L 21.112 160 Z"/>
        <path id="LP" fill="#484848" fill-rule="evenodd" stroke="none" d="M 95.18 153.699997 L 96.638 153.699997 C 97.130005 153.699997 97.499001 153.832001 97.745003 154.095993 C 97.990997 154.360001 98.113998 154.746994 98.113998 155.257004 L 98.113998 155.878006 C 98.113998 156.388 97.990997 156.774994 97.745003 157.039001 C 97.499001 157.303009 97.130005 157.434998 96.638 157.434998 L 96.169998 157.434998 L 96.169998 160 L 95.18 160 Z M 96.638 156.535004 C 96.800003 156.535004 96.921501 156.490005 97.002502 156.399994 C 97.083504 156.309998 97.124001 156.156998 97.124001 155.940994 L 97.124001 155.194 C 97.124001 154.977997 97.083504 154.824997 97.002502 154.735001 C 96.921501 154.645004 96.800003 154.600006 96.638 154.600006 L 96.169998 154.600006 L 96.169998 156.535004 Z M 91.454002 153.699997 L 92.444 153.699997 L 92.444 159.100006 L 94.072998 159.100006 L 94.072998 160 L 91.454002 160 Z"/>
        <path id="OUTPUT" fill="#484848" fill-rule="evenodd" stroke="none" d="M 69.582001 221.600006 L 68.547005 221.600006 L 68.547005 220.699997 L 71.607002 220.699997 L 71.607002 221.600006 L 70.572006 221.600006 L 70.572006 227 L 69.582001 227 Z M 66 227.089996 C 65.520004 227.089996 65.154007 226.953506 64.902 226.680496 C 64.650002 226.407501 64.524002 226.016006 64.524002 225.505997 L 64.524002 220.699997 L 65.514 220.699997 L 65.514 225.578003 C 65.514 225.794006 65.557503 225.949997 65.644501 226.046005 C 65.731506 226.141998 65.856003 226.190002 66.018005 226.190002 C 66.18 226.190002 66.304504 226.141998 66.391502 226.046005 C 66.4785 225.949997 66.522003 225.794006 66.522003 225.578003 L 66.522003 220.699997 L 67.475998 220.699997 L 67.475998 225.505997 C 67.475998 226.016006 67.350006 226.407501 67.098 226.680496 C 66.846001 226.953506 66.480003 227.089996 66 227.089996 Z M 60.456001 220.699997 L 61.914001 220.699997 C 62.406006 220.699997 62.775002 220.832001 63.021004 221.095993 C 63.267006 221.360001 63.389999 221.746994 63.389999 222.257004 L 63.389999 222.878006 C 63.389999 223.388 63.267006 223.774994 63.021004 224.039001 C 62.775002 224.303009 62.406006 224.434998 61.914001 224.434998 L 61.446003 224.434998 L 61.446003 227 L 60.456001 227 Z M 61.914001 223.535004 C 62.076004 223.535004 62.197502 223.490005 62.278503 223.399994 C 62.359505 223.309998 62.400002 223.156998 62.400002 222.940994 L 62.400002 222.194 C 62.400002 221.977997 62.359505 221.824997 62.278503 221.735001 C 62.197502 221.645004 62.076004 221.600006 61.914001 221.600006 L 61.446003 221.600006 L 61.446003 223.535004 Z M 57.324001 221.600006 L 56.289001 221.600006 L 56.289001 220.699997 L 59.349003 220.699997 L 59.349003 221.600006 L 58.314003 221.600006 L 58.314003 227 L 57.324001 227 Z M 53.742004 227.089996 C 53.262001 227.089996 52.896004 226.953506 52.644001 226.680496 C 52.392002 226.407501 52.266003 226.016006 52.266003 225.505997 L 52.266003 220.699997 L 53.256004 220.699997 L 53.256004 225.578003 C 53.256004 225.794006 53.2995 225.949997 53.386501 226.046005 C 53.473503 226.141998 53.598 226.190002 53.760002 226.190002 C 53.922005 226.190002 54.046501 226.141998 54.133503 226.046005 C 54.220505 225.949997 54.264 225.794006 54.264 225.578003 L 54.264 220.699997 L 55.218002 220.699997 L 55.218002 225.505997 C 55.218002 226.016006 55.092003 226.407501 54.840004 226.680496 C 54.588001 226.953506 54.222004 227.089996 53.742004 227.089996 Z M 49.503002 227.089996 C 49.016998 227.089996 48.645004 226.951996 48.387001 226.675995 C 48.129002 226.399994 48 226.01001 48 225.505997 L 48 222.194 C 48 221.690002 48.129002 221.300003 48.387001 221.024002 C 48.645004 220.748001 49.016998 220.610001 49.503002 220.610001 C 49.989006 220.610001 50.361 220.748001 50.619003 221.024002 C 50.877003 221.300003 51.006004 221.690002 51.006004 222.194 L 51.006004 225.505997 C 51.006004 226.01001 50.877003 226.399994 50.619003 226.675995 C 50.361 226.951996 49.989006 227.089996 49.503002 227.089996 Z M 49.503002 226.190002 C 49.845005 226.190002 50.016003 225.983002 50.016003 225.569 L 50.016003 222.130997 C 50.016003 221.716995 49.845005 221.509995 49.503002 221.509995 C 49.160999 221.509995 48.990002 221.716995 48.990002 222.130997 L 48.990002 225.569 C 48.990002 225.983002 49.160999 226.190002 49.503002 226.190002 Z"/>
        <path id="IR1" fill="#484848" fill-rule="evenodd" stroke="none" d="M 37.947502 270.194 L 36.912498 270.194 L 36.912498 269.492004 C 37.194504 269.492004 37.420998 269.468018 37.591999 269.419983 C 37.763 269.372009 37.899498 269.292511 38.001499 269.181519 C 38.1035 269.070496 38.193501 268.910004 38.2715 268.700012 L 38.9375 268.700012 L 38.9375 275 L 37.947502 275 Z M 32.304501 268.700012 L 33.7715 268.700012 C 34.281502 268.700012 34.6535 268.818481 34.887501 269.055481 C 35.121502 269.292511 35.238499 269.656982 35.238499 270.148987 L 35.238499 270.536011 C 35.238499 271.190002 35.022503 271.604004 34.5905 271.778015 L 34.5905 271.79599 C 34.830502 271.868011 35 272.015015 35.098999 272.237 C 35.198002 272.458984 35.247501 272.755981 35.247501 273.127991 L 35.247501 274.234985 C 35.247501 274.415009 35.253502 274.560486 35.265499 274.671509 C 35.2775 274.782501 35.307499 274.891998 35.355499 275 L 34.3475 275 C 34.311501 274.89801 34.287498 274.802002 34.275501 274.712006 C 34.2635 274.622009 34.2575 274.459991 34.2575 274.226013 L 34.2575 273.074005 C 34.2575 272.786011 34.210999 272.584991 34.118 272.471008 C 34.025002 272.356995 33.864502 272.299988 33.636501 272.299988 L 33.294498 272.299988 L 33.294498 275 L 32.304501 275 Z M 33.654499 271.399994 C 33.852501 271.399994 34.000999 271.348999 34.099998 271.247009 C 34.199001 271.144989 34.248501 270.973999 34.248501 270.734009 L 34.248501 270.247986 C 34.248501 270.019989 34.208 269.855011 34.126999 269.752991 C 34.045998 269.651001 33.918503 269.600006 33.744499 269.600006 L 33.294498 269.600006 L 33.294498 271.399994 Z M 29.946501 268.700012 L 30.936501 268.700012 L 30.936501 275 L 29.946501 275 Z"/>
        <path id="IR2" fill="#484848" fill-rule="evenodd" stroke="none" d="M 86.543503 274.31601 C 86.543503 273.865997 86.615501 273.480499 86.759499 273.159485 C 86.903503 272.838501 87.161499 272.483002 87.533501 272.093018 C 87.899506 271.703003 88.153 271.369995 88.293999 271.093994 C 88.434998 270.817993 88.505501 270.529999 88.505501 270.230011 C 88.505501 269.959991 88.461998 269.772491 88.375 269.66748 C 88.288002 269.5625 88.1605 269.51001 87.9925 269.51001 C 87.650497 269.51001 87.4795 269.71698 87.4795 270.130981 L 87.4795 270.806 L 86.543503 270.806 L 86.543503 270.194 C 86.543503 269.68399 86.669495 269.292511 86.921501 269.019501 C 87.1735 268.74649 87.539497 268.609985 88.019501 268.609985 C 88.499504 268.609985 88.865501 268.74649 89.1175 269.019501 C 89.369499 269.292511 89.495499 269.68399 89.495499 270.194 C 89.495499 270.578003 89.403999 270.953003 89.221001 271.319 C 89.038002 271.684998 88.721504 272.10498 88.2715 272.57901 C 87.977501 272.890991 87.779503 273.144501 87.677498 273.339508 C 87.5755 273.534485 87.524498 273.742981 87.524498 273.964996 L 87.524498 274.100006 L 89.405502 274.100006 L 89.405502 275 L 86.543503 275 Z M 82.304497 268.700012 L 83.7715 268.700012 C 84.281502 268.700012 84.653496 268.818481 84.887497 269.055481 C 85.121498 269.292511 85.238503 269.656982 85.238503 270.148987 L 85.238503 270.536011 C 85.238503 271.190002 85.022499 271.604004 84.5905 271.778015 L 84.5905 271.79599 C 84.830505 271.868011 85 272.015015 85.098999 272.237 C 85.197998 272.458984 85.247498 272.755981 85.247498 273.127991 L 85.247498 274.234985 C 85.247498 274.415009 85.253502 274.560486 85.265503 274.671509 C 85.277496 274.782501 85.307503 274.891998 85.355499 275 L 84.347504 275 C 84.311501 274.89801 84.287498 274.802002 84.275497 274.712006 C 84.263504 274.622009 84.2575 274.459991 84.2575 274.226013 L 84.2575 273.074005 C 84.2575 272.786011 84.210999 272.584991 84.117996 272.471008 C 84.025002 272.356995 83.864502 272.299988 83.636497 272.299988 L 83.294502 272.299988 L 83.294502 275 L 82.304497 275 Z M 83.654503 271.399994 C 83.852501 271.399994 84.000999 271.348999 84.099998 271.247009 C 84.198997 271.144989 84.248497 270.973999 84.248497 270.734009 L 84.248497 270.247986 C 84.248497 270.019989 84.208 269.855011 84.126999 269.752991 C 84.045998 269.651001 83.918503 269.600006 83.744499 269.600006 L 83.294502 269.600006 L 83.294502 271.399994 Z M 79.946503 268.700012 L 80.936501 268.700012 L 80.936501 275 L 79.946503 275 Z"/>
        <path id="IN" fill="#484848" fill-rule="evenodd" stroke="none" d="M 24.311501 356.700012 L 25.553501 356.700012 L 26.5165 360.471008 L 26.5345 360.471008 L 26.5345 356.700012 L 27.4165 356.700012 L 27.4165 363 L 26.3995 363 L 25.2115 358.401001 L 25.193501 358.401001 L 25.193501 363 L 24.311501 363 Z M 21.953499 356.700012 L 22.943501 356.700012 L 22.943501 363 L 21.953499 363 Z"/>
        <path id="OUT" fill="#ffffff" fill-rule="evenodd" stroke="none" d="M 98.429001 357.600006 L 97.393997 357.600006 L 97.393997 356.700012 L 100.454002 356.700012 L 100.454002 357.600006 L 99.418999 357.600006 L 99.418999 363 L 98.429001 363 Z M 94.847 363.089996 C 94.366997 363.089996 94.000999 362.953491 93.749001 362.680511 C 93.497002 362.407501 93.371002 362.015991 93.371002 361.506012 L 93.371002 356.700012 L 94.361 356.700012 L 94.361 361.578003 C 94.361 361.794006 94.404503 361.950012 94.491501 362.04599 C 94.578499 362.141998 94.703003 362.190002 94.864998 362.190002 C 95.027 362.190002 95.151497 362.141998 95.238503 362.04599 C 95.3255 361.950012 95.369003 361.794006 95.369003 361.578003 L 95.369003 356.700012 L 96.322998 356.700012 L 96.322998 361.506012 C 96.322998 362.015991 96.196999 362.407501 95.945 362.680511 C 95.693001 362.953491 95.327003 363.089996 94.847 363.089996 Z M 90.608002 363.089996 C 90.121994 363.089996 89.75 362.951996 89.491997 362.675995 C 89.234001 362.399994 89.105003 362.01001 89.105003 361.506012 L 89.105003 358.194 C 89.105003 357.690002 89.234001 357.299988 89.491997 357.023987 C 89.75 356.747986 90.121994 356.609985 90.608002 356.609985 C 91.094002 356.609985 91.465996 356.747986 91.723999 357.023987 C 91.982002 357.299988 92.111 357.690002 92.111 358.194 L 92.111 361.506012 C 92.111 362.01001 91.982002 362.399994 91.723999 362.675995 C 91.465996 362.951996 91.094002 363.089996 90.608002 363.089996 Z M 90.608002 362.190002 C 90.950005 362.190002 91.121002 361.983002 91.121002 361.569 L 91.121002 358.131012 C 91.121002 357.71701 90.950005 357.51001 90.608002 357.51001 C 90.265999 357.51001 90.095001 357.71701 90.095001 358.131012 L 90.095001 361.569 C 90.095001 361.983002 90.265999 362.190002 90.608002 362.190002 Z"/>
    </g>
</svg>
