<?xml version="1.0" encoding="UTF-8" standalone="no"?>
<svg
   width="180"
   height="380"
   viewBox="0 0 180 380"
   version="1.1"
   id="svg13"
   sodipodi:docname="CabSim.svg"
   xmlns:inkscape="http://www.inkscape.org/namespaces/inkscape"
   xmlns:sodipodi="http://sodipodi.sourceforge.net/DTD/sodipodi-0.dtd"
   xmlns="http://www.w3.org/2000/svg"
   xmlns:svg="http://www.w3.org/2000/svg">
  <defs
     id="defs13" />
  <sodipodi:namedview
     id="namedview13"
     pagecolor="#ffffff"
     bordercolor="#000000"
     borderopacity="0.25"
     inkscape:showpageshadow="2"
     inkscape:pageopacity="0.0"
     inkscape:pagecheckerboard="0"
     inkscape:deskcolor="#d1d1d1" />
  <!-- CabSim Panel - 12HP (60.96mm = 180px at 2.95px/mm) -->
  <!-- Background -->
  <rect
     x="0"
     y="0"
     width="180"
     height="380"
     fill="#2a2a2a"
     id="rect1" />
  <!-- Top border gradient effect -->
  <rect
     x="0"
     y="0"
     width="180"
     height="4"
     fill="#444"
     id="rect2" />
  <rect
     x="0"
     y="376"
     width="180"
     height="4"
     fill="#111"
     id="rect3" />
  <!-- Module Title -->
  <path
     d="m 67.875488,24.31543 1.961914,0.62207 q -0.451172,1.640625 -1.503906,2.44043 -1.045898,0.792968 -2.65918,0.792968 -1.996093,0 -3.28125,-1.360351 -1.285156,-1.367188 -1.285156,-3.732422 0,-2.501953 1.291992,-3.882813 1.291993,-1.387695 3.397461,-1.387695 1.838867,0 2.987305,1.086914 0.683594,0.642578 1.025391,1.845703 l -2.00293,0.478516 q -0.177734,-0.779297 -0.745117,-1.230469 -0.560547,-0.451172 -1.367188,-0.451172 -1.114258,0 -1.811523,0.799805 -0.69043,0.799805 -0.69043,2.59082 0,1.900391 0.683594,2.707032 0.683594,0.80664 1.777344,0.80664 0.80664,0 1.387695,-0.512695 0.581055,-0.512695 0.833984,-1.613281 z M 80.61084,28 h -2.201172 l -0.875,-2.276367 H 73.528809 L 72.70166,28 h -2.146484 l 3.90332,-10.021484 h 2.139649 z m -3.725586,-3.964844 -1.380859,-3.71875 -1.353516,3.71875 z m 4.805664,-6.05664 h 4.005859 q 1.189453,0 1.770508,0.102539 0.587891,0.0957 1.045899,0.410156 0.464843,0.314453 0.772461,0.84082 0.307617,0.519531 0.307617,1.168946 0,0.704101 -0.382813,1.291992 -0.375976,0.58789 -1.02539,0.881836 0.916015,0.266601 1.408203,0.909179 0.492187,0.642578 0.492187,1.510743 0,0.683593 -0.321289,1.333007 -0.314453,0.642578 -0.868164,1.032227 -0.546875,0.382812 -1.353516,0.47168 Q 87.036621,27.986328 85.102051,28 h -3.411133 z m 2.023437,1.667968 v 2.317383 h 1.326172 q 1.182618,0 1.469727,-0.03418 0.519531,-0.06152 0.813476,-0.355468 0.300782,-0.300782 0.300782,-0.786133 0,-0.464844 -0.259766,-0.751953 -0.25293,-0.293946 -0.758789,-0.355469 -0.300781,-0.03418 -1.729492,-0.03418 z m 0,3.985352 v 2.679687 h 1.873047 q 1.09375,0 1.387696,-0.06152 0.451172,-0.08203 0.731445,-0.396484 0.287109,-0.321289 0.287109,-0.854493 0,-0.451171 -0.21875,-0.765625 -0.21875,-0.314453 -0.635742,-0.458007 -0.410156,-0.143555 -1.791015,-0.143555 z m 11.457032,1.107422 1.96875,-0.191406 q 0.177734,0.99121 0.717773,1.456054 0.546875,0.464844 1.469727,0.464844 0.977543,0 1.469723,-0.410156 0.49903,-0.416992 0.49903,-0.970703 0,-0.355469 -0.21192,-0.601563 -0.20508,-0.25293 -0.72461,-0.4375 -0.35547,-0.123047 -1.620114,-0.4375 -1.626953,-0.40332 -2.283203,-0.991211 -0.922852,-0.827148 -0.922852,-2.016601 0,-0.765625 0.430664,-1.428711 0.4375,-0.669922 1.250977,-1.018555 0.820313,-0.348633 1.975586,-0.348633 1.886722,0 2.836912,0.827149 0.95703,0.827148 1.00488,2.208007 l -2.02343,0.08887 q -0.12989,-0.772461 -0.56055,-1.107422 -0.42383,-0.341797 -1.27832,-0.341797 -0.881836,0 -1.380859,0.362305 -0.321289,0.232421 -0.321289,0.62207 0,0.355469 0.300781,0.608398 0.382812,0.321289 1.859375,0.669922 1.476562,0.348633 2.180662,0.72461 0.71094,0.36914 1.10742,1.018554 0.40332,0.642578 0.40332,1.592774 0,0.861328 -0.47851,1.613281 -0.47852,0.751953 -1.35352,1.121094 -0.875,0.362304 -2.180661,0.362304 -1.900391,0 -2.918945,-0.875 -1.018555,-0.881836 -1.216797,-2.563476 z M 104.96045,28 V 17.978516 h 2.02344 V 28 Z m 3.92383,0 V 17.978516 h 3.02832 l 1.81836,6.835937 1.79785,-6.835937 h 3.03515 V 28 h -1.87988 V 20.111328 L 114.69482,28 h -1.94824 l -1.98242,-7.888672 V 28 Z"
     id="text3"
     style="font-weight:bold;font-size:14px;font-family:Arial, Helvetica, sans-serif;text-anchor:middle;fill:#ffffff"
     aria-label="CAB SIM" />
  <!-- Subtitle -->
  <path
     d="m 62.910156,41.992187 0.757813,0.191407 q -0.238282,0.933593 -0.859375,1.425781 -0.617188,0.488281 -1.511719,0.488281 -0.925781,0 -1.507813,-0.375 -0.578125,-0.378906 -0.882812,-1.09375 -0.300781,-0.714844 -0.300781,-1.535156 0,-0.894531 0.339843,-1.558594 0.34375,-0.667969 0.972657,-1.011719 0.632812,-0.347656 1.390625,-0.347656 0.859375,0 1.445312,0.4375 0.585938,0.4375 0.816406,1.230469 l -0.746093,0.175781 q -0.199219,-0.625 -0.578125,-0.910156 -0.378907,-0.285156 -0.953125,-0.285156 -0.660157,0 -1.105469,0.316406 -0.441406,0.316406 -0.621094,0.851562 -0.179687,0.53125 -0.179687,1.097657 0,0.730468 0.210937,1.277343 0.214844,0.542969 0.664063,0.8125 0.449218,0.269532 0.972656,0.269532 0.636719,0 1.078125,-0.367188 0.441406,-0.367187 0.597656,-1.089844 z m 4.308594,1.496094 q -0.390625,0.332031 -0.753906,0.46875 -0.359375,0.136719 -0.773438,0.136719 -0.683594,0 -1.050781,-0.332031 -0.367188,-0.335938 -0.367188,-0.855469 0,-0.304688 0.136719,-0.554688 0.140625,-0.253906 0.363281,-0.40625 Q 65,41.792969 65.28125,41.714844 q 0.207031,-0.05469 0.625,-0.105469 0.851562,-0.101563 1.253906,-0.242188 0.0039,-0.144531 0.0039,-0.183593 0,-0.429688 -0.199218,-0.605469 -0.269532,-0.238281 -0.800782,-0.238281 -0.496093,0 -0.734375,0.175781 -0.234375,0.171875 -0.347656,0.613281 l -0.6875,-0.09375 q 0.09375,-0.441406 0.308594,-0.710937 0.214844,-0.273438 0.621094,-0.417969 0.40625,-0.148438 0.941406,-0.148438 0.53125,0 0.863281,0.125 0.332031,0.125 0.488281,0.316407 0.15625,0.1875 0.21875,0.476562 0.03516,0.179688 0.03516,0.648438 v 0.9375 q 0,0.980468 0.04297,1.242187 Q 67.960937,43.761719 68.09375,44 H 67.359375 Q 67.25,43.78125 67.21875,43.488281 Z m -0.05859,-1.570312 q -0.382812,0.15625 -1.148437,0.265625 -0.433594,0.0625 -0.613282,0.140625 -0.179687,0.07813 -0.277343,0.230468 -0.09766,0.148438 -0.09766,0.332032 0,0.28125 0.210938,0.46875 0.214844,0.1875 0.625,0.1875 0.40625,0 0.722656,-0.175782 0.316406,-0.179687 0.464844,-0.488281 0.113281,-0.238281 0.113281,-0.703125 z M 69.609375,44 h -0.652344 v -5.726563 h 0.703125 v 2.042969 q 0.445313,-0.558594 1.136719,-0.558594 0.382812,0 0.722656,0.15625 0.34375,0.152344 0.5625,0.433594 0.222656,0.277344 0.347656,0.671875 0.125,0.394531 0.125,0.84375 0,1.066406 -0.527343,1.648438 Q 71.5,44.09375 70.761719,44.09375 q -0.734375,0 -1.152344,-0.613281 z m -0.0078,-2.105469 q 0,0.746094 0.203125,1.078125 0.332032,0.542969 0.898438,0.542969 0.460937,0 0.796875,-0.398438 0.335937,-0.402343 0.335937,-1.195312 0,-0.8125 -0.324218,-1.199219 -0.320313,-0.386719 -0.777344,-0.386719 -0.460938,0 -0.796875,0.402344 -0.335938,0.398438 -0.335938,1.15625 z m 3.8125,-2.8125 v -0.808594 h 0.703125 v 0.808594 z m 0,4.917969 v -4.148438 h 0.703125 V 44 Z m 1.773438,0 v -4.148438 h 0.632812 v 0.589844 q 0.457032,-0.683594 1.320313,-0.683594 0.375,0 0.6875,0.136719 0.316406,0.132813 0.472656,0.351563 0.15625,0.21875 0.21875,0.519531 0.03906,0.195312 0.03906,0.683594 V 44 h -0.703125 v -2.523438 q 0,-0.429687 -0.08203,-0.640625 -0.08203,-0.214843 -0.292968,-0.339843 -0.207032,-0.128907 -0.488282,-0.128907 -0.449218,0 -0.777343,0.285157 -0.324219,0.285156 -0.324219,1.082031 V 44 Z m 7.289062,-1.335938 0.726563,0.08984 q -0.171875,0.636719 -0.636719,0.988281 -0.464844,0.351563 -1.1875,0.351563 -0.910156,0 -1.445312,-0.558594 -0.53125,-0.5625 -0.53125,-1.574219 0,-1.046875 0.539062,-1.625 0.539063,-0.578125 1.398438,-0.578125 0.832031,0 1.359375,0.566407 0.527343,0.566406 0.527343,1.59375 0,0.0625 -0.0039,0.1875 h -3.09375 q 0.03906,0.683593 0.386719,1.046875 0.347656,0.363281 0.867187,0.363281 0.386719,0 0.660157,-0.203125 0.273437,-0.203125 0.433593,-0.648438 z m -2.308593,-1.136718 h 2.316406 q -0.04687,-0.523438 -0.265625,-0.785157 -0.335938,-0.40625 -0.871094,-0.40625 -0.484375,0 -0.816406,0.324219 -0.328125,0.324219 -0.363281,0.867188 z m 5.453125,1.84375 0.101562,0.621093 q -0.296875,0.0625 -0.53125,0.0625 -0.382812,0 -0.59375,-0.121093 -0.210937,-0.121094 -0.296875,-0.316407 -0.08594,-0.199218 -0.08594,-0.832031 v -2.386719 h -0.515625 v -0.546875 h 0.515625 v -1.027343 l 0.699218,-0.421875 v 1.449218 h 0.707032 v 0.546875 h -0.707032 v 2.425782 q 0,0.300781 0.03516,0.386718 0.03906,0.08594 0.121093,0.136719 0.08594,0.05078 0.242188,0.05078 0.117187,0 0.308594,-0.02734 z m 2.742187,-1.210938 0.714844,-0.0625 q 0.05078,0.429688 0.234375,0.707031 0.1875,0.273438 0.578125,0.445313 0.390625,0.167969 0.878906,0.167969 0.433594,0 0.765625,-0.128907 0.332031,-0.128906 0.492188,-0.351562 0.164062,-0.226563 0.164062,-0.492188 0,-0.269531 -0.15625,-0.46875 -0.15625,-0.203125 -0.515625,-0.339843 Q 91.289062,41.546875 90.5,41.359375 89.710937,41.167969 89.394531,41 88.984375,40.785156 88.78125,40.46875 q -0.199219,-0.320313 -0.199219,-0.714844 0,-0.433594 0.246094,-0.808594 0.246094,-0.378906 0.71875,-0.574218 0.472656,-0.195313 1.050781,-0.195313 0.636719,0 1.121094,0.207031 0.488281,0.203125 0.75,0.601563 0.261719,0.398437 0.28125,0.902344 l -0.726563,0.05469 Q 91.964844,39.398437 91.625,39.121094 91.289062,38.84375 90.628906,38.84375 q -0.6875,0 -1.003906,0.253906 -0.3125,0.25 -0.3125,0.605469 0,0.308594 0.222656,0.507812 0.21875,0.199219 1.140625,0.410157 0.925781,0.207031 1.269531,0.363281 0.5,0.230469 0.738282,0.585937 0.238281,0.351563 0.238281,0.8125 0,0.457032 -0.261719,0.863282 -0.261719,0.402343 -0.753906,0.628906 -0.488281,0.222656 -1.101563,0.222656 -0.777343,0 -1.304687,-0.226562 -0.523438,-0.226563 -0.824219,-0.679688 -0.296875,-0.457031 -0.3125,-1.03125 z m 5.507813,-3.078125 v -0.808594 h 0.703125 v 0.808594 z m 0,4.917969 v -4.148438 h 0.703125 V 44 Z m 1.773437,0 v -4.148438 h 0.628906 v 0.582032 q 0.195313,-0.304688 0.519532,-0.488282 0.324218,-0.1875 0.738281,-0.1875 0.460937,0 0.753906,0.191407 0.296875,0.191406 0.417969,0.535156 0.492187,-0.726563 1.28125,-0.726563 0.617185,0 0.949215,0.34375 0.33204,0.339844 0.33204,1.050782 V 44 h -0.69922 v -2.613281 q 0,-0.421875 -0.0703,-0.605469 -0.0664,-0.1875 -0.24609,-0.300781 -0.17969,-0.113282 -0.421875,-0.113282 -0.4375,0 -0.726563,0.292969 Q 98.8125,40.949219 98.8125,41.589844 V 44 h -0.703125 v -2.695313 q 0,-0.46875 -0.171875,-0.703125 -0.171875,-0.234375 -0.5625,-0.234375 -0.296875,0 -0.550781,0.15625 -0.25,0.15625 -0.363282,0.457032 -0.113281,0.300781 -0.113281,0.867187 V 44 Z m 9.382809,0 v -0.609375 q -0.48437,0.703125 -1.3164,0.703125 -0.36719,0 -0.6875,-0.140625 -0.31641,-0.140625 -0.47266,-0.351563 -0.15234,-0.214843 -0.21484,-0.523437 -0.043,-0.207031 -0.043,-0.65625 v -2.570313 h 0.70312 v 2.300782 q 0,0.550781 0.043,0.742187 0.0664,0.277344 0.28125,0.4375 0.21485,0.15625 0.53125,0.15625 0.31641,0 0.59375,-0.160156 0.27735,-0.164063 0.39063,-0.441406 0.11719,-0.28125 0.11719,-0.8125 v -2.222657 h 0.70312 V 44 Z m 1.71485,0 v -5.726563 h 0.70312 V 44 Z m 4.5,-0.511719 q -0.39063,0.332031 -0.75391,0.46875 -0.35937,0.136719 -0.77344,0.136719 -0.68359,0 -1.05078,-0.332031 -0.36718,-0.335938 -0.36718,-0.855469 0,-0.304688 0.13671,-0.554688 0.14063,-0.253906 0.36329,-0.40625 0.22656,-0.152343 0.50781,-0.230468 0.20703,-0.05469 0.625,-0.105469 0.85156,-0.101563 1.2539,-0.242188 0.004,-0.144531 0.004,-0.183593 0,-0.429688 -0.19922,-0.605469 -0.26953,-0.238281 -0.80078,-0.238281 -0.49609,0 -0.73437,0.175781 -0.23438,0.171875 -0.34766,0.613281 l -0.6875,-0.09375 q 0.0937,-0.441406 0.30859,-0.710937 0.21485,-0.273438 0.6211,-0.417969 0.40625,-0.148438 0.9414,-0.148438 0.53125,0 0.86328,0.125 0.33204,0.125 0.48829,0.316407 0.15625,0.1875 0.21875,0.476562 0.0352,0.179688 0.0352,0.648438 v 0.9375 q 0,0.980468 0.043,1.242187 0.0469,0.257813 0.17969,0.496094 h -0.73438 q -0.10937,-0.21875 -0.14062,-0.511719 z m -0.0586,-1.570312 q -0.38281,0.15625 -1.14843,0.265625 -0.4336,0.0625 -0.61328,0.140625 -0.17969,0.07813 -0.27735,0.230468 -0.0977,0.148438 -0.0977,0.332032 0,0.28125 0.21093,0.46875 0.21485,0.1875 0.625,0.1875 0.40625,0 0.72266,-0.175782 0.31641,-0.179687 0.46484,-0.488281 0.11328,-0.238281 0.11328,-0.703125 z m 3.33594,1.453125 0.10156,0.621093 q -0.29687,0.0625 -0.53125,0.0625 -0.38281,0 -0.59375,-0.121093 -0.21093,-0.121094 -0.29687,-0.316407 -0.0859,-0.199218 -0.0859,-0.832031 v -2.386719 h -0.51562 v -0.546875 h 0.51562 v -1.027343 l 0.69922,-0.421875 v 1.449218 h 0.70703 v 0.546875 h -0.70703 v 2.425782 q 0,0.300781 0.0352,0.386718 0.0391,0.08594 0.12109,0.136719 0.0859,0.05078 0.24219,0.05078 0.11719,0 0.30859,-0.02734 z m 0.42578,-1.445313 q 0,-1.152344 0.64063,-1.707031 0.53515,-0.460938 1.30469,-0.460938 0.85546,0 1.39843,0.5625 0.54297,0.558594 0.54297,1.546875 0,0.800782 -0.24219,1.261719 -0.23828,0.457031 -0.69921,0.710938 -0.45704,0.253906 -1,0.253906 -0.8711,0 -1.41016,-0.558594 -0.53516,-0.558594 -0.53516,-1.609375 z m 0.72266,0 q 0,0.796875 0.34766,1.195313 0.34765,0.394531 0.875,0.394531 0.52343,0 0.87109,-0.398438 0.34766,-0.398437 0.34766,-1.214843 0,-0.769532 -0.35157,-1.164063 -0.34765,-0.398437 -0.86718,-0.398437 -0.52735,0 -0.875,0.394531 -0.34766,0.394531 -0.34766,1.191406 z M 119.64844,44 v -4.148438 h 0.63281 v 0.628907 q 0.24219,-0.441407 0.44531,-0.582032 0.20703,-0.140625 0.45313,-0.140625 0.35547,0 0.72265,0.226563 l -0.24218,0.652344 q -0.25782,-0.152344 -0.51563,-0.152344 -0.23047,0 -0.41406,0.140625 -0.18359,0.136719 -0.26172,0.382812 -0.11719,0.375 -0.11719,0.820313 V 44 Z"
     id="text4"
     style="font-size:8px;font-family:Arial, Helvetica, sans-serif;text-anchor:middle;fill:#888888"
     aria-label="Cabinet Simulator" />
  <!-- Blend Label -->
  <path
     d="m 78.842041,60 v -5.010742 h 1.879883 q 0.574219,0 0.919433,0.153808 0.348633,0.150391 0.543457,0.468262 0.198243,0.314453 0.198243,0.659668 0,0.321289 -0.174317,0.604981 -0.174316,0.283691 -0.526367,0.458007 0.45459,0.133301 0.697266,0.45459 0.246093,0.321289 0.246093,0.758789 0,0.352051 -0.15039,0.65625 -0.146973,0.300782 -0.365723,0.464844 -0.21875,0.164063 -0.550293,0.249512 Q 81.231201,60 80.752686,60 Z m 0.663086,-2.905273 h 1.083496 q 0.440918,0 0.632324,-0.05811 0.25293,-0.07519 0.379395,-0.249512 0.129883,-0.174316 0.129883,-0.4375 0,-0.249511 -0.119629,-0.4375 -0.119629,-0.191406 -0.341797,-0.259765 -0.222168,-0.07178 -0.762207,-0.07178 h -1.001465 z m 0,2.313964 h 1.247559 q 0.321289,0 0.451171,-0.02392 0.229004,-0.04102 0.382813,-0.136719 0.153809,-0.0957 0.25293,-0.276856 0.09912,-0.18457 0.09912,-0.423828 0,-0.280273 -0.143555,-0.485351 -0.143555,-0.208496 -0.399902,-0.290528 -0.25293,-0.08545 -0.731446,-0.08545 H 79.505127 Z M 83.510986,60 v -5.010742 h 0.663086 v 4.419433 h 2.467774 V 60 Z m 3.934082,0 v -5.010742 h 3.623047 v 0.591308 h -2.959961 v 1.534668 h 2.771973 v 0.587891 h -2.771973 v 1.705566 h 3.076172 V 60 Z m 4.648438,0 v -5.010742 h 0.680176 l 2.631836,3.934082 V 54.989258 H 96.04126 V 60 H 95.361084 L 92.729248,56.0625 V 60 Z m 5.062012,0 v -5.010742 h 1.726074 q 0.584472,0 0.89209,0.07178 0.430668,0.09912 0.734858,0.358887 0.39649,0.334961 0.59131,0.85791 0.19825,0.519531 0.19825,1.189453 0,0.570801 -0.13331,1.011719 -0.1333,0.440918 -0.34179,0.731445 -0.2085,0.28711 -0.45801,0.45459 -0.24609,0.164063 -0.598144,0.249512 Q 99.418213,60 98.963623,60 Z m 0.663086,-0.591309 h 1.069824 q 0.495605,0 0.775879,-0.09228 0.283691,-0.09229 0.451173,-0.259765 0.23584,-0.23584 0.36572,-0.632325 0.1333,-0.399902 0.1333,-0.967285 0,-0.786133 -0.25976,-1.206543 -0.25635,-0.423828 -0.625492,-0.567383 -0.266602,-0.102539 -0.85791,-0.102539 h -1.052734 z"
     id="text5"
     style="font-size:7px;font-family:Arial, Helvetica, sans-serif;text-anchor:middle;fill:#aaaaaa"
     aria-label="BLEND" />
  <!-- Blend knob area (centered at 90, 89 in mm -> 90, 89px approx) -->
  <circle
     cx="90"
     cy="89"
     r="16"
     fill="none"
     stroke="#555"
     stroke-width="1"
     id="circle5" />
  <!-- Filter Labels -->
  <path
     d="m 39.698486,135 v -5.01074 h 0.663086 v 2.05761 h 2.604492 v -2.05761 H 43.62915 V 135 h -0.663086 v -2.36182 H 40.361572 V 135 Z m 5.034668,0 v -5.01074 h 1.890137 q 0.499023,0 0.762207,0.0479 0.369141,0.0615 0.618652,0.23584 0.249512,0.1709 0.399903,0.48193 0.153808,0.31104 0.153808,0.6836 0,0.63916 -0.406738,1.08349 -0.406738,0.44092 -1.469727,0.44092 H 45.39624 V 135 Z m 0.663086,-2.62842 h 1.29541 q 0.642579,0 0.912598,-0.23926 0.27002,-0.23925 0.27002,-0.67334 0,-0.31445 -0.160645,-0.53662 -0.157227,-0.22558 -0.416992,-0.29736 -0.167481,-0.0444 -0.618652,-0.0444 H 45.39624 Z"
     id="text6"
     style="font-size:7px;font-family:Arial, Helvetica, sans-serif;text-anchor:middle;fill:#aaaaaa"
     aria-label="HP" />
  <path
     d="m 131.23169,135 v -5.01074 h 0.66309 v 4.41943 h 2.46777 V 135 Z m 3.92041,0 v -5.01074 h 1.89014 q 0.49902,0 0.7622,0.0479 0.36914,0.0615 0.61866,0.23584 0.24951,0.1709 0.3999,0.48193 0.15381,0.31104 0.15381,0.6836 0,0.63916 -0.40674,1.08349 -0.40674,0.44092 -1.46973,0.44092 h -1.28515 V 135 Z m 0.66309,-2.62842 h 1.29541 q 0.64257,0 0.91259,-0.23926 0.27002,-0.23925 0.27002,-0.67334 0,-0.31445 -0.16064,-0.53662 -0.15723,-0.22558 -0.41699,-0.29736 -0.16748,-0.0444 -0.61866,-0.0444 h -1.28173 z"
     id="text7"
     style="font-size:7px;font-family:Arial, Helvetica, sans-serif;text-anchor:middle;fill:#aaaaaa"
     aria-label="LP" />
  <!-- Filter knob areas -->
  <circle
     cx="44"
     cy="163"
     r="12"
     fill="none"
     stroke="#555"
     stroke-width="1"
     id="circle7" />
  <circle
     cx="135"
     cy="163"
     r="12"
     fill="none"
     stroke="#555"
     stroke-width="1"
     id="circle8" />
  <!-- Output Label -->
  <path
     d="m 75.950439,207.55957 q 0,-1.24756 0.669922,-1.95166 0.669922,-0.70752 1.729493,-0.70752 0.693847,0 1.250976,0.33154 0.557129,0.33155 0.847656,0.92627 0.293946,0.59131 0.293946,1.34326 0,0.76221 -0.307618,1.36377 -0.307617,0.60157 -0.871582,0.9126 -0.563964,0.30762 -1.216796,0.30762 -0.70752,0 -1.264649,-0.3418 -0.557129,-0.34179 -0.844238,-0.9331 -0.28711,-0.59131 -0.28711,-1.25098 z m 0.683594,0.0102 q 0,0.90577 0.485352,1.42872 0.488769,0.51953 1.223633,0.51953 0.748535,0 1.230468,-0.52637 0.485352,-0.52637 0.485352,-1.49365 0,-0.61182 -0.208496,-1.06641 -0.205078,-0.45801 -0.604981,-0.70752 -0.396484,-0.25293 -0.89209,-0.25293 -0.704101,0 -1.213378,0.48535 -0.50586,0.48194 -0.50586,1.61328 z m 8.250977,-2.58056 h 0.663086 v 2.89502 q 0,0.75537 -0.170899,1.1997 -0.170898,0.44434 -0.618652,0.72461 -0.444336,0.27686 -1.168945,0.27686 -0.704102,0 -1.151856,-0.24268 -0.447754,-0.24267 -0.63916,-0.70068 -0.191406,-0.46143 -0.191406,-1.25781 v -2.89502 h 0.663086 v 2.8916 q 0,0.65283 0.119629,0.96387 0.123046,0.30761 0.416992,0.47509 0.297363,0.16748 0.724609,0.16748 0.731445,0 1.042481,-0.33154 0.311035,-0.33154 0.311035,-1.2749 z M 87.927002,210 v -4.41943 h -1.650879 v -0.59131 h 3.97168 v 0.59131 H 88.590088 V 210 Z m 3.000977,0 v -5.01074 h 1.890136 q 0.499024,0 0.762207,0.0479 0.369141,0.0615 0.618653,0.23584 0.249511,0.1709 0.399902,0.48193 0.153809,0.31104 0.153809,0.6836 0,0.63916 -0.406739,1.08349 -0.406738,0.44092 -1.469726,0.44092 H 91.591064 V 210 Z m 0.663085,-2.62842 h 1.295411 q 0.642578,0 0.912597,-0.23926 0.27002,-0.23925 0.27002,-0.67334 0,-0.31445 -0.160645,-0.53662 -0.157226,-0.22558 -0.416992,-0.29736 -0.16748,-0.0444 -0.618652,-0.0444 h -1.281739 z m 7.293946,-2.38232 h 0.663086 v 2.89502 q 0,0.75537 -0.170899,1.1997 -0.170898,0.44434 -0.618652,0.72461 -0.444336,0.27686 -1.168945,0.27686 -0.704102,0 -1.151856,-0.24268 -0.447754,-0.24267 -0.63916,-0.70068 -0.191406,-0.46143 -0.191406,-1.25781 v -2.89502 h 0.663086 v 2.8916 q 0,0.65283 0.119629,0.96387 0.123046,0.30761 0.416992,0.47509 0.297363,0.16748 0.724609,0.16748 0.731445,0 1.042481,-0.33154 0.311035,-0.33154 0.311035,-1.2749 z M 101.927,210 v -4.41943 h -1.65088 v -0.59131 h 3.97168 v 0.59131 h -1.65771 V 210 Z"
     id="text8"
     style="font-size:7px;font-family:Arial, Helvetica, sans-serif;text-anchor:middle;fill:#aaaaaa"
     aria-label="OUTPUT" />
  <!-- Output knob area -->
  <circle
     cx="90"
     cy="236"
     r="12"
     fill="none"
     stroke="#555"
     stroke-width="1"
     id="circle9" />
  <!-- IR Status Labels -->
  <path
     d="m 38.039062,268 v -5.01074 h 0.663086 V 268 Z m 1.842286,0 v -5.01074 h 2.221679 q 0.669922,0 1.018555,0.13672 0.348633,0.1333 0.557129,0.47509 0.208496,0.3418 0.208496,0.75538 0,0.5332 -0.345215,0.89892 -0.345215,0.36572 -1.066406,0.46484 0.263184,0.12647 0.399902,0.24952 0.290528,0.2666 0.550293,0.6665 L 44.297363,268 h -0.833984 l -0.663086,-1.04248 q -0.290527,-0.45117 -0.478516,-0.69043 -0.187988,-0.23926 -0.338379,-0.33496 -0.146972,-0.0957 -0.300781,-0.1333 -0.112793,-0.0239 -0.36914,-0.0239 H 40.544434 V 268 Z m 0.663086,-2.79932 h 1.425293 q 0.454589,0 0.710937,-0.0923 0.256348,-0.0957 0.389648,-0.30078 0.133301,-0.2085 0.133301,-0.45117 0,-0.35547 -0.259765,-0.58448 -0.256348,-0.229 -0.813477,-0.229 H 40.544434 Z M 45.93457,268 l 1.924317,-5.01074 h 0.714355 L 50.624023,268 H 49.868652 L 49.28418,266.48242 H 47.188965 L 46.638672,268 Z m 1.445801,-2.05762 h 1.698731 l -0.52295,-1.38769 q -0.239257,-0.63233 -0.355468,-1.03907 -0.0957,0.48194 -0.27002,0.95704 z"
     id="text9"
     style="font-size:7px;font-family:Arial, Helvetica, sans-serif;text-anchor:middle;fill:#aaaaaa"
     aria-label="IR A" />
  <path
     d="m 128.84595,268 v -5.01074 h 0.66308 V 268 Z m 1.84228,0 v -5.01074 h 2.22168 q 0.66992,0 1.01856,0.13672 0.34863,0.1333 0.55713,0.47509 0.20849,0.3418 0.20849,0.75538 0,0.5332 -0.34521,0.89892 -0.34522,0.36572 -1.06641,0.46484 0.26318,0.12647 0.3999,0.24952 0.29053,0.2666 0.5503,0.6665 L 135.10425,268 h -0.83399 l -0.66308,-1.04248 q -0.29053,-0.45117 -0.47852,-0.69043 -0.18799,-0.23926 -0.33838,-0.33496 -0.14697,-0.0957 -0.30078,-0.1333 -0.11279,-0.0239 -0.36914,-0.0239 h -0.76904 V 268 Z m 0.66309,-2.79932 h 1.42529 q 0.45459,0 0.71094,-0.0923 0.25635,-0.0957 0.38965,-0.30078 0.1333,-0.2085 0.1333,-0.45117 0,-0.35547 -0.25977,-0.58448 -0.25635,-0.229 -0.81347,-0.229 h -1.58594 z M 137.65063,268 v -5.01074 h 1.87989 q 0.57422,0 0.91943,0.15381 0.34863,0.15039 0.54346,0.46826 0.19824,0.31445 0.19824,0.65967 0,0.32129 -0.17432,0.60498 -0.17431,0.28369 -0.52636,0.458 0.45459,0.13331 0.69726,0.45459 0.2461,0.32129 0.2461,0.75879 0,0.35205 -0.15039,0.65625 -0.14698,0.30078 -0.36573,0.46485 -0.21875,0.16406 -0.55029,0.24951 -0.32813,0.082 -0.80664,0.082 z m 0.66309,-2.90527 h 1.0835 q 0.44091,0 0.63232,-0.0581 0.25293,-0.0752 0.3794,-0.24951 0.12988,-0.17432 0.12988,-0.4375 0,-0.24951 -0.11963,-0.4375 -0.11963,-0.19141 -0.3418,-0.25977 -0.22217,-0.0718 -0.7622,-0.0718 h -1.00147 z m 0,2.31396 h 1.24756 q 0.32129,0 0.45117,-0.0239 0.22901,-0.041 0.38281,-0.13672 0.15381,-0.0957 0.25293,-0.27686 0.0991,-0.18457 0.0991,-0.42383 0,-0.28027 -0.14355,-0.48535 -0.14355,-0.20849 -0.3999,-0.29053 -0.25293,-0.0854 -0.73145,-0.0854 h -1.15869 z"
     id="text10"
     style="font-size:7px;font-family:Arial, Helvetica, sans-serif;text-anchor:middle;fill:#aaaaaa"
     aria-label="IR B" />
  <!-- IR Light areas -->
  <circle
     cx="44"
     cy="281"
     r="5"
     fill="#1a3a1a"
     stroke="#333"
     stroke-width="1"
     id="circle10" />
  <circle
     cx="135"
     cy="281"
     r="5"
     fill="#1a3a1a"
     stroke="#333"
     stroke-width="1"
     id="circle11" />
  <!-- I/O Labels -->
  <path
     d="m 41.152832,305 v -5.01074 h 0.663086 V 305 Z m 1.825195,0 v -5.01074 h 0.680176 l 2.631836,3.93408 v -3.93408 h 0.635742 V 305 H 46.245605 L 43.61377,301.0625 V 305 Z"
     id="text11"
     style="font-size:7px;font-family:Arial, Helvetica, sans-serif;text-anchor:middle;fill:#aaaaaa"
     aria-label="IN" />
  <path
     d="m 127.95044,302.55957 q 0,-1.24756 0.66992,-1.95166 0.66992,-0.70752 1.72949,-0.70752 0.69385,0 1.25098,0.33154 0.55713,0.33155 0.84766,0.92627 0.29394,0.59131 0.29394,1.34326 0,0.76221 -0.30762,1.36377 -0.30761,0.60157 -0.87158,0.9126 -0.56396,0.30762 -1.21679,0.30762 -0.70752,0 -1.26465,-0.3418 -0.55713,-0.34179 -0.84424,-0.9331 -0.28711,-0.59131 -0.28711,-1.25098 z m 0.68359,0.0102 q 0,0.90577 0.48535,1.42872 0.48877,0.51953 1.22364,0.51953 0.74853,0 1.23047,-0.52637 0.48535,-0.52637 0.48535,-1.49365 0,-0.61182 -0.2085,-1.06641 -0.20508,-0.45801 -0.60498,-0.70752 -0.39648,-0.25293 -0.89209,-0.25293 -0.7041,0 -1.21338,0.48535 -0.50586,0.48194 -0.50586,1.61328 z m 8.25098,-2.58056 h 0.66309 v 2.89502 q 0,0.75537 -0.1709,1.1997 -0.1709,0.44434 -0.61866,0.72461 -0.44433,0.27686 -1.16894,0.27686 -0.7041,0 -1.15186,-0.24268 -0.44775,-0.24267 -0.63916,-0.70068 -0.1914,-0.46143 -0.1914,-1.25781 v -2.89502 h 0.66308 v 2.8916 q 0,0.65283 0.11963,0.96387 0.12305,0.30761 0.41699,0.47509 0.29737,0.16748 0.72461,0.16748 0.73145,0 1.04248,-0.33154 0.31104,-0.33154 0.31104,-1.2749 z M 139.927,305 v -4.41943 h -1.65088 v -0.59131 h 3.97168 v 0.59131 h -1.65771 V 305 Z"
     id="text12"
     style="font-size:7px;font-family:Arial, Helvetica, sans-serif;text-anchor:middle;fill:#aaaaaa"
     aria-label="OUT" />
  <!-- I/O Jack areas -->
  <circle
     cx="44"
     cy="312"
     r="10"
     fill="none"
     stroke="#555"
     stroke-width="1"
     id="circle12" />
  <circle
     cx="135"
     cy="312"
     r="10"
     fill="none"
     stroke="#555"
     stroke-width="1"
     id="circle13" />
  <!-- Brand -->
  <path
     d="m 64.819336,363.62012 0.536133,-0.0469 q 0.03809,0.32227 0.175781,0.53028 0.140625,0.20507 0.433594,0.33398 0.292968,0.12598 0.659179,0.12598 0.325196,0 0.574219,-0.0967 0.249024,-0.0967 0.369141,-0.26368 0.123047,-0.16992 0.123047,-0.36914 0,-0.20214 -0.117188,-0.35156 -0.117187,-0.15234 -0.386719,-0.25488 -0.172851,-0.0674 -0.764648,-0.20801 -0.591797,-0.14355 -0.829102,-0.26953 -0.307617,-0.16113 -0.459961,-0.39844 -0.149414,-0.24023 -0.149414,-0.53613 0,-0.3252 0.184571,-0.60645 0.18457,-0.28418 0.539062,-0.43066 0.354492,-0.14648 0.788086,-0.14648 0.477539,0 0.84082,0.15527 0.366211,0.15234 0.5625,0.45117 0.19629,0.29883 0.210938,0.67676 l -0.544922,0.041 q -0.04394,-0.40722 -0.298828,-0.61523 -0.251953,-0.20801 -0.74707,-0.20801 -0.515625,0 -0.75293,0.19043 -0.234375,0.1875 -0.234375,0.4541 0,0.23145 0.166992,0.38086 0.164063,0.14942 0.855469,0.30762 0.694336,0.15527 0.952148,0.27246 0.375,0.17285 0.553711,0.43945 0.178711,0.26368 0.178711,0.60938 0,0.34277 -0.196289,0.64746 -0.196289,0.30176 -0.56543,0.47168 -0.36621,0.16699 -0.826171,0.16699 -0.583008,0 -0.978516,-0.16992 -0.392578,-0.16992 -0.618164,-0.50977 -0.222656,-0.34277 -0.234375,-0.77343 z M 69.032227,365 v -4.29492 h 0.568359 v 1.76367 h 2.232422 v -1.76367 h 0.568359 V 365 h -0.568359 v -2.02441 H 69.600586 V 365 Z m 4.142578,-2.0918 q 0,-1.06933 0.574218,-1.67285 0.574219,-0.60644 1.482422,-0.60644 0.594727,0 1.072266,0.28418 0.477539,0.28418 0.726562,0.79394 0.251954,0.50684 0.251954,1.15137 0,0.65332 -0.263672,1.16894 -0.263672,0.51563 -0.747071,0.78223 -0.483398,0.26367 -1.042968,0.26367 -0.606446,0 -1.083985,-0.29297 -0.477539,-0.29297 -0.723633,-0.7998 -0.246093,-0.50684 -0.246093,-1.07227 z m 0.585937,0.009 q 0,0.77637 0.416016,1.22461 0.418945,0.44531 1.048828,0.44531 0.641601,0 1.054687,-0.45117 0.416016,-0.45117 0.416016,-1.28027 0,-0.52442 -0.178711,-0.91406 -0.175781,-0.39258 -0.518555,-0.60645 -0.339843,-0.2168 -0.764648,-0.2168 -0.603516,0 -1.040039,0.41602 -0.433594,0.41309 -0.433594,1.38281 z M 78.023437,365 v -4.29492 h 1.904297 q 0.574219,0 0.873047,0.11719 0.298828,0.11425 0.477539,0.40722 0.178711,0.29297 0.178711,0.64746 0,0.45703 -0.295898,0.77051 -0.295899,0.31348 -0.914063,0.39844 0.225586,0.1084 0.342774,0.21387 0.249023,0.22851 0.471679,0.57128 L 81.808594,365 H 81.09375 l -0.568359,-0.89355 q -0.249024,-0.38672 -0.410157,-0.5918 -0.161132,-0.20508 -0.290039,-0.28711 -0.125976,-0.082 -0.257812,-0.11426 -0.09668,-0.0205 -0.316406,-0.0205 h -0.65918 V 365 Z m 0.56836,-2.39941 h 1.22168 q 0.389648,0 0.609375,-0.0791 0.219726,-0.082 0.333984,-0.25781 0.114258,-0.17871 0.114258,-0.38672 0,-0.30468 -0.222657,-0.50097 -0.219726,-0.19629 -0.697265,-0.19629 H 78.591797 Z M 83.332031,365 v -3.78809 h -1.415039 v -0.50683 h 3.404297 v 0.50683 H 83.900391 V 365 Z m 3.322266,0 -1.139649,-4.29492 h 0.583008 l 0.653321,2.81543 q 0.105468,0.44238 0.18164,0.8789 0.164063,-0.68847 0.19336,-0.79394 l 0.817382,-2.90039 h 0.685547 l 0.615235,2.17383 q 0.231445,0.80859 0.333984,1.5205 0.08203,-0.40722 0.213867,-0.93457 l 0.673828,-2.75976 h 0.571289 L 89.859375,365 h -0.547852 l -0.905273,-3.27246 q -0.114258,-0.41016 -0.134766,-0.50391 -0.06738,0.2959 -0.125976,0.50391 L 87.234375,365 Z m 4.21875,0 1.649414,-4.29492 h 0.612305 L 94.892578,365 h -0.647461 l -0.500976,-1.30078 H 91.948242 L 91.476562,365 Z m 1.239258,-1.76367 h 1.456054 l -0.448242,-1.18946 q -0.205078,-0.54199 -0.304687,-0.89062 -0.08203,0.41309 -0.231446,0.82031 z M 96.128906,365 94.464844,360.70508 h 0.615234 l 1.116211,3.12012 q 0.134766,0.375 0.225586,0.70312 0.09961,-0.35156 0.231445,-0.70312 l 1.160157,-3.12012 h 0.580078 L 96.711914,365 Z m 4.417974,0 v -4.29492 h 0.56835 v 3.78808 h 2.11524 V 365 Z m 2.88867,0 1.64941,-4.29492 h 0.61231 L 107.45508,365 h -0.64746 l -0.50098,-1.30078 h -1.7959 L 104.03906,365 Z m 1.23925,-1.76367 h 1.45606 l -0.44824,-1.18946 q -0.20508,-0.54199 -0.30469,-0.89062 -0.082,0.41309 -0.23145,0.82031 z M 107.88574,365 v -4.29492 h 1.61133 q 0.49219,0 0.78809,0.13183 0.29882,0.12891 0.46582,0.40137 0.16992,0.26953 0.16992,0.56543 0,0.27539 -0.14942,0.51856 -0.14941,0.24316 -0.45117,0.39257 0.38965,0.11426 0.59766,0.38965 0.21094,0.27539 0.21094,0.65039 0,0.30176 -0.12891,0.5625 -0.12598,0.25782 -0.31348,0.39844 -0.1875,0.14063 -0.47168,0.21387 Q 109.93359,365 109.52344,365 Z m 0.56836,-2.49023 h 0.92871 q 0.37793,0 0.54199,-0.0498 0.2168,-0.0645 0.3252,-0.21387 0.11133,-0.14941 0.11133,-0.375 0,-0.21386 -0.10254,-0.375 -0.10254,-0.16406 -0.29297,-0.22265 -0.19043,-0.0615 -0.65332,-0.0615 h -0.8584 z m 0,1.98339 h 1.06934 q 0.27539,0 0.38672,-0.0205 0.19629,-0.0352 0.32812,-0.11719 0.13184,-0.082 0.2168,-0.23731 0.085,-0.1582 0.085,-0.36328 0,-0.24023 -0.12305,-0.41601 -0.12304,-0.17871 -0.34277,-0.24903 -0.2168,-0.0732 -0.62695,-0.0732 h -0.99317 z m 3.26367,-0.87304 0.53614,-0.0469 q 0.0381,0.32227 0.17578,0.53028 0.14062,0.20507 0.43359,0.33398 0.29297,0.12598 0.65918,0.12598 0.3252,0 0.57422,-0.0967 0.24902,-0.0967 0.36914,-0.26368 0.12305,-0.16992 0.12305,-0.36914 0,-0.20214 -0.11719,-0.35156 -0.11719,-0.15234 -0.38672,-0.25488 -0.17285,-0.0674 -0.76465,-0.20801 -0.59179,-0.14355 -0.8291,-0.26953 -0.30762,-0.16113 -0.45996,-0.39844 -0.14941,-0.24023 -0.14941,-0.53613 0,-0.3252 0.18457,-0.60645 0.18457,-0.28418 0.53906,-0.43066 0.35449,-0.14648 0.78808,-0.14648 0.47754,0 0.84083,0.15527 0.36621,0.15234 0.5625,0.45117 0.19628,0.29883 0.21093,0.67676 l -0.54492,0.041 q -0.0439,-0.40722 -0.29883,-0.61523 -0.25195,-0.20801 -0.74707,-0.20801 -0.51562,0 -0.75293,0.19043 -0.23437,0.1875 -0.23437,0.4541 0,0.23145 0.16699,0.38086 0.16406,0.14942 0.85547,0.30762 0.69433,0.15527 0.95215,0.27246 0.375,0.17285 0.55371,0.43945 0.17871,0.26368 0.17871,0.60938 0,0.34277 -0.19629,0.64746 -0.19629,0.30176 -0.56543,0.47168 -0.36621,0.16699 -0.82617,0.16699 -0.58301,0 -0.97852,-0.16992 -0.39258,-0.16992 -0.61816,-0.50977 -0.22266,-0.34277 -0.23438,-0.77343 z"
     id="text13"
     style="font-size:6px;font-family:Arial, Helvetica, sans-serif;text-anchor:middle;fill:#666666"
     aria-label="SHORTWAV LABS" />
</svg>
