<?xml version="1.0" encoding="UTF-8"?>
<svg width="330" height="380" viewBox="0 0 330 380" xmlns="http://www.w3.org/2000/svg">
  <rect width="330" height="380" fill="#d7d9d5"/>
  <path d="M0 0H330V380H0Z" fill="#d7d9d5"/>
  <path d="M0 0H330V43H0Z" fill="#e8e9e4"/>
  <path d="M0 310H330V380H0Z" fill="#c7cbc8"/>
  <path d="M0 190H330V236H0Z" fill="#eef0ec"/>
  <path d="M0 246H330V302H0Z" fill="#e3e7e8"/>
  <path d="M0 42H330" stroke="#202326" stroke-width="1"/>
  <path d="M0 190H330" stroke="#a1a9ad" stroke-width="1"/>
  <path d="M0 236H330" stroke="#a1a9ad" stroke-width="1"/>
  <path d="M0 310H330" stroke="#a1a9ad" stroke-width="1"/>
  <path d="M22 49H308V182H22Z" fill="none" stroke="#b7bbb7" stroke-width="1"/>
  <path d="M23 50H307V181H23Z" fill="none" stroke="#f5f6f2" stroke-width="1"/>
  <path d="M18 248H312V298H18Z" fill="none" stroke="#b5bec2" stroke-width="1"/>
  <path d="M19 249H311V297H19Z" fill="none" stroke="#f6fafb" stroke-width="1"/>
  <path d="M20 319H310V365H20Z" fill="none" stroke="#a6aba8" stroke-width="1"/>
  <path d="M21 320H309V364H21Z" fill="none" stroke="#edf0ec" stroke-width="1"/>
  <path d="M-36 160L330 24V56L-36 192Z" fill="#ffffff" opacity="0.27"/>
  <path d="M0 0H330V380H0Z" fill="none" stroke="#151719" stroke-width="2"/>
  <circle cx="25" cy="226" r="9" fill="#f0d6d4" stroke="#c08f8d"/>
  <circle cx="86" cy="226" r="7" fill="#f1e7c1" stroke="#b8a65a"/>
  <circle cx="160" cy="226" r="7" fill="#f1e7c1" stroke="#b8a65a"/>
  <circle cx="235" cy="226" r="7" fill="#cfe5f3" stroke="#6f9bb6"/>
  <circle cx="310" cy="226" r="9" fill="#d4ead8" stroke="#88af90"/>
</svg>
