<?xml version="1.0" encoding="UTF-8"?>
<!-- Generated by Pixelmator Pro 3.7.1 -->
<svg width="270" height="380" viewBox="0 0 270 380" xmlns="http://www.w3.org/2000/svg">
    <g id="Group">
        <path id="Rectangle" fill="#929292" fill-rule="evenodd" stroke="none" d="M 0 380 L 270 380 L 270 0 L 0 0 Z"/>
        <path id="Path-copy" fill="#d5d5d5" stroke="none" d="M 129.972977 407.297028 L 295 468.618683 L 295 349.714233 L 130.016541 288.409576 L 129.972977 407.297028 Z M -25 189.330673 L -25 230.807938 L 79.557838 269.383728 L 294.998138 189.330673 L 294.998138 70.426239 L -25 189.330673 Z M -25 31.714874 L -25 150.618011 L 294.998138 31.714874 L 294.998138 -87.189575 L -25 31.714874 Z"/>
        <g id="Group-copy">
            <path id="Path" fill="#151515" stroke="none" d="M 130.873291 373.961487 L 126.61779 373.961487 L 122.362228 362.580414 L 126.61779 362.580414 L 130.873291 373.961487 Z"/>
            <path id="path1" fill="#151515" stroke="none" d="M 133.743271 373.961487 L 132.25882 373.961487 L 128.00325 362.580414 L 132.25882 362.580414 L 135.123886 370.242767 L 133.743271 373.961487 Z"/>
            <path id="path2" fill="#151515" stroke="none" d="M 140.059769 368.449707 L 142.254456 362.580353 L 137.998901 362.580353 L 135.804825 368.448151 L 140.059769 368.449707 Z"/>
            <path id="path3" fill="#151515" stroke="none" d="M 136.466431 361.037872 L 132.411819 361.037872 C 132.411819 361.037872 132.381638 358.849365 129.310928 358.849365 C 126.240273 358.849365 126.309319 361.530212 126.309319 361.530212 L 122.2547 361.530212 C 122.2547 361.530212 122.102936 355 129.278564 355 C 136.454254 355 136.466431 361.037872 136.466431 361.037872 Z"/>
        </g>
    </g>
    <path id="Rounded-Rectangle-copy" fill="#151515" fill-rule="evenodd" stroke="none" d="M 228 362 C 228 364.209137 229.790863 366 232 366 L 258 366 C 260.209137 366 262 364.209137 262 362 L 262 291 C 262 288.790863 260.209137 287 258 287 L 232 287 C 229.790863 287 228 288.790863 228 291 Z"/>
    <g id="g1">
        <path id="IN" fill="#484848" fill-rule="evenodd" stroke="none" d="M 25.311501 356.700012 L 26.553501 356.700012 L 27.5165 360.471008 L 27.5345 360.471008 L 27.5345 356.700012 L 28.4165 356.700012 L 28.4165 363 L 27.3995 363 L 26.2115 358.401001 L 26.193501 358.401001 L 26.193501 363 L 25.311501 363 Z M 22.953499 356.700012 L 23.943501 356.700012 L 23.943501 363 L 22.953499 363 Z"/>
        <path id="OUT" fill="#ffffff" fill-rule="evenodd" stroke="none" d="M 249.429001 357.600006 L 248.393997 357.600006 L 248.393997 356.700012 L 251.453995 356.700012 L 251.453995 357.600006 L 250.419006 357.600006 L 250.419006 363 L 249.429001 363 Z M 245.847 363.089996 C 245.367004 363.089996 245.001007 362.953491 244.748993 362.680511 C 244.496994 362.407501 244.371002 362.015991 244.371002 361.506012 L 244.371002 356.700012 L 245.360992 356.700012 L 245.360992 361.578003 C 245.360992 361.794006 245.404495 361.950012 245.491501 362.04599 C 245.578506 362.141998 245.703003 362.190002 245.865005 362.190002 C 246.027008 362.190002 246.151505 362.141998 246.238495 362.04599 C 246.3255 361.950012 246.369003 361.794006 246.369003 361.578003 L 246.369003 356.700012 L 247.322998 356.700012 L 247.322998 361.506012 C 247.322998 362.015991 247.197006 362.407501 246.945007 362.680511 C 246.692993 362.953491 246.326996 363.089996 245.847 363.089996 Z M 241.608002 363.089996 C 241.121994 363.089996 240.75 362.951996 240.492004 362.675995 C 240.233994 362.399994 240.104996 362.01001 240.104996 361.506012 L 240.104996 358.194 C 240.104996 357.690002 240.233994 357.299988 240.492004 357.023987 C 240.75 356.747986 241.121994 356.609985 241.608002 356.609985 C 242.094009 356.609985 242.466003 356.747986 242.723999 357.023987 C 242.981995 357.299988 243.110992 357.690002 243.110992 358.194 L 243.110992 361.506012 C 243.110992 362.01001 242.981995 362.399994 242.723999 362.675995 C 242.466003 362.951996 242.094009 363.089996 241.608002 363.089996 Z M 241.608002 362.190002 C 241.949997 362.190002 242.121002 361.983002 242.121002 361.569 L 242.121002 358.131012 C 242.121002 357.71701 241.949997 357.51001 241.608002 357.51001 C 241.265991 357.51001 241.095001 357.71701 241.095001 358.131012 L 241.095001 361.569 C 241.095001 361.983002 241.265991 362.190002 241.608002 362.190002 Z"/>
        <path id="THRES" fill="#484848" fill-rule="evenodd" stroke="none" d="M 67.910995 248.089996 C 67.431 248.089996 67.068001 247.953506 66.821999 247.680496 C 66.575996 247.407501 66.453003 247.016006 66.453003 246.505997 L 66.453003 246.145996 L 67.389 246.145996 L 67.389 246.578003 C 67.389 246.986008 67.559998 247.190002 67.902 247.190002 C 68.07 247.190002 68.197502 247.140503 68.2845 247.041504 C 68.371498 246.942505 68.415001 246.781998 68.415001 246.559998 C 68.415001 246.296005 68.355003 246.063507 68.235001 245.862503 C 68.114998 245.661499 67.893005 245.419998 67.569 245.138 C 67.160995 244.778 66.875999 244.452499 66.714005 244.161499 C 66.552002 243.870499 66.471001 243.542007 66.471001 243.175995 C 66.471001 242.677994 66.597 242.292496 66.848999 242.019501 C 67.100998 241.746506 67.466995 241.610001 67.946999 241.610001 C 68.421005 241.610001 68.779495 241.746506 69.022499 242.019501 C 69.265503 242.292496 69.387001 242.68399 69.387001 243.194 L 69.387001 243.455002 L 68.451004 243.455002 L 68.451004 243.130997 C 68.451004 242.914993 68.408997 242.757507 68.324997 242.658493 C 68.240997 242.559494 68.117996 242.509995 67.956001 242.509995 C 67.625999 242.509995 67.460999 242.710999 67.460999 243.113007 C 67.460999 243.341003 67.522499 243.554001 67.6455 243.751999 C 67.768501 243.949997 67.991997 244.190002 68.316002 244.472 C 68.730003 244.832001 69.014999 245.158997 69.170998 245.453003 C 69.327003 245.747009 69.404999 246.091995 69.404999 246.488007 C 69.404999 247.003998 69.277504 247.399994 69.022499 247.675995 C 68.767502 247.951996 68.397003 248.089996 67.910995 248.089996 Z M 62.709 241.699997 L 65.408997 241.699997 L 65.408997 242.600006 L 63.699001 242.600006 L 63.699001 244.264999 L 65.057999 244.264999 L 65.057999 245.164993 L 63.699001 245.164993 L 63.699001 247.100006 L 65.408997 247.100006 L 65.408997 248 L 62.709 248 Z M 58.452 241.699997 L 59.918999 241.699997 C 60.429001 241.699997 60.800999 241.818497 61.035 242.055496 C 61.269001 242.292496 61.386002 242.656998 61.386002 243.149002 L 61.386002 243.535995 C 61.386002 244.190002 61.170002 244.604004 60.737999 244.778 L 60.737999 244.796005 C 60.978001 244.867996 61.147499 245.014999 61.246498 245.237 C 61.345501 245.459 61.395 245.755997 61.395 246.128006 L 61.395 247.235001 C 61.395 247.415009 61.401001 247.560501 61.413002 247.671494 C 61.424999 247.782501 61.455002 247.891998 61.502998 248 L 60.494999 248 C 60.459 247.897995 60.435001 247.802002 60.423 247.712006 C 60.410999 247.621994 60.404999 247.460007 60.404999 247.225998 L 60.404999 246.074005 C 60.404999 245.785995 60.358501 245.585007 60.265499 245.470993 C 60.172501 245.356995 60.012001 245.300003 59.784 245.300003 L 59.442001 245.300003 L 59.442001 248 L 58.452 248 Z M 59.802002 244.399994 C 60 244.399994 60.148499 244.348999 60.247501 244.246994 C 60.3465 244.145004 60.396 243.973999 60.396 243.733994 L 60.396 243.248001 C 60.396 243.020004 60.355499 242.854996 60.274498 242.753006 C 60.193501 242.651001 60.066002 242.600006 59.891998 242.600006 L 59.442001 242.600006 L 59.442001 244.399994 Z M 54.042 241.699997 L 55.032001 241.699997 L 55.032001 244.264999 L 56.094002 244.264999 L 56.094002 241.699997 L 57.084 241.699997 L 57.084 248 L 56.094002 248 L 56.094002 245.164993 L 55.032001 245.164993 L 55.032001 248 L 54.042 248 Z M 50.91 242.600006 L 49.875 242.600006 L 49.875 241.699997 L 52.935001 241.699997 L 52.935001 242.600006 L 51.900002 242.600006 L 51.900002 248 L 50.91 248 Z"/>
        <path id="ATTCK" fill="#484848" fill-rule="evenodd" stroke="none" d="M 116.074997 241.699997 L 117.065002 241.699997 L 117.065002 244.354996 L 118.324997 241.699997 L 119.315002 241.699997 L 118.136002 244.013 L 119.333 248 L 118.298004 248 L 117.460999 245.192001 L 117.065002 245.992996 L 117.065002 248 L 116.074997 248 Z M 113.392998 248.089996 C 112.918999 248.089996 112.557503 247.955002 112.308502 247.684998 C 112.059502 247.414993 111.934998 247.033997 111.934998 246.541992 L 111.934998 243.158005 C 111.934998 242.666 112.059502 242.285004 112.308502 242.014999 C 112.557503 241.744995 112.918999 241.610001 113.392998 241.610001 C 113.867004 241.610001 114.2285 241.744995 114.477501 242.014999 C 114.726501 242.285004 114.850998 242.666 114.850998 243.158005 L 114.850998 243.824005 L 113.915001 243.824005 L 113.915001 243.095001 C 113.915001 242.705002 113.75 242.509995 113.419998 242.509995 C 113.089996 242.509995 112.925003 242.705002 112.925003 243.095001 L 112.925003 246.613998 C 112.925003 246.998001 113.089996 247.190002 113.419998 247.190002 C 113.75 247.190002 113.915001 246.998001 113.915001 246.613998 L 113.915001 245.651001 L 114.850998 245.651001 L 114.850998 246.541992 C 114.850998 247.033997 114.726501 247.414993 114.477501 247.684998 C 114.2285 247.955002 113.867004 248.089996 113.392998 248.089996 Z M 108.902 242.600006 L 107.866997 242.600006 L 107.866997 241.699997 L 110.927002 241.699997 L 110.927002 242.600006 L 109.891998 242.600006 L 109.891998 248 L 108.902 248 Z M 104.905998 242.600006 L 103.871002 242.600006 L 103.871002 241.699997 L 106.931 241.699997 L 106.931 242.600006 L 105.895996 242.600006 L 105.895996 248 L 104.905998 248 Z M 101.071999 241.699997 L 102.413002 241.699997 L 103.439003 248 L 102.448997 248 L 102.268997 246.748993 L 102.268997 246.766998 L 101.143997 246.766998 L 100.963997 248 L 100.045998 248 Z M 102.152 245.912003 L 101.710999 242.798004 L 101.693001 242.798004 L 101.261002 245.912003 Z"/>
        <path id="REL" fill="#484848" fill-rule="evenodd" stroke="none" d="M 162.583008 241.699997 L 163.572998 241.699997 L 163.572998 247.100006 L 165.201996 247.100006 L 165.201996 248 L 162.583008 248 Z M 158.686005 241.699997 L 161.386002 241.699997 L 161.386002 242.600006 L 159.675995 242.600006 L 159.675995 244.264999 L 161.035004 244.264999 L 161.035004 245.164993 L 159.675995 245.164993 L 159.675995 247.100006 L 161.386002 247.100006 L 161.386002 248 L 158.686005 248 Z M 154.429001 241.699997 L 155.895996 241.699997 C 156.406006 241.699997 156.778 241.818497 157.011993 242.055496 C 157.246002 242.292496 157.363007 242.656998 157.363007 243.149002 L 157.363007 243.535995 C 157.363007 244.190002 157.147003 244.604004 156.714996 244.778 L 156.714996 244.796005 C 156.955002 244.867996 157.124496 245.014999 157.223495 245.237 C 157.322495 245.459 157.371994 245.755997 157.371994 246.128006 L 157.371994 247.235001 C 157.371994 247.415009 157.378006 247.560501 157.389999 247.671494 C 157.402008 247.782501 157.432007 247.891998 157.479996 248 L 156.472 248 C 156.436005 247.897995 156.412003 247.802002 156.399994 247.712006 C 156.388 247.621994 156.382004 247.460007 156.382004 247.225998 L 156.382004 246.074005 C 156.382004 245.785995 156.335495 245.585007 156.242493 245.470993 C 156.149506 245.356995 155.988998 245.300003 155.761002 245.300003 L 155.419006 245.300003 L 155.419006 248 L 154.429001 248 Z M 155.779007 244.399994 C 155.977005 244.399994 156.125504 244.348999 156.224503 244.246994 C 156.323502 244.145004 156.373001 243.973999 156.373001 243.733994 L 156.373001 243.248001 C 156.373001 243.020004 156.332504 242.854996 156.251495 242.753006 C 156.170502 242.651001 156.042999 242.600006 155.869003 242.600006 L 155.419006 242.600006 L 155.419006 244.399994 Z"/>
        <path id="HOLD" fill="#484848" fill-rule="evenodd" stroke="none" d="M 214.410004 241.699997 L 215.921997 241.699997 C 216.414001 241.699997 216.783005 241.832001 217.028992 242.095993 C 217.274994 242.360001 217.397995 242.746994 217.397995 243.257004 L 217.397995 246.442993 C 217.397995 246.953003 217.274994 247.339996 217.028992 247.604004 C 216.783005 247.867996 216.414001 248 215.921997 248 L 214.410004 248 Z M 215.903992 247.100006 C 216.065994 247.100006 216.190506 247.052002 216.277496 246.955994 C 216.364502 246.860001 216.408005 246.703995 216.408005 246.488007 L 216.408005 243.212006 C 216.408005 242.996002 216.364502 242.839996 216.277496 242.744003 C 216.190506 242.647995 216.065994 242.600006 215.903992 242.600006 L 215.399994 242.600006 L 215.399994 247.100006 Z M 210.684006 241.699997 L 211.673996 241.699997 L 211.673996 247.100006 L 213.302994 247.100006 L 213.302994 248 L 210.684006 248 Z M 207.884995 248.089996 C 207.399002 248.089996 207.027008 247.951996 206.768997 247.675995 C 206.511002 247.399994 206.382004 247.01001 206.382004 246.505997 L 206.382004 243.194 C 206.382004 242.690002 206.511002 242.300003 206.768997 242.024002 C 207.027008 241.748001 207.399002 241.610001 207.884995 241.610001 C 208.371002 241.610001 208.742996 241.748001 209.001007 242.024002 C 209.259003 242.300003 209.388 242.690002 209.388 243.194 L 209.388 246.505997 C 209.388 247.01001 209.259003 247.399994 209.001007 247.675995 C 208.742996 247.951996 208.371002 248.089996 207.884995 248.089996 Z M 207.884995 247.190002 C 208.227005 247.190002 208.397995 246.983002 208.397995 246.569 L 208.397995 243.130997 C 208.397995 242.716995 208.227005 242.509995 207.884995 242.509995 C 207.542999 242.509995 207.371994 242.716995 207.371994 243.130997 L 207.371994 246.569 C 207.371994 246.983002 207.542999 247.190002 207.884995 247.190002 Z M 202.044006 241.699997 L 203.033997 241.699997 L 203.033997 244.264999 L 204.095993 244.264999 L 204.095993 241.699997 L 205.085999 241.699997 L 205.085999 248 L 204.095993 248 L 204.095993 245.164993 L 203.033997 245.164993 L 203.033997 248 L 202.044006 248 Z"/>
        <path id="BASS" fill="#484848" fill-rule="evenodd" stroke="none" d="M 40.895 163.089996 C 40.414997 163.089996 40.052002 162.953506 39.806 162.680496 C 39.559998 162.407501 39.437 162.016006 39.437 161.505997 L 39.437 161.145996 L 40.373001 161.145996 L 40.373001 161.578003 C 40.373001 161.986008 40.543999 162.190002 40.886002 162.190002 C 41.054001 162.190002 41.181499 162.140503 41.268501 162.041504 C 41.355499 161.942505 41.399002 161.781998 41.399002 161.559998 C 41.399002 161.296005 41.339001 161.063507 41.219002 160.862503 C 41.098999 160.661499 40.876999 160.419998 40.553001 160.138 C 40.144997 159.778 39.860001 159.452499 39.697998 159.161499 C 39.535999 158.870499 39.455002 158.542007 39.455002 158.175995 C 39.455002 157.677994 39.581001 157.292496 39.833 157.019501 C 40.084999 156.746506 40.450996 156.610001 40.931 156.610001 C 41.405003 156.610001 41.763496 156.746506 42.0065 157.019501 C 42.2495 157.292496 42.371002 157.68399 42.371002 158.194 L 42.371002 158.455002 L 41.434998 158.455002 L 41.434998 158.130997 C 41.434998 157.914993 41.392998 157.757507 41.308998 157.658493 C 41.224998 157.559494 41.102001 157.509995 40.940002 157.509995 C 40.610001 157.509995 40.445 157.710999 40.445 158.113007 C 40.445 158.341003 40.5065 158.554001 40.629501 158.751999 C 40.752502 158.949997 40.975998 159.190002 41.299999 159.472 C 41.714005 159.832001 41.999001 160.158997 42.154999 160.453003 C 42.311001 160.747009 42.389 161.091995 42.389 161.488007 C 42.389 162.003998 42.261501 162.399994 42.0065 162.675995 C 41.751499 162.951996 41.381004 163.089996 40.895 163.089996 Z M 36.917 163.089996 C 36.436996 163.089996 36.074001 162.953506 35.827999 162.680496 C 35.582001 162.407501 35.459 162.016006 35.459 161.505997 L 35.459 161.145996 L 36.395 161.145996 L 36.395 161.578003 C 36.395 161.986008 36.565998 162.190002 36.908001 162.190002 C 37.076 162.190002 37.203499 162.140503 37.290501 162.041504 C 37.377502 161.942505 37.420998 161.781998 37.420998 161.559998 C 37.420998 161.296005 37.361 161.063507 37.241001 160.862503 C 37.120998 160.661499 36.899002 160.419998 36.575001 160.138 C 36.167 159.778 35.882 159.452499 35.720001 159.161499 C 35.557999 158.870499 35.477001 158.542007 35.477001 158.175995 C 35.477001 157.677994 35.602997 157.292496 35.855 157.019501 C 36.107002 156.746506 36.473 156.610001 36.952999 156.610001 C 37.427002 156.610001 37.7855 156.746506 38.0285 157.019501 C 38.2715 157.292496 38.392998 157.68399 38.392998 158.194 L 38.392998 158.455002 L 37.457001 158.455002 L 37.457001 158.130997 C 37.457001 157.914993 37.415001 157.757507 37.331001 157.658493 C 37.247002 157.559494 37.124001 157.509995 36.961998 157.509995 C 36.631996 157.509995 36.466999 157.710999 36.466999 158.113007 C 36.466999 158.341003 36.5285 158.554001 36.651501 158.751999 C 36.774502 158.949997 36.997997 159.190002 37.321999 159.472 C 37.736 159.832001 38.021 160.158997 38.177002 160.453003 C 38.333 160.747009 38.410999 161.091995 38.410999 161.488007 C 38.410999 162.003998 38.283501 162.399994 38.0285 162.675995 C 37.773499 162.951996 37.403004 163.089996 36.917 163.089996 Z M 32.182999 156.699997 L 33.524002 156.699997 L 34.549999 163 L 33.560001 163 L 33.380001 161.748993 L 33.380001 161.766998 L 32.255001 161.766998 L 32.075001 163 L 31.157 163 Z M 33.263 160.912003 L 32.821999 157.798004 L 32.804001 157.798004 L 32.372002 160.912003 Z M 27.152 156.699997 L 28.646 156.699997 C 29.156002 156.699997 29.528 156.818497 29.762001 157.055496 C 29.996002 157.292496 30.112999 157.656998 30.112999 158.149002 L 30.112999 158.401001 C 30.112999 158.725006 30.060501 158.988998 29.9555 159.192993 C 29.8505 159.397003 29.690001 159.544006 29.473999 159.634003 L 29.473999 159.651993 C 29.966003 159.820007 30.212 160.257996 30.212 160.966003 L 30.212 161.505997 C 30.212 161.992004 30.084501 162.362503 29.8295 162.617493 C 29.574499 162.872498 29.201002 163 28.709 163 L 27.152 163 Z M 28.528999 159.264999 C 28.727001 159.264999 28.8755 159.214005 28.974501 159.112 C 29.073502 159.009995 29.123001 158.839005 29.123001 158.598999 L 29.123001 158.248001 C 29.123001 158.020004 29.0825 157.854996 29.001499 157.753006 C 28.9205 157.651001 28.793001 157.600006 28.618999 157.600006 L 28.142 157.600006 L 28.142 159.264999 Z M 28.709 162.100006 C 28.883001 162.100006 29.011999 162.053497 29.096001 161.960495 C 29.18 161.867493 29.222 161.707001 29.222 161.479004 L 29.222 160.929993 C 29.222 160.641998 29.172501 160.442505 29.0735 160.331497 C 28.974499 160.220505 28.811001 160.164993 28.583 160.164993 L 28.142 160.164993 L 28.142 162.100006 Z"/>
        <path id="MID" fill="#484848" fill-rule="evenodd" stroke="none" d="M 87.141998 156.699997 L 88.653999 156.699997 C 89.146004 156.699997 89.514999 156.832001 89.761002 157.095993 C 90.007004 157.360001 90.129997 157.746994 90.129997 158.257004 L 90.129997 161.442993 C 90.129997 161.953003 90.007004 162.339996 89.761002 162.604004 C 89.514999 162.867996 89.146004 163 88.653999 163 L 87.141998 163 Z M 88.636002 162.100006 C 88.798004 162.100006 88.922501 162.052002 89.009499 161.955994 C 89.096497 161.860001 89.139999 161.703995 89.139999 161.488007 L 89.139999 158.212006 C 89.139999 157.996002 89.096497 157.839996 89.009499 157.744003 C 88.922501 157.647995 88.798004 157.600006 88.636002 157.600006 L 88.132004 157.600006 L 88.132004 162.100006 Z M 84.783997 156.699997 L 85.774002 156.699997 L 85.774002 163 L 84.783997 163 Z M 79.311996 156.699997 L 80.724998 156.699997 L 81.354996 161.209 L 81.373001 161.209 L 82.002998 156.699997 L 83.416 156.699997 L 83.416 163 L 82.479996 163 L 82.479996 158.229996 L 82.461998 158.229996 L 81.741997 163 L 80.914001 163 L 80.194 158.229996 L 80.176003 158.229996 L 80.176003 163 L 79.311996 163 Z"/>
        <path id="TRBL" fill="#484848" fill-rule="evenodd" stroke="none" d="M 139.720505 156.699997 L 140.710495 156.699997 L 140.710495 162.100006 L 142.339508 162.100006 L 142.339508 163 L 139.720505 163 Z M 135.454498 156.699997 L 136.948502 156.699997 C 137.458496 156.699997 137.830505 156.818497 138.064499 157.055496 C 138.298508 157.292496 138.415497 157.656998 138.415497 158.149002 L 138.415497 158.401001 C 138.415497 158.725006 138.363007 158.988998 138.257996 159.192993 C 138.153 159.397003 137.992508 159.544006 137.776505 159.634003 L 137.776505 159.651993 C 138.268509 159.820007 138.514496 160.257996 138.514496 160.966003 L 138.514496 161.505997 C 138.514496 161.992004 138.386993 162.362503 138.132004 162.617493 C 137.876999 162.872498 137.50351 163 137.011505 163 L 135.454498 163 Z M 136.831497 159.264999 C 137.029495 159.264999 137.177994 159.214005 137.277008 159.112 C 137.376007 159.009995 137.425507 158.839005 137.425507 158.598999 L 137.425507 158.248001 C 137.425507 158.020004 137.384995 157.854996 137.304001 157.753006 C 137.222992 157.651001 137.095505 157.600006 136.921494 157.600006 L 136.444504 157.600006 L 136.444504 159.264999 Z M 137.011505 162.100006 C 137.185501 162.100006 137.314499 162.053497 137.398499 161.960495 C 137.482498 161.867493 137.524506 161.707001 137.524506 161.479004 L 137.524506 160.929993 C 137.524506 160.641998 137.475006 160.442505 137.376007 160.331497 C 137.276993 160.220505 137.113495 160.164993 136.885498 160.164993 L 136.444504 160.164993 L 136.444504 162.100006 Z M 131.197495 156.699997 L 132.664505 156.699997 C 133.1745 156.699997 133.546494 156.818497 133.780502 157.055496 C 134.014496 157.292496 134.1315 157.656998 134.1315 158.149002 L 134.1315 158.535995 C 134.1315 159.190002 133.915497 159.604004 133.483505 159.778 L 133.483505 159.796005 C 133.723495 159.867996 133.893005 160.014999 133.992004 160.237 C 134.091003 160.459 134.140503 160.755997 134.140503 161.128006 L 134.140503 162.235001 C 134.140503 162.415009 134.1465 162.560501 134.158493 162.671494 C 134.170502 162.782501 134.2005 162.891998 134.248505 163 L 133.240494 163 C 133.204498 162.897995 133.180496 162.802002 133.168503 162.712006 C 133.156494 162.621994 133.150497 162.460007 133.150497 162.225998 L 133.150497 161.074005 C 133.150497 160.785995 133.104004 160.585007 133.011002 160.470993 C 132.917999 160.356995 132.757507 160.300003 132.529495 160.300003 L 132.1875 160.300003 L 132.1875 163 L 131.197495 163 Z M 132.547501 159.399994 C 132.745499 159.399994 132.893997 159.348999 132.992996 159.246994 C 133.091995 159.145004 133.141495 158.973999 133.141495 158.733994 L 133.141495 158.248001 C 133.141495 158.020004 133.100998 157.854996 133.020004 157.753006 C 132.938995 157.651001 132.811493 157.600006 132.637497 157.600006 L 132.1875 157.600006 L 132.1875 159.399994 Z M 128.065506 157.600006 L 127.030502 157.600006 L 127.030502 156.699997 L 130.0905 156.699997 L 130.0905 157.600006 L 129.055496 157.600006 L 129.055496 163 L 128.065506 163 Z"/>
        <path id="PRES" fill="#484848" fill-rule="evenodd" stroke="none" d="M 190.804993 163.089996 C 190.324997 163.089996 189.962006 162.953506 189.716003 162.680496 C 189.470001 162.407501 189.347 162.016006 189.347 161.505997 L 189.347 161.145996 L 190.283005 161.145996 L 190.283005 161.578003 C 190.283005 161.986008 190.453995 162.190002 190.796005 162.190002 C 190.964005 162.190002 191.091492 162.140503 191.178497 162.041504 C 191.265503 161.942505 191.309006 161.781998 191.309006 161.559998 C 191.309006 161.296005 191.248993 161.063507 191.128998 160.862503 C 191.009003 160.661499 190.787003 160.419998 190.462997 160.138 C 190.054993 159.778 189.770004 159.452499 189.608002 159.161499 C 189.445999 158.870499 189.365005 158.542007 189.365005 158.175995 C 189.365005 157.677994 189.490997 157.292496 189.742996 157.019501 C 189.994995 156.746506 190.360992 156.610001 190.841003 156.610001 C 191.315002 156.610001 191.673492 156.746506 191.916504 157.019501 C 192.1595 157.292496 192.281006 157.68399 192.281006 158.194 L 192.281006 158.455002 L 191.345001 158.455002 L 191.345001 158.130997 C 191.345001 157.914993 191.302994 157.757507 191.218994 157.658493 C 191.134995 157.559494 191.011993 157.509995 190.850006 157.509995 C 190.520004 157.509995 190.354996 157.710999 190.354996 158.113007 C 190.354996 158.341003 190.416504 158.554001 190.539505 158.751999 C 190.662506 158.949997 190.886002 159.190002 191.209991 159.472 C 191.624008 159.832001 191.908997 160.158997 192.065002 160.453003 C 192.221008 160.747009 192.298996 161.091995 192.298996 161.488007 C 192.298996 162.003998 192.171509 162.399994 191.916504 162.675995 C 191.661499 162.951996 191.291 163.089996 190.804993 163.089996 Z M 185.602997 156.699997 L 188.302994 156.699997 L 188.302994 157.600006 L 186.593002 157.600006 L 186.593002 159.264999 L 187.951996 159.264999 L 187.951996 160.164993 L 186.593002 160.164993 L 186.593002 162.100006 L 188.302994 162.100006 L 188.302994 163 L 185.602997 163 Z M 181.345993 156.699997 L 182.813004 156.699997 C 183.322998 156.699997 183.694992 156.818497 183.929001 157.055496 C 184.162994 157.292496 184.279999 157.656998 184.279999 158.149002 L 184.279999 158.535995 C 184.279999 159.190002 184.063995 159.604004 183.632004 159.778 L 183.632004 159.796005 C 183.872009 159.867996 184.041504 160.014999 184.140503 160.237 C 184.239502 160.459 184.289001 160.755997 184.289001 161.128006 L 184.289001 162.235001 C 184.289001 162.415009 184.294998 162.560501 184.307007 162.671494 C 184.319 162.782501 184.348999 162.891998 184.397003 163 L 183.389008 163 C 183.352997 162.897995 183.328995 162.802002 183.317001 162.712006 C 183.304993 162.621994 183.298996 162.460007 183.298996 162.225998 L 183.298996 161.074005 C 183.298996 160.785995 183.252502 160.585007 183.1595 160.470993 C 183.066498 160.356995 182.906006 160.300003 182.677994 160.300003 L 182.335999 160.300003 L 182.335999 163 L 181.345993 163 Z M 182.695999 159.399994 C 182.893997 159.399994 183.042496 159.348999 183.141495 159.246994 C 183.240494 159.145004 183.289993 158.973999 183.289993 158.733994 L 183.289993 158.248001 C 183.289993 158.020004 183.249496 157.854996 183.168503 157.753006 C 183.087494 157.651001 182.960007 157.600006 182.785995 157.600006 L 182.335999 157.600006 L 182.335999 159.399994 Z M 177.242004 156.699997 L 178.699997 156.699997 C 179.192001 156.699997 179.561005 156.832001 179.807007 157.095993 C 180.053009 157.360001 180.175995 157.746994 180.175995 158.257004 L 180.175995 158.878006 C 180.175995 159.388 180.053009 159.774994 179.807007 160.039001 C 179.561005 160.303009 179.192001 160.434998 178.699997 160.434998 L 178.231995 160.434998 L 178.231995 163 L 177.242004 163 Z M 178.699997 159.535004 C 178.862 159.535004 178.983505 159.490005 179.064499 159.399994 C 179.145508 159.309998 179.186005 159.156998 179.186005 158.940994 L 179.186005 158.194 C 179.186005 157.977997 179.145508 157.824997 179.064499 157.735001 C 178.983505 157.645004 178.862 157.600006 178.699997 157.600006 L 178.231995 157.600006 L 178.231995 159.535004 Z"/>
        <path id="DPTH" fill="#484848" fill-rule="evenodd" stroke="none" d="M 239.320007 156.699997 L 240.309998 156.699997 L 240.309998 159.264999 L 241.371994 159.264999 L 241.371994 156.699997 L 242.362 156.699997 L 242.362 163 L 241.371994 163 L 241.371994 160.164993 L 240.309998 160.164993 L 240.309998 163 L 239.320007 163 Z M 236.188004 157.600006 L 235.153 157.600006 L 235.153 156.699997 L 238.212997 156.699997 L 238.212997 157.600006 L 237.177994 157.600006 L 237.177994 163 L 236.188004 163 Z M 231.291992 156.699997 L 232.75 156.699997 C 233.242004 156.699997 233.610992 156.832001 233.856995 157.095993 C 234.102997 157.360001 234.225998 157.746994 234.225998 158.257004 L 234.225998 158.878006 C 234.225998 159.388 234.102997 159.774994 233.856995 160.039001 C 233.610992 160.303009 233.242004 160.434998 232.75 160.434998 L 232.281998 160.434998 L 232.281998 163 L 231.291992 163 Z M 232.75 159.535004 C 232.912003 159.535004 233.033493 159.490005 233.114502 159.399994 C 233.195496 159.309998 233.235992 159.156998 233.235992 158.940994 L 233.235992 158.194 C 233.235992 157.977997 233.195496 157.824997 233.114502 157.735001 C 233.033493 157.645004 232.912003 157.600006 232.75 157.600006 L 232.281998 157.600006 L 232.281998 159.535004 Z M 227.007996 156.699997 L 228.520004 156.699997 C 229.012009 156.699997 229.380997 156.832001 229.626999 157.095993 C 229.873001 157.360001 229.996002 157.746994 229.996002 158.257004 L 229.996002 161.442993 C 229.996002 161.953003 229.873001 162.339996 229.626999 162.604004 C 229.380997 162.867996 229.012009 163 228.520004 163 L 227.007996 163 Z M 228.501999 162.100006 C 228.664001 162.100006 228.788498 162.052002 228.875504 161.955994 C 228.962494 161.860001 229.005997 161.703995 229.005997 161.488007 L 229.005997 158.212006 C 229.005997 157.996002 228.962494 157.839996 228.875504 157.744003 C 228.788498 157.647995 228.664001 157.600006 228.501999 157.600006 L 227.998001 157.600006 L 227.998001 162.100006 Z"/>
        <path id="EQUALIZER" fill="#484848" fill-rule="evenodd" stroke="none" d="M 152.964005 110.600006 L 154.919998 110.600006 C 155.600006 110.600006 156.095993 110.757996 156.408005 111.074005 C 156.720001 111.390015 156.876007 111.876007 156.876007 112.532013 L 156.876007 113.048004 C 156.876007 113.920013 156.587997 114.471985 156.011993 114.70401 L 156.011993 114.727997 C 156.332001 114.824005 156.557999 115.019989 156.690002 115.31601 C 156.822006 115.612 156.888 116.007996 156.888 116.503998 L 156.888 117.980011 C 156.888 118.220001 156.895996 118.414001 156.912003 118.562012 C 156.928009 118.709991 156.968002 118.855988 157.031998 119 L 155.688004 119 C 155.639999 118.864014 155.608002 118.735992 155.591995 118.615997 C 155.576004 118.496002 155.567993 118.279999 155.567993 117.967987 L 155.567993 116.432007 C 155.567993 116.048004 155.505997 115.779999 155.382004 115.627991 C 155.257996 115.476013 155.044006 115.399994 154.740005 115.399994 L 154.283997 115.399994 L 154.283997 119 L 152.964005 119 Z M 154.764008 114.200012 C 155.028 114.200012 155.225998 114.131989 155.358002 113.996002 C 155.490005 113.859985 155.556 113.631989 155.556 113.312012 L 155.556 112.664001 C 155.556 112.359985 155.501999 112.140015 155.393997 112.003998 C 155.285995 111.868011 155.115997 111.799988 154.884003 111.799988 L 154.283997 111.799988 L 154.283997 114.200012 Z M 147.768005 110.600006 L 151.367996 110.600006 L 151.367996 111.799988 L 149.087997 111.799988 L 149.087997 114.019989 L 150.899994 114.019989 L 150.899994 115.220001 L 149.087997 115.220001 L 149.087997 117.799988 L 151.367996 117.799988 L 151.367996 119 L 147.768005 119 Z M 142.320007 117.824005 L 144.768005 111.799988 L 142.440002 111.799988 L 142.440002 110.600006 L 146.18399 110.600006 L 146.18399 111.776001 L 143.735992 117.799988 L 146.18399 117.799988 L 146.18399 119 L 142.320007 119 Z M 139.440002 110.600006 L 140.759995 110.600006 L 140.759995 119 L 139.440002 119 Z M 134.472 110.600006 L 135.791992 110.600006 L 135.791992 117.799988 L 137.964005 117.799988 L 137.964005 119 L 134.472 119 Z M 129.839996 110.600006 L 131.628006 110.600006 L 132.996002 119 L 131.675995 119 L 131.436005 117.332001 L 131.436005 117.355988 L 129.936005 117.355988 L 129.695999 119 L 128.472 119 Z M 131.279999 116.216003 L 130.692001 112.063995 L 130.667999 112.063995 L 130.091995 116.216003 Z M 125.099998 119.119995 C 124.459999 119.119995 123.972 118.937988 123.636002 118.574005 C 123.299995 118.209991 123.132004 117.687988 123.132004 117.007996 L 123.132004 110.600006 L 124.451996 110.600006 L 124.451996 117.104004 C 124.451996 117.391998 124.510002 117.600006 124.625999 117.727997 C 124.742004 117.855988 124.907997 117.920013 125.124001 117.920013 C 125.339996 117.920013 125.505997 117.855988 125.622002 117.727997 C 125.737999 117.600006 125.795998 117.391998 125.795998 117.104004 L 125.795998 110.600006 L 127.068001 110.600006 L 127.068001 117.007996 C 127.068001 117.687988 126.900002 118.209991 126.563995 118.574005 C 126.227997 118.937988 125.740005 119.119995 125.099998 119.119995 Z M 121.428001 119.779999 C 120.827995 119.779999 120.459999 119.511993 120.323997 118.976013 C 120.075996 119.071991 119.784004 119.119995 119.447998 119.119995 C 118.799995 119.119995 118.304001 118.936005 117.959999 118.567993 C 117.615997 118.200012 117.444 117.679993 117.444 117.007996 L 117.444 112.59201 C 117.444 111.919983 117.615997 111.399994 117.959999 111.032013 C 118.304001 110.664001 118.799995 110.480011 119.447998 110.480011 C 120.096001 110.480011 120.591995 110.664001 120.935997 111.032013 C 121.279999 111.399994 121.451996 111.919983 121.451996 112.59201 L 121.451996 117.007996 C 121.451996 117.567993 121.328003 118.027985 121.080002 118.388 C 121.127998 118.467987 121.188004 118.519989 121.260002 118.544006 C 121.332001 118.567993 121.435997 118.579987 121.571999 118.579987 L 121.776001 118.579987 L 121.776001 119.779999 L 121.428001 119.779999 Z M 119.447998 117.920013 C 119.903999 117.920013 120.132004 117.644012 120.132004 117.09201 L 120.132004 112.507996 C 120.132004 111.955994 119.903999 111.679993 119.447998 111.679993 C 118.991997 111.679993 118.764 111.955994 118.764 112.507996 L 118.764 117.09201 C 118.764 117.644012 118.991997 117.920013 119.447998 117.920013 Z M 112.344002 110.600006 L 115.944 110.600006 L 115.944 111.799988 L 113.664001 111.799988 L 113.664001 114.019989 L 115.475998 114.019989 L 115.475998 115.220001 L 113.664001 115.220001 L 113.664001 117.799988 L 115.944 117.799988 L 115.944 119 L 112.344002 119 Z"/>
        <path id="NOISE-GATE" fill="#484848" fill-rule="evenodd" stroke="none" d="M 154.817993 196.600006 L 158.417999 196.600006 L 158.417999 197.800003 L 156.138 197.800003 L 156.138 200.020004 L 157.949997 200.020004 L 157.949997 201.220001 L 156.138 201.220001 L 156.138 203.800003 L 158.417999 203.800003 L 158.417999 205 L 154.817993 205 Z M 150.641998 197.800003 L 149.261993 197.800003 L 149.261993 196.600006 L 153.341995 196.600006 L 153.341995 197.800003 L 151.962006 197.800003 L 151.962006 205 L 150.641998 205 Z M 145.529999 196.600006 L 147.317993 196.600006 L 148.686005 205 L 147.365997 205 L 147.126007 203.332001 L 147.126007 203.356003 L 145.626007 203.356003 L 145.386002 205 L 144.162003 205 Z M 146.970001 202.216003 L 146.382004 198.063995 L 146.358002 198.063995 L 145.781998 202.216003 Z M 140.850006 205.119995 C 140.209991 205.119995 139.722 204.938004 139.386002 204.574005 C 139.050003 204.209991 138.882004 203.688004 138.882004 203.007996 L 138.882004 198.591995 C 138.882004 197.912003 139.050003 197.389999 139.386002 197.026001 C 139.722 196.662003 140.209991 196.479996 140.850006 196.479996 C 141.490005 196.479996 141.977997 196.662003 142.313995 197.026001 C 142.649994 197.389999 142.817993 197.912003 142.817993 198.591995 L 142.817993 199.311996 L 141.570007 199.311996 L 141.570007 198.507996 C 141.570007 197.955994 141.34201 197.679993 140.886002 197.679993 C 140.429993 197.679993 140.201996 197.955994 140.201996 198.507996 L 140.201996 203.104004 C 140.201996 203.64801 140.429993 203.919998 140.886002 203.919998 C 141.34201 203.919998 141.570007 203.64801 141.570007 203.104004 L 141.570007 201.460007 L 140.910004 201.460007 L 140.910004 200.259995 L 142.817993 200.259995 L 142.817993 203.007996 C 142.817993 203.688004 142.649994 204.209991 142.313995 204.574005 C 141.977997 204.938004 141.490005 205.119995 140.850006 205.119995 Z M 131.022003 196.600006 L 134.621994 196.600006 L 134.621994 197.800003 L 132.341995 197.800003 L 132.341995 200.020004 L 134.153992 200.020004 L 134.153992 201.220001 L 132.341995 201.220001 L 132.341995 203.800003 L 134.621994 203.800003 L 134.621994 205 L 131.022003 205 Z M 127.433998 205.119995 C 126.793999 205.119995 126.309998 204.938004 125.982002 204.574005 C 125.653999 204.209991 125.489998 203.688004 125.489998 203.007996 L 125.489998 202.528 L 126.737999 202.528 L 126.737999 203.104004 C 126.737999 203.64801 126.965996 203.919998 127.421997 203.919998 C 127.646004 203.919998 127.816002 203.854004 127.931999 203.722 C 128.048004 203.589996 128.106003 203.376007 128.106003 203.080002 C 128.106003 202.727997 128.026001 202.417999 127.865997 202.149994 C 127.706001 201.882004 127.410004 201.559998 126.977997 201.184006 C 126.433998 200.703995 126.054001 200.270004 125.837997 199.882004 C 125.622002 199.494003 125.514 199.056 125.514 198.567993 C 125.514 197.903992 125.681999 197.389999 126.017998 197.026001 C 126.354004 196.662003 126.841995 196.479996 127.482002 196.479996 C 128.113998 196.479996 128.591995 196.662003 128.916 197.026001 C 129.240005 197.389999 129.402008 197.912003 129.402008 198.591995 L 129.402008 198.940002 L 128.153992 198.940002 L 128.153992 198.507996 C 128.153992 198.220001 128.098007 198.009995 127.986 197.878006 C 127.874001 197.746002 127.709999 197.679993 127.494003 197.679993 C 127.054001 197.679993 126.834 197.947998 126.834 198.483994 C 126.834 198.787994 126.916 199.071991 127.080002 199.335999 C 127.244003 199.600006 127.542 199.919998 127.973999 200.296005 C 128.526001 200.776001 128.906006 201.212006 129.113998 201.604004 C 129.322006 201.996002 129.425995 202.455994 129.425995 202.983994 C 129.425995 203.671997 129.255997 204.199997 128.916 204.567993 C 128.576004 204.936005 128.082001 205.119995 127.433998 205.119995 Z M 122.573997 196.600006 L 123.893997 196.600006 L 123.893997 205 L 122.573997 205 Z M 118.842003 205.119995 C 118.194 205.119995 117.697998 204.936005 117.354004 204.567993 C 117.009995 204.199997 116.837997 203.680008 116.837997 203.007996 L 116.837997 198.591995 C 116.837997 197.919998 117.009995 197.399994 117.354004 197.031998 C 117.697998 196.664001 118.194 196.479996 118.842003 196.479996 C 119.490005 196.479996 119.986 196.664001 120.330002 197.031998 C 120.674004 197.399994 120.846001 197.919998 120.846001 198.591995 L 120.846001 203.007996 C 120.846001 203.680008 120.674004 204.199997 120.330002 204.567993 C 119.986 204.936005 119.490005 205.119995 118.842003 205.119995 Z M 118.842003 203.919998 C 119.298004 203.919998 119.526001 203.643997 119.526001 203.091995 L 119.526001 198.507996 C 119.526001 197.955994 119.298004 197.679993 118.842003 197.679993 C 118.386002 197.679993 118.157997 197.955994 118.157997 198.507996 L 118.157997 203.091995 C 118.157997 203.643997 118.386002 203.919998 118.842003 203.919998 Z M 110.970001 196.600006 L 112.625999 196.600006 L 113.910004 201.628006 L 113.933998 201.628006 L 113.933998 196.600006 L 115.110001 196.600006 L 115.110001 205 L 113.753998 205 L 112.169998 198.867996 L 112.145996 198.867996 L 112.145996 205 L 110.970001 205 Z"/>
        <path id="NAM-PLAYER" fill="#484848" fill-rule="evenodd" stroke="none" d="M 162.998993 326.399994 L 165.932999 326.399994 C 166.953003 326.399994 167.696991 326.636993 168.165009 327.110992 C 168.632996 327.584991 168.867004 328.313995 168.867004 329.298004 L 168.867004 330.071991 C 168.867004 331.380005 168.434998 332.208008 167.570999 332.556 L 167.570999 332.59201 C 168.050995 332.735992 168.389999 333.029999 168.587997 333.473999 C 168.786011 333.917999 168.88501 334.511993 168.88501 335.256012 L 168.88501 337.470001 C 168.88501 337.830017 168.897003 338.121002 168.92099 338.342987 C 168.945007 338.565002 169.005005 338.783997 169.100998 339 L 167.084991 339 C 167.013 338.79599 166.964996 338.604004 166.94101 338.424011 C 166.916992 338.243988 166.904999 337.920013 166.904999 337.451996 L 166.904999 335.14801 C 166.904999 334.571991 166.812012 334.170013 166.626007 333.942017 C 166.440002 333.713989 166.119003 333.600006 165.662994 333.600006 L 164.979004 333.600006 L 164.979004 339 L 162.998993 339 Z M 165.699005 331.799988 C 166.095001 331.799988 166.391998 331.697998 166.589996 331.493988 C 166.787994 331.290009 166.886993 330.947998 166.886993 330.468018 L 166.886993 329.496002 C 166.886993 329.040009 166.806 328.709991 166.643997 328.506012 C 166.481995 328.302002 166.227005 328.200012 165.878998 328.200012 L 164.979004 328.200012 L 164.979004 331.799988 Z M 155.205002 326.399994 L 160.605011 326.399994 L 160.605011 328.200012 L 157.184998 328.200012 L 157.184998 331.529999 L 159.903 331.529999 L 159.903 333.330017 L 157.184998 333.330017 L 157.184998 337.200012 L 160.605011 337.200012 L 160.605011 339 L 155.205002 339 Z M 148.67099 333.635986 L 146.277008 326.399994 L 148.382996 326.399994 L 149.733002 331.026001 L 149.768997 331.026001 L 151.119003 326.399994 L 153.044998 326.399994 L 150.651001 333.635986 L 150.651001 339 L 148.67099 339 Z M 140.733002 326.399994 L 143.415009 326.399994 L 145.46701 339 L 143.487 339 L 143.126999 336.497986 L 143.126999 336.533997 L 140.876999 336.533997 L 140.516998 339 L 138.681 339 Z M 142.893005 334.824005 L 142.011002 328.596008 L 141.975006 328.596008 L 141.110992 334.824005 Z M 131.679001 326.399994 L 133.658997 326.399994 L 133.658997 337.200012 L 136.916992 337.200012 L 136.916992 339 L 131.679001 339 Z M 123.471001 326.399994 L 126.387001 326.399994 C 127.371002 326.399994 128.108994 326.664001 128.600998 327.192017 C 129.093002 327.720001 129.339005 328.493988 129.339005 329.514008 L 129.339005 330.756012 C 129.339005 331.776001 129.093002 332.549988 128.600998 333.078003 C 128.108994 333.606018 127.371002 333.869995 126.387001 333.869995 L 125.451004 333.869995 L 125.451004 339 L 123.471001 339 Z M 126.387001 332.070007 C 126.710999 332.070007 126.953995 331.980011 127.115997 331.799988 C 127.278 331.619995 127.359001 331.313995 127.359001 330.881989 L 127.359001 329.388 C 127.359001 328.955994 127.278 328.649994 127.115997 328.470001 C 126.953995 328.290009 126.710999 328.200012 126.387001 328.200012 L 125.451004 328.200012 L 125.451004 332.070007 Z M 108.387001 326.399994 L 111.212997 326.399994 L 112.473 335.417999 L 112.509003 335.417999 L 113.768997 326.399994 L 116.595001 326.399994 L 116.595001 339 L 114.723 339 L 114.723 329.459991 L 114.686996 329.459991 L 113.247002 339 L 111.591003 339 L 110.151001 329.459991 L 110.114998 329.459991 L 110.114998 339 L 108.387001 339 Z M 101.438995 326.399994 L 104.121002 326.399994 L 106.173004 339 L 104.193001 339 L 103.833 336.497986 L 103.833 336.533997 L 101.583 336.533997 L 101.223 339 L 99.387001 339 Z M 103.598999 334.824005 L 102.716995 328.596008 L 102.681 328.596008 L 101.817001 334.824005 Z M 90.962997 326.399994 L 93.446999 326.399994 L 95.373001 333.942017 L 95.408997 333.942017 L 95.408997 326.399994 L 97.173004 326.399994 L 97.173004 339 L 95.139 339 L 92.763 329.802002 L 92.726997 329.802002 L 92.726997 339 L 90.962997 339 Z"/>
    </g>
</svg>
