<?xml version="1.0" encoding="UTF-8" standalone="no"?>
<svg
   width="315"
   height="380"
   viewBox="0 0 315 380"
   version="1.1"
   id="svg23"
   xmlns="http://www.w3.org/2000/svg"
   xmlns:svg="http://www.w3.org/2000/svg">
  <defs
     id="defs23" />
  <!-- NAM Player Panel - 21HP (106.68mm = 315px at 75px/mm) -->
  <!-- Background -->
  <rect
     x="0"
     y="0"
     width="315"
     height="380"
     fill="#2a2a2a"
     id="rect1" />
  <!-- Top border gradient effect -->
  <rect
     x="0"
     y="0"
     width="315"
     height="4"
     fill="#444"
     id="rect2" />
  <rect
     x="0"
     y="376"
     width="315"
     height="4"
     fill="#111"
     id="rect3" />
  <!-- Module Title -->
  <path
     d="M 100.16016,32 V 19.115234 h 2.53125 l 5.27343,8.604493 v -8.604493 h 2.417 V 32 h -2.61036 l -5.19433,-8.402344 V 32 Z m 24.59179,0 h -2.83007 l -1.125,-2.926758 h -5.1504 L 114.58301,32 h -2.75977 l 5.01856,-12.884766 h 2.75097 z m -4.79004,-5.097656 -1.77539,-4.78125 -1.74023,4.78125 z M 126.09668,32 V 19.115234 h 3.89355 l 2.33789,8.789063 2.31153,-8.789063 h 3.90234 V 32 H 136.125 V 21.857422 L 133.56738,32 H 131.0625 L 128.51367,21.857422 V 32 Z m 20.03027,0 V 19.115234 h 4.17481 q 2.37304,0 3.09375,0.19336 1.10742,0.290039 1.85449,1.265625 0.74707,0.966797 0.74707,2.504883 0,1.186523 -0.43066,1.995117 -0.43067,0.808593 -1.09864,1.274414 -0.65918,0.457031 -1.34472,0.606445 -0.93164,0.18457 -2.69825,0.18457 h -1.69628 V 32 Z m 2.60157,-10.705078 v 3.65625 h 1.42382 q 1.53809,0 2.05664,-0.202149 0.51856,-0.202148 0.8086,-0.632812 0.29883,-0.430664 0.29883,-1.001953 0,-0.703125 -0.41309,-1.160156 -0.41309,-0.457032 -1.0459,-0.57129 -0.46582,-0.08789 -1.87207,-0.08789 z M 158.20312,32 V 19.220703 h 2.60157 v 10.608399 h 6.46875 V 32 Z m 22.54395,0 h -2.83008 l -1.125,-2.926758 H 171.6416 L 170.57812,32 h -2.75976 l 5.01855,-12.884766 h 2.75098 z m -4.79004,-5.097656 -1.77539,-4.78125 -1.74023,4.78125 z M 183.8584,32 v -5.422852 l -4.71973,-7.461914 h 3.04981 l 3.03222,5.097657 2.97071,-5.097657 h 2.99707 l -4.73731,7.479493 V 32 Z m 8.62207,0 V 19.115234 h 9.55371 v 2.179688 h -6.95215 v 2.856445 h 6.46875 v 2.170899 h -6.46875 v 3.506836 h 7.19824 V 32 Z m 12.01465,0 V 19.115234 h 5.47558 q 2.06543,0 2.99707,0.351563 0.94043,0.342773 1.50293,1.230469 0.5625,0.887695 0.5625,2.030273 0,1.450195 -0.85254,2.399414 -0.85254,0.94043 -2.54882,1.186524 0.84375,0.492187 1.38867,1.081054 0.55371,0.588867 1.48535,2.091797 L 216.0791,32 h -3.11133 l -1.88086,-2.803711 q -1.00195,-1.50293 -1.37109,-1.889648 -0.36914,-0.395508 -0.78223,-0.536133 -0.41308,-0.149414 -1.30957,-0.149414 h -0.52734 V 32 Z m 2.60156,-7.435547 h 1.9248 q 1.87207,0 2.33789,-0.158203 0.46583,-0.158203 0.7295,-0.544922 0.26367,-0.386719 0.26367,-0.966797 0,-0.65039 -0.35156,-1.045898 -0.34278,-0.404297 -0.97559,-0.509766 -0.31641,-0.04395 -1.89844,-0.04395 h -2.03027 z"
     id="text3"
     style="font-weight:bold;font-size:18px;font-family:Arial, Helvetica, sans-serif;text-anchor:middle;fill:#ffffff"
     aria-label="NAM PLAYER" />
  <path
     d="m 117.16699,46 v -6.442383 h 0.87451 l 3.38379,5.058106 v -5.058106 h 0.81739 V 46 h -0.87452 l -3.38378,-5.0625 V 46 Z m 9.60205,-1.50293 0.81739,0.101075 q -0.19336,0.716308 -0.71631,1.111816 -0.52295,0.395508 -1.33594,0.395508 -1.02393,0 -1.62598,-0.628418 -0.59765,-0.632813 -0.59765,-1.770996 0,-1.177735 0.60644,-1.828125 0.60645,-0.650391 1.57324,-0.650391 0.93604,0 1.5293,0.637207 0.59326,0.637207 0.59326,1.792969 0,0.07031 -0.004,0.210937 h -3.48047 q 0.0439,0.769043 0.43506,1.177735 0.39111,0.408691 0.97558,0.408691 0.43506,0 0.74268,-0.228516 0.30762,-0.228515 0.48779,-0.729492 z m -2.59716,-1.278808 h 2.60595 q -0.0527,-0.588867 -0.29883,-0.883301 -0.37793,-0.457031 -0.97998,-0.457031 -0.54492,0 -0.91845,0.364746 -0.36914,0.364746 -0.40869,0.975586 z M 131.63818,46 v -0.685547 q -0.54492,0.791016 -1.48095,0.791016 -0.41309,0 -0.77344,-0.158203 -0.35596,-0.158204 -0.53174,-0.395508 -0.17139,-0.241699 -0.2417,-0.588867 -0.0483,-0.232911 -0.0483,-0.738282 v -2.891601 h 0.79102 v 2.588379 q 0,0.619629 0.0483,0.834961 0.0747,0.312011 0.3164,0.492187 0.2417,0.175781 0.59766,0.175781 0.35596,0 0.66797,-0.180175 0.31201,-0.184571 0.43945,-0.496582 0.13184,-0.316407 0.13184,-0.914063 v -2.500488 h 0.79101 V 46 Z m 1.93799,0 v -4.666992 h 0.71192 v 0.707519 q 0.27246,-0.496582 0.50097,-0.654785 0.23291,-0.158203 0.50977,-0.158203 0.3999,0 0.81299,0.254883 l -0.27246,0.733887 q -0.29004,-0.171387 -0.58008,-0.171387 -0.25928,0 -0.46582,0.158203 -0.20655,0.153809 -0.29444,0.430664 -0.13183,0.421875 -0.13183,0.922852 V 46 Z m 6.05127,-0.575684 q -0.43945,0.373536 -0.84814,0.527344 -0.4043,0.153809 -0.87012,0.153809 -0.76904,0 -1.18213,-0.373535 -0.41309,-0.37793 -0.41309,-0.962403 0,-0.342773 0.15381,-0.624023 0.15821,-0.285645 0.40869,-0.457031 0.25489,-0.171387 0.57129,-0.259278 0.23291,-0.06152 0.70313,-0.118652 0.95801,-0.114258 1.41064,-0.272461 0.004,-0.162598 0.004,-0.206543 0,-0.483398 -0.22412,-0.681152 -0.30323,-0.268067 -0.90088,-0.268067 -0.55811,0 -0.82617,0.197754 -0.26368,0.193359 -0.39112,0.689942 l -0.77343,-0.105469 q 0.10546,-0.496582 0.34716,-0.799805 0.2417,-0.307617 0.69873,-0.470215 0.45703,-0.166992 1.05909,-0.166992 0.59765,0 0.97119,0.140625 0.37353,0.140625 0.54931,0.355957 0.17578,0.210938 0.2461,0.536133 0.0396,0.202148 0.0396,0.729492 v 1.054688 q 0,1.103027 0.0483,1.397461 0.0527,0.290039 0.20215,0.558105 h -0.82618 q -0.12304,-0.246094 -0.1582,-0.575684 z m -0.0659,-1.766601 q -0.43066,0.175781 -1.29199,0.298828 -0.48779,0.07031 -0.68994,0.158203 -0.20215,0.08789 -0.31201,0.259277 -0.10987,0.166993 -0.10987,0.373536 0,0.316406 0.23731,0.527343 0.2417,0.210938 0.70312,0.210938 0.45704,0 0.81299,-0.197754 0.35596,-0.202149 0.52295,-0.549316 0.12744,-0.268067 0.12744,-0.791016 z M 141.56982,46 v -6.442383 h 0.79102 V 46 Z m 3.41455,0 2.47413,-6.442383 h 0.91845 L 151.01367,46 h -0.97119 l -0.75146,-1.951172 h -2.69385 L 145.88965,46 Z m 1.85889,-2.645508 h 2.18408 l -0.67236,-1.78418 q -0.30762,-0.812988 -0.45703,-1.335937 -0.12305,0.619629 -0.34717,1.230469 z M 151.59375,46 v -4.666992 h 0.70752 v 0.654785 q 0.21973,-0.342773 0.58447,-0.549316 0.36475,-0.210938 0.83057,-0.210938 0.51855,0 0.84814,0.215332 0.33399,0.215332 0.47022,0.602051 0.55371,-0.817383 1.4414,-0.817383 0.69434,0 1.06788,0.386719 0.37353,0.382324 0.37353,1.182129 V 46 h -0.78662 v -2.939941 q 0,-0.47461 -0.0791,-0.681153 -0.0747,-0.210937 -0.27686,-0.338379 -0.20215,-0.127441 -0.47461,-0.127441 -0.49218,0 -0.81738,0.32959 -0.3252,0.325195 -0.3252,1.045898 V 46 h -0.79101 v -3.032227 q 0,-0.527343 -0.19336,-0.791015 -0.19336,-0.263672 -0.63281,-0.263672 -0.33399,0 -0.61963,0.175781 -0.28125,0.175781 -0.40869,0.51416 -0.12744,0.338379 -0.12744,0.975586 V 46 Z m 7.49707,1.788574 v -6.455566 h 0.7207 v 0.606445 q 0.25489,-0.355957 0.57569,-0.531738 0.3208,-0.180176 0.77783,-0.180176 0.59766,0 1.05469,0.307617 0.45703,0.307617 0.68994,0.870117 0.23291,0.558106 0.23291,1.226075 0,0.716308 -0.25928,1.291992 -0.25488,0.571289 -0.74707,0.878906 -0.48779,0.303223 -1.02832,0.303223 -0.39551,0 -0.71191,-0.166992 -0.31202,-0.166993 -0.51416,-0.421875 v 2.271972 z m 0.71631,-4.095703 q 0,0.900879 0.36474,1.331543 0.36475,0.430664 0.88331,0.430664 0.52734,0 0.90087,-0.443848 0.37793,-0.448242 0.37793,-1.384277 0,-0.89209 -0.36914,-1.335937 -0.36474,-0.443848 -0.87451,-0.443848 -0.50537,0 -0.89648,0.474609 -0.38672,0.470215 -0.38672,1.371094 z M 166.67139,46 v -6.442383 h 1.2832 l 1.5249,4.561524 q 0.21094,0.637207 0.30762,0.953613 0.10986,-0.351563 0.34277,-1.032715 l 1.54248,-4.482422 h 1.14698 V 46 h -0.82178 V 40.60791 L 170.12549,46 h -0.76904 l -1.86329,-5.484375 V 46 Z m 7.12793,-2.333496 q 0,-1.296387 0.7207,-1.92041 0.60205,-0.518555 1.46777,-0.518555 0.96241,0 1.57325,0.632813 0.61083,0.628418 0.61083,1.740234 0,0.900879 -0.27246,1.419434 -0.26806,0.51416 -0.78662,0.799804 -0.51416,0.285645 -1.125,0.285645 -0.97998,0 -1.58642,-0.628418 -0.60205,-0.628418 -0.60205,-1.810547 z m 0.81298,0 q 0,0.896484 0.39112,1.344726 0.39111,0.443848 0.98437,0.443848 0.58887,0 0.97998,-0.448242 0.39112,-0.448242 0.39112,-1.366699 0,-0.865723 -0.39551,-1.309571 -0.39111,-0.448242 -0.97559,-0.448242 -0.59326,0 -0.98437,0.443848 -0.39112,0.443848 -0.39112,1.340332 z M 182.12695,46 v -0.588867 q -0.44384,0.694336 -1.30517,0.694336 -0.55811,0 -1.02832,-0.307617 -0.46582,-0.307618 -0.7251,-0.856934 -0.25488,-0.553711 -0.25488,-1.27002 0,-0.69873 0.23291,-1.265625 0.23291,-0.571289 0.69873,-0.874511 0.46582,-0.303223 1.0415,-0.303223 0.42188,0 0.75147,0.180176 0.32959,0.175781 0.53613,0.461426 v -2.311524 h 0.78662 V 46 Z m -2.50049,-2.329102 q 0,0.896485 0.37793,1.340332 0.37793,0.443848 0.89209,0.443848 0.51856,0 0.87891,-0.421875 0.36475,-0.426269 0.36475,-1.296387 0,-0.958007 -0.36914,-1.40625 -0.36914,-0.448242 -0.90967,-0.448242 -0.52735,0 -0.8833,0.430664 -0.35157,0.430664 -0.35157,1.35791 z m 7.67286,0.826172 0.81738,0.101075 q -0.19336,0.716308 -0.71631,1.111816 -0.52295,0.395508 -1.33594,0.395508 -1.02392,0 -1.62597,-0.628418 -0.59766,-0.632813 -0.59766,-1.770996 0,-1.177735 0.60645,-1.828125 0.60644,-0.650391 1.57324,-0.650391 0.93603,0 1.52929,0.637207 0.59327,0.637207 0.59327,1.792969 0,0.07031 -0.004,0.210937 h -3.48047 q 0.0439,0.769043 0.43506,1.177735 0.39111,0.408691 0.97559,0.408691 0.43506,0 0.74267,-0.228516 0.30762,-0.228515 0.4878,-0.729492 z m -2.59717,-1.278808 h 2.60596 q -0.0527,-0.588867 -0.29883,-0.883301 -0.37793,-0.457031 -0.97998,-0.457031 -0.54493,0 -0.91846,0.364746 -0.36914,0.364746 -0.40869,0.975586 z M 189.09229,46 v -6.442383 h 0.79101 V 46 Z m 5.21191,-1.50293 0.81738,0.101075 q -0.19336,0.716308 -0.71631,1.111816 -0.52295,0.395508 -1.33593,0.395508 -1.02393,0 -1.62598,-0.628418 -0.59766,-0.632813 -0.59766,-1.770996 0,-1.177735 0.60645,-1.828125 0.60644,-0.650391 1.57324,-0.650391 0.93604,0 1.5293,0.637207 0.59326,0.637207 0.59326,1.792969 0,0.07031 -0.004,0.210937 h -3.48046 q 0.0439,0.769043 0.43505,1.177735 0.39112,0.408691 0.97559,0.408691 0.43506,0 0.74268,-0.228516 0.30761,-0.228515 0.48779,-0.729492 z m -2.59717,-1.278808 h 2.60596 q -0.0527,-0.588867 -0.29883,-0.883301 -0.37793,-0.457031 -0.97998,-0.457031 -0.54492,0 -0.91846,0.364746 -0.36914,0.364746 -0.40869,0.975586 z M 196.10596,46 v -4.666992 h 0.71191 v 0.707519 q 0.27246,-0.496582 0.50098,-0.654785 0.23291,-0.158203 0.50976,-0.158203 0.39991,0 0.81299,0.254883 l -0.27246,0.733887 q -0.29004,-0.171387 -0.58008,-0.171387 -0.25927,0 -0.46582,0.158203 -0.20654,0.153809 -0.29443,0.430664 -0.13184,0.421875 -0.13184,0.922852 V 46 Z"
     id="text4"
     style="font-size:9px;font-family:Arial, Helvetica, sans-serif;text-anchor:middle;fill:#888888"
     aria-label="Neural Amp Modeler" />
  <!-- Status Lights Labels -->
  <path
     d="m 121.073,65 v -5.010742 h 0.99804 l 1.18604,3.547851 q 0.16406,0.495606 0.23926,0.7417 0.0854,-0.273438 0.2666,-0.803223 l 1.19971,-3.486328 h 0.89209 V 65 h -0.63916 V 60.806152 L 123.75952,65 h -0.59814 l -1.44922,-4.265625 V 65 Z m 5.6499,-2.44043 q 0,-1.247558 0.66992,-1.95166 0.66992,-0.707519 1.72949,-0.707519 0.69385,0 1.25098,0.331543 0.55713,0.331543 0.84766,0.926269 0.29394,0.591309 0.29394,1.343262 0,0.762207 -0.30761,1.363769 -0.30762,0.601563 -0.87159,0.912598 -0.56396,0.307617 -1.21679,0.307617 -0.70752,0 -1.26465,-0.341797 -0.55713,-0.341797 -0.84424,-0.933105 -0.28711,-0.591309 -0.28711,-1.250977 z m 0.68359,0.01025 q 0,0.905762 0.48536,1.428711 0.48877,0.519531 1.22363,0.519531 0.74853,0 1.23047,-0.526367 0.48535,-0.526367 0.48535,-1.493652 0,-0.611817 -0.2085,-1.066406 -0.20508,-0.458008 -0.60498,-0.70752 -0.39648,-0.25293 -0.89209,-0.25293 -0.7041,0 -1.21338,0.485352 -0.50586,0.481934 -0.50586,1.613281 z M 132.36938,65 v -5.010742 h 1.72608 q 0.58447,0 0.89209,0.07178 0.43066,0.09912 0.73486,0.358887 0.39649,0.334961 0.59131,0.85791 0.19824,0.519531 0.19824,1.189453 0,0.570801 -0.1333,1.011719 -0.1333,0.440918 -0.34179,0.731445 -0.2085,0.28711 -0.45801,0.45459 -0.2461,0.164063 -0.59815,0.249512 Q 134.63208,65 134.17749,65 Z m 0.66309,-0.591309 h 1.06982 q 0.49561,0 0.77588,-0.09229 0.2837,-0.09229 0.45118,-0.259765 0.23584,-0.23584 0.36572,-0.632325 0.1333,-0.399902 0.1333,-0.967285 0,-0.786133 -0.25977,-1.206543 -0.25634,-0.423828 -0.62548,-0.567383 -0.26661,-0.102539 -0.85791,-0.102539 h -1.05274 z M 137.43823,65 v -5.010742 h 3.62305 v 0.591308 h -2.95996 v 1.534668 h 2.77197 v 0.587891 h -2.77197 v 1.705566 h 3.07617 V 65 Z m 4.62793,0 v -5.010742 h 0.66309 v 4.419433 h 2.46777 V 65 Z"
     id="text5"
     style="font-size:7px;font-family:Arial, Helvetica, sans-serif;text-anchor:middle;fill:#888888"
     aria-label="MODEL" />
  <path
     d="m 152.45239,63.390137 0.62549,-0.05469 q 0.0444,0.375977 0.20508,0.618653 0.16406,0.239257 0.50586,0.389648 0.3418,0.146973 0.76904,0.146973 0.3794,0 0.66992,-0.112793 0.29053,-0.112793 0.43067,-0.307618 0.14355,-0.198242 0.14355,-0.430664 0,-0.235839 -0.13672,-0.410156 -0.13672,-0.177734 -0.45117,-0.297363 -0.20166,-0.07861 -0.89209,-0.242676 -0.69043,-0.16748 -0.96728,-0.314453 -0.35889,-0.187988 -0.53662,-0.464844 -0.17432,-0.280273 -0.17432,-0.625488 0,-0.379395 0.21533,-0.70752 0.21533,-0.331543 0.62891,-0.502441 0.41357,-0.170898 0.91943,-0.170898 0.55713,0 0.98096,0.181152 0.42724,0.177734 0.65625,0.526367 0.229,0.348633 0.24609,0.789551 l -0.63574,0.04785 q -0.0513,-0.475097 -0.34863,-0.717773 -0.29395,-0.242676 -0.87159,-0.242676 -0.60156,0 -0.87841,0.222168 -0.27344,0.21875 -0.27344,0.529785 0,0.27002 0.19482,0.444336 0.19141,0.174317 0.99805,0.358887 0.81006,0.181152 1.11084,0.317871 0.4375,0.20166 0.646,0.512695 0.20849,0.307618 0.20849,0.710938 0,0.399902 -0.229,0.755371 -0.22901,0.352051 -0.65967,0.550293 -0.42725,0.194824 -0.96387,0.194824 -0.68017,0 -1.1416,-0.198242 -0.45801,-0.198242 -0.72119,-0.594727 -0.25977,-0.399902 -0.27344,-0.902343 z M 157.35718,65 v -5.010742 h 2.22168 q 0.66992,0 1.01855,0.136719 0.34863,0.1333 0.55713,0.475097 0.2085,0.341797 0.2085,0.755371 0,0.533203 -0.34522,0.898926 -0.34521,0.365723 -1.0664,0.464844 0.26318,0.126465 0.3999,0.249512 0.29053,0.266601 0.55029,0.666503 L 161.77319,65 h -0.83398 l -0.66309,-1.04248 q -0.29052,-0.451172 -0.47851,-0.69043 -0.18799,-0.239258 -0.33838,-0.334961 -0.14697,-0.0957 -0.30078,-0.133301 -0.1128,-0.02393 -0.36914,-0.02393 h -0.76905 V 65 Z m 0.66308,-2.799316 h 1.4253 q 0.45459,0 0.71093,-0.09229 0.25635,-0.0957 0.38965,-0.300781 0.1333,-0.208496 0.1333,-0.451172 0,-0.355468 -0.25976,-0.584472 -0.25635,-0.229004 -0.81348,-0.229004 h -1.58594 z"
     id="text6"
     style="font-size:7px;font-family:Arial, Helvetica, sans-serif;text-anchor:middle;fill:#888888"
     aria-label="SR" />
  <path
     d="m 174.61523,63.034668 v -0.587891 l 2.12256,-0.0034 v 1.859375 q -0.48877,0.389649 -1.0083,0.587891 -0.51953,0.194824 -1.0664,0.194824 -0.73829,0 -1.34327,-0.314453 -0.60156,-0.317871 -0.90918,-0.916016 -0.30761,-0.598144 -0.30761,-1.336425 0,-0.731446 0.3042,-1.36377 0.30761,-0.635742 0.88183,-0.943359 0.57422,-0.307617 1.32276,-0.307617 0.54345,0 0.98095,0.177734 0.44092,0.174316 0.69043,0.488769 0.24951,0.314454 0.3794,0.820313 l -0.59815,0.164062 q -0.11279,-0.382812 -0.28027,-0.601562 -0.16748,-0.21875 -0.47852,-0.348633 -0.31103,-0.133301 -0.69043,-0.133301 -0.45459,0 -0.78613,0.140137 -0.33154,0.136719 -0.53662,0.362305 -0.20166,0.225586 -0.31445,0.495605 -0.19141,0.464844 -0.19141,1.008301 0,0.669922 0.229,1.121094 0.23243,0.451172 0.67334,0.669922 0.44092,0.21875 0.93653,0.21875 0.43066,0 0.84082,-0.164063 0.41015,-0.16748 0.62207,-0.355469 V 63.034668 Z M 177.16504,65 l 1.92432,-5.010742 h 0.71435 L 181.85449,65 h -0.75537 l -0.58447,-1.517578 h -2.09522 L 177.86914,65 Z m 1.4458,-2.057617 h 1.69873 l -0.52295,-1.387696 q -0.23926,-0.632324 -0.35547,-1.039062 -0.0957,0.481934 -0.27002,0.957031 z M 183.13965,65 v -4.419434 h -1.65088 v -0.591308 h 3.97168 v 0.591308 h -1.65772 V 65 Z m 3.01465,0 v -5.010742 h 3.62304 v 0.591308 h -2.95996 v 1.534668 h 2.77198 v 0.587891 h -2.77198 v 1.705566 h 3.07617 V 65 Z"
     id="text7"
     style="font-size:7px;font-family:Arial, Helvetica, sans-serif;text-anchor:middle;fill:#888888"
     aria-label="GATE" />
  <!-- INPUT Section -->
  <path
     d="m 29.683594,80 v -7.158203 h 1.445312 V 80 Z m 2.836914,0 v -7.158203 h 1.40625 l 2.929687,4.780273 v -4.780273 h 1.342774 V 80 H 36.749023 L 33.863281,75.332031 V 80 Z m 7.207031,0 v -7.158203 h 2.319336 q 1.318359,0 1.71875,0.107422 0.615234,0.161133 1.030273,0.703125 0.415039,0.537109 0.415039,1.391601 0,0.65918 -0.239257,1.108399 -0.239258,0.449218 -0.610352,0.708008 -0.366211,0.253906 -0.74707,0.336914 -0.517578,0.102539 -1.499024,0.102539 H 41.172852 V 80 Z m 1.445313,-5.947266 v 2.03125 h 0.791015 q 0.854492,0 1.142578,-0.112304 0.288086,-0.112305 0.449219,-0.351563 0.166016,-0.239258 0.166016,-0.55664 0,-0.390625 -0.229493,-0.644532 -0.229492,-0.253906 -0.581054,-0.317383 -0.258789,-0.04883 -1.040039,-0.04883 z m 5.214843,-1.210937 h 1.445313 v 3.876953 q 0,0.922852 0.05371,1.196289 0.09277,0.439453 0.439453,0.708008 0.351562,0.263672 0.957031,0.263672 0.615234,0 0.927734,-0.249024 0.3125,-0.253906 0.375977,-0.620117 0.06348,-0.366211 0.06348,-1.21582 v -3.959961 h 1.445312 v 3.759765 q 0,1.289063 -0.117187,1.82129 -0.117188,0.532226 -0.434571,0.898437 -0.3125,0.366211 -0.839843,0.585938 -0.527344,0.214843 -1.376954,0.214843 -1.02539,0 -1.557617,-0.234375 -0.527344,-0.239258 -0.834961,-0.615234 -0.307617,-0.380859 -0.405273,-0.795899 -0.141602,-0.615234 -0.141602,-1.816406 z M 55.230469,80 v -5.947266 h -2.124024 v -1.210937 h 5.688477 v 1.210937 H 56.675781 V 80 Z"
     id="text8"
     style="font-weight:bold;font-size:10px;font-family:Arial, Helvetica, sans-serif;text-anchor:middle;fill:#ffffff"
     aria-label="INPUT" />
  <!-- OUTPUT Section -->
  <path
     d="m 250.88037,76.464844 q 0,-1.09375 0.32715,-1.835938 0.24414,-0.546875 0.66406,-0.981445 0.42481,-0.43457 0.92774,-0.644531 0.66894,-0.283203 1.54297,-0.283203 1.58203,0 2.52929,0.981445 0.95215,0.981445 0.95215,2.729492 0,1.733398 -0.94238,2.714844 -0.94239,0.976562 -2.51953,0.976562 -1.59668,0 -2.53907,-0.971679 -0.94238,-0.976563 -0.94238,-2.685547 z m 1.48926,-0.04883 q 0,1.21582 0.56152,1.845703 0.56153,0.625 1.42578,0.625 0.86426,0 1.41602,-0.620117 0.55664,-0.625 0.55664,-1.870118 0,-1.230468 -0.54199,-1.835937 -0.53711,-0.605469 -1.43067,-0.605469 -0.89355,0 -1.44043,0.615234 -0.54687,0.610352 -0.54687,1.845704 z m 6.57226,-3.574219 h 1.44532 v 3.876953 q 0,0.922852 0.0537,1.196289 0.0928,0.439453 0.43945,0.708008 0.35156,0.263672 0.95703,0.263672 0.61524,0 0.92774,-0.249024 0.3125,-0.253906 0.37597,-0.620117 0.0635,-0.366211 0.0635,-1.21582 v -3.959961 h 1.44531 v 3.759765 q 0,1.289063 -0.11719,1.82129 -0.11718,0.532226 -0.43457,0.898437 -0.3125,0.366211 -0.83984,0.585938 -0.52734,0.214843 -1.37695,0.214843 -1.02539,0 -1.55762,-0.234375 -0.52734,-0.239258 -0.83496,-0.615234 -0.30762,-0.380859 -0.40527,-0.795899 -0.14161,-0.615234 -0.14161,-1.816406 z M 267.78467,80 v -5.947266 h -2.12403 v -1.210937 h 5.68848 v 1.210937 h -2.11914 V 80 Z m 4.49707,0 v -7.158203 h 2.31933 q 1.31836,0 1.71875,0.107422 0.61524,0.161133 1.03028,0.703125 0.41504,0.537109 0.41504,1.391601 0,0.65918 -0.23926,1.108399 -0.23926,0.449218 -0.61035,0.708008 -0.36621,0.253906 -0.74707,0.336914 -0.51758,0.102539 -1.49903,0.102539 h -0.94238 V 80 Z m 1.44531,-5.947266 v 2.03125 h 0.79102 q 0.85449,0 1.14257,-0.112304 0.28809,-0.112305 0.44922,-0.351563 0.16602,-0.239258 0.16602,-0.55664 0,-0.390625 -0.22949,-0.644532 -0.2295,-0.253906 -0.58106,-0.317383 -0.25879,-0.04883 -1.04004,-0.04883 z m 5.21484,-1.210937 h 1.44532 v 3.876953 q 0,0.922852 0.0537,1.196289 0.0928,0.439453 0.43945,0.708008 0.35156,0.263672 0.95703,0.263672 0.61524,0 0.92774,-0.249024 0.3125,-0.253906 0.37597,-0.620117 0.0635,-0.366211 0.0635,-1.21582 v -3.959961 h 1.44531 v 3.759765 q 0,1.289063 -0.11719,1.82129 -0.11718,0.532226 -0.43457,0.898437 -0.3125,0.366211 -0.83984,0.585938 -0.52734,0.214843 -1.37695,0.214843 -1.02539,0 -1.55762,-0.234375 -0.52734,-0.239258 -0.83496,-0.615234 -0.30762,-0.380859 -0.40527,-0.795899 -0.14161,-0.615234 -0.14161,-1.816406 z M 287.78467,80 v -5.947266 h -2.12403 v -1.210937 h 5.68848 v 1.210937 h -2.11914 V 80 Z"
     id="text9"
     style="font-weight:bold;font-size:10px;font-family:Arial, Helvetica, sans-serif;text-anchor:middle;fill:#ffffff"
     aria-label="OUTPUT" />
  <!-- GATE Section -->
  <rect
     x="20"
     y="138"
     width="275"
     height="1"
     fill="#444"
     id="rect9" />
  <path
     d="m 127.77588,155 v -7.1582 h 1.40625 l 2.92969,4.78027 v -4.78027 h 1.34277 V 155 h -1.4502 l -2.88574,-4.66797 V 155 Z m 6.91406,-3.53516 q 0,-1.09375 0.32715,-1.83593 0.24414,-0.54688 0.66406,-0.98145 0.42481,-0.43457 0.92774,-0.64453 0.66894,-0.2832 1.54297,-0.2832 1.58203,0 2.52929,0.98144 0.95215,0.98145 0.95215,2.72949 0,1.7334 -0.94238,2.71485 -0.94238,0.97656 -2.51953,0.97656 -1.59668,0 -2.53907,-0.97168 -0.94238,-0.97656 -0.94238,-2.68555 z m 1.48926,-0.0488 q 0,1.21582 0.56152,1.8457 0.56153,0.625 1.42578,0.625 0.86426,0 1.41602,-0.62012 0.55664,-0.625 0.55664,-1.87012 0,-1.23046 -0.54199,-1.83593 -0.53711,-0.60547 -1.43067,-0.60547 -0.89355,0 -1.44043,0.61523 -0.54687,0.61035 -0.54687,1.84571 z M 142.71729,155 v -7.1582 h 1.44531 V 155 Z m 2.45605,-2.3291 1.40625,-0.13672 q 0.12695,0.70801 0.5127,1.04004 0.39062,0.33203 1.0498,0.33203 0.69824,0 1.0498,-0.29297 0.35645,-0.29785 0.35645,-0.69336 0,-0.2539 -0.15137,-0.42969 -0.14648,-0.18066 -0.51758,-0.3125 -0.2539,-0.0879 -1.15722,-0.3125 -1.16211,-0.28808 -1.63086,-0.708 -0.65918,-0.59082 -0.65918,-1.44043 0,-0.54688 0.30762,-1.02051 0.3125,-0.47852 0.89355,-0.72754 0.58594,-0.24902 1.41113,-0.24902 1.34766,0 2.02637,0.59082 0.68359,0.59082 0.71777,1.57715 l -1.44531,0.0635 q -0.0928,-0.55176 -0.40039,-0.79101 -0.30273,-0.24414 -0.91308,-0.24414 -0.62989,0 -0.98633,0.25878 -0.2295,0.16602 -0.2295,0.44434 0,0.25391 0.21485,0.43457 0.27344,0.22949 1.32812,0.47852 1.05469,0.24902 1.55762,0.51757 0.50781,0.26368 0.79102,0.72754 0.28808,0.45899 0.28808,1.1377 0,0.61523 -0.34179,1.15234 -0.3418,0.53711 -0.9668,0.80078 -0.625,0.25879 -1.55762,0.25879 -1.35742,0 -2.08496,-0.625 -0.72754,-0.62988 -0.86914,-1.83105 z M 152.20947,155 v -7.1582 h 5.30762 v 1.21093 h -3.8623 v 1.58692 h 3.59375 v 1.20605 h -3.59375 v 1.94825 h 3.99902 V 155 Z m 12.77832,-2.63184 v -1.20605 h 3.11524 v 2.85156 q -0.4541,0.43945 -1.31836,0.77637 -0.85938,0.33203 -1.74317,0.33203 -1.12304,0 -1.958,-0.46875 -0.83496,-0.47363 -1.25489,-1.34766 -0.41992,-0.8789 -0.41992,-1.90918 0,-1.11816 0.46875,-1.9873 0.46875,-0.86914 1.37207,-1.33301 0.68848,-0.35644 1.71387,-0.35644 1.33301,0 2.08008,0.56152 0.75195,0.55664 0.96679,1.54297 l -1.43554,0.26855 q -0.15137,-0.52734 -0.57129,-0.83007 -0.41504,-0.30762 -1.04004,-0.30762 -0.94727,0 -1.50879,0.60058 -0.55664,0.60059 -0.55664,1.78223 0,1.27441 0.56641,1.91406 0.5664,0.63477 1.48437,0.63477 0.4541,0 0.9082,-0.17578 0.45899,-0.18067 0.78614,-0.43457 v -0.90821 z M 175.89111,155 h -1.57226 l -0.625,-1.62598 h -2.86133 L 170.2417,155 h -1.5332 l 2.78808,-7.1582 h 1.52832 z m -2.66113,-2.83203 -0.98633,-2.65625 -0.96679,2.65625 z M 177.52686,155 v -5.94727 h -2.12403 v -1.21093 h 5.68848 v 1.21093 h -2.11914 V 155 Z m 4.49707,0 v -7.1582 h 5.30761 v 1.21093 h -3.8623 v 1.58692 h 3.59375 v 1.20605 h -3.59375 v 1.94825 h 3.99902 V 155 Z"
     id="text10"
     style="font-weight:bold;font-size:10px;font-family:Arial, Helvetica, sans-serif;text-anchor:middle;fill:#aaaaaa"
     aria-label="NOISE GATE" />
  <!-- Gate Knob Labels -->
  <path
     d="m 31.425293,185 v -4.41943 h -1.650879 v -0.59131 h 3.97168 v 0.59131 H 32.088379 V 185 Z m 3.021484,0 v -5.01074 h 0.663086 v 2.05761 h 2.604492 v -2.05761 h 0.663086 V 185 h -0.663086 v -2.36182 H 35.109863 V 185 Z m 5.044922,0 v -5.01074 h 2.22168 q 0.669922,0 1.018555,0.13672 0.348632,0.1333 0.557128,0.47509 0.208497,0.3418 0.208497,0.75538 0,0.5332 -0.345215,0.89892 -0.345215,0.36572 -1.066407,0.46484 0.263184,0.12647 0.399903,0.24952 0.290527,0.2666 0.550293,0.6665 L 43.907715,185 H 43.07373 l -0.663085,-1.04248 q -0.290528,-0.45117 -0.478516,-0.69043 -0.187988,-0.23926 -0.338379,-0.33496 -0.146973,-0.0957 -0.300781,-0.1333 -0.112793,-0.0239 -0.369141,-0.0239 H 40.154785 V 185 Z m 0.663086,-2.79932 h 1.425293 q 0.45459,0 0.710938,-0.0923 0.256347,-0.0957 0.389648,-0.30078 0.133301,-0.2085 0.133301,-0.45117 0,-0.35547 -0.259766,-0.58448 -0.256347,-0.229 -0.813476,-0.229 H 40.154785 Z M 44.550293,185 v -5.01074 h 3.623047 v 0.59131 h -2.959961 v 1.53466 h 2.771973 v 0.58789 h -2.771973 v 1.70557 h 3.076172 V 185 Z m 4.429687,-1.60986 0.625489,-0.0547 q 0.04443,0.37598 0.205078,0.61865 0.164062,0.23926 0.505859,0.38965 0.341797,0.14697 0.769043,0.14697 0.379395,0 0.669922,-0.11279 0.290527,-0.11279 0.430664,-0.30762 0.143555,-0.19824 0.143555,-0.43066 0,-0.23584 -0.136719,-0.41016 -0.136719,-0.17773 -0.451172,-0.29736 -0.20166,-0.0786 -0.89209,-0.24268 -0.690429,-0.16748 -0.967285,-0.31445 -0.358887,-0.18799 -0.536621,-0.46484 -0.174316,-0.28028 -0.174316,-0.62549 0,-0.3794 0.215332,-0.70752 0.215332,-0.33154 0.628906,-0.50244 0.413574,-0.1709 0.919434,-0.1709 0.557128,0 0.980957,0.18115 0.427246,0.17774 0.65625,0.52637 0.229004,0.34863 0.246093,0.78955 l -0.635742,0.0479 q -0.05127,-0.4751 -0.348633,-0.71777 -0.293945,-0.24268 -0.871582,-0.24268 -0.601562,0 -0.878418,0.22217 -0.273437,0.21875 -0.273437,0.52978 0,0.27002 0.194824,0.44434 0.191406,0.17432 0.998047,0.35889 0.810059,0.18115 1.11084,0.31787 0.4375,0.20166 0.645996,0.51269 0.208496,0.30762 0.208496,0.71094 0,0.3999 -0.229004,0.75537 -0.229004,0.35205 -0.659668,0.55029 -0.427246,0.19483 -0.963867,0.19483 -0.680176,0 -1.141602,-0.19824 -0.458007,-0.19825 -0.721191,-0.59473 -0.259766,-0.3999 -0.273438,-0.90234 z M 53.89502,185 v -5.01074 h 0.663085 v 2.05761 h 2.604493 v -2.05761 h 0.663086 V 185 h -0.663086 v -2.36182 H 54.558105 V 185 Z"
     id="text11"
     style="font-size:7px;font-family:Arial, Helvetica, sans-serif;text-anchor:middle;fill:#888888"
     aria-label="THRESH" />
  <path
     d="m 94.442627,185 1.924316,-5.01074 h 0.714356 L 99.13208,185 h -0.755371 l -0.584473,-1.51758 H 95.697021 L 95.146729,185 Z m 1.445801,-2.05762 h 1.69873 l -0.522949,-1.38769 q -0.239258,-0.63233 -0.355469,-1.03907 -0.0957,0.48194 -0.270019,0.95704 z M 100.41724,185 v -4.41943 h -1.650883 v -0.59131 h 3.971683 v 0.59131 h -1.65772 V 185 Z m 2.97363,0 v -5.01074 h 0.66309 v 2.48486 l 2.48828,-2.48486 h 0.89892 l -2.10205,2.03027 2.19434,2.98047 h -0.875 l -1.78418,-2.53613 -0.82031,0.7998 V 185 Z"
     id="text12"
     style="font-size:7px;font-family:Arial, Helvetica, sans-serif;text-anchor:middle;fill:#888888"
     aria-label="ATK" />
  <path
     d="m 150.7417,185 v -5.01074 h 2.22168 q 0.66992,0 1.01855,0.13672 0.34864,0.1333 0.55713,0.47509 0.2085,0.3418 0.2085,0.75538 0,0.5332 -0.34522,0.89892 -0.34521,0.36572 -1.0664,0.46484 0.26318,0.12647 0.3999,0.24952 0.29053,0.2666 0.55029,0.6665 L 155.15771,185 h -0.83398 l -0.66309,-1.04248 q -0.29052,-0.45117 -0.47851,-0.69043 -0.18799,-0.23926 -0.33838,-0.33496 -0.14697,-0.0957 -0.30078,-0.1333 -0.11279,-0.0239 -0.36914,-0.0239 h -0.76904 V 185 Z m 0.66309,-2.79932 h 1.42529 q 0.45459,0 0.71094,-0.0923 0.25634,-0.0957 0.38964,-0.30078 0.1333,-0.2085 0.1333,-0.45117 0,-0.35547 -0.25976,-0.58448 -0.25635,-0.229 -0.81348,-0.229 h -1.58593 z M 155.80029,185 v -5.01074 h 3.62305 v 0.59131 h -2.95996 v 1.53466 h 2.77197 v 0.58789 h -2.77197 v 1.70557 h 3.07617 V 185 Z m 4.62793,0 v -5.01074 h 0.66309 v 4.41943 h 2.46777 V 185 Z"
     id="text13"
     style="font-size:7px;font-family:Arial, Helvetica, sans-serif;text-anchor:middle;fill:#888888"
     aria-label="REL" />
  <path
     d="m 204.83643,185 v -5.01074 h 0.66308 v 2.05761 h 2.60449 v -2.05761 h 0.66309 V 185 H 208.104 v -2.36182 h -2.60449 V 185 Z m 4.833,-2.44043 q 0,-1.24756 0.66993,-1.95166 0.66992,-0.70752 1.72949,-0.70752 0.69385,0 1.25097,0.33154 0.55713,0.33155 0.84766,0.92627 0.29395,0.59131 0.29395,1.34326 0,0.76221 -0.30762,1.36377 -0.30762,0.60157 -0.87158,0.9126 -0.56397,0.30762 -1.2168,0.30762 -0.70752,0 -1.26465,-0.3418 -0.55713,-0.34179 -0.84424,-0.9331 -0.28711,-0.59131 -0.28711,-1.25098 z m 0.6836,0.0102 q 0,0.90577 0.48535,1.42872 0.48877,0.51953 1.22363,0.51953 0.74854,0 1.23047,-0.52637 0.48535,-0.52637 0.48535,-1.49365 0,-0.61182 -0.20849,-1.06641 -0.20508,-0.45801 -0.60498,-0.70752 -0.39649,-0.25293 -0.89209,-0.25293 -0.70411,0 -1.21338,0.48535 -0.50586,0.48194 -0.50586,1.61328 z M 215.28857,185 v -5.01074 h 0.66309 v 4.41943 h 2.46777 V 185 Z m 3.92041,0 v -5.01074 h 1.72608 q 0.58447,0 0.89209,0.0718 0.43066,0.0991 0.73486,0.35888 0.39649,0.33496 0.59131,0.85791 0.19824,0.51953 0.19824,1.18946 0,0.5708 -0.1333,1.01171 -0.1333,0.44092 -0.3418,0.73145 -0.20849,0.28711 -0.458,0.45459 -0.2461,0.16406 -0.59815,0.24951 Q 221.47168,185 221.01709,185 Z m 0.66309,-0.59131 h 1.06982 q 0.49561,0 0.77588,-0.0923 0.28369,-0.0923 0.45118,-0.25977 0.23584,-0.23584 0.36572,-0.63232 0.1333,-0.39991 0.1333,-0.96729 0,-0.78613 -0.25977,-1.20654 -0.25634,-0.42383 -0.62549,-0.56738 -0.2666,-0.10254 -0.85791,-0.10254 h -1.05273 z"
     id="text14"
     style="font-size:7px;font-family:Arial, Helvetica, sans-serif;text-anchor:middle;fill:#888888"
     aria-label="HOLD" />
  <!-- TONE Section -->
  <rect
     x="20"
     y="195"
     width="275"
     height="1"
     fill="#444"
     id="rect14" />
  <path
     d="m 127.80029,212 v -5.94727 h -2.12402 v -1.21093 h 5.68848 v 1.21093 h -2.11914 V 212 Z m 4.02344,-3.53516 q 0,-1.09375 0.32715,-1.83593 0.24414,-0.54688 0.66406,-0.98145 0.42481,-0.43457 0.92774,-0.64453 0.66894,-0.2832 1.54296,-0.2832 1.58204,0 2.5293,0.98144 0.95215,0.98145 0.95215,2.72949 0,1.7334 -0.94238,2.71485 -0.94239,0.97656 -2.51953,0.97656 -1.59668,0 -2.53907,-0.97168 -0.94238,-0.97656 -0.94238,-2.68555 z m 1.48926,-0.0488 q 0,1.21582 0.56152,1.8457 0.56153,0.625 1.42578,0.625 0.86426,0 1.41602,-0.62012 0.55664,-0.625 0.55664,-1.87012 0,-1.23046 -0.54199,-1.83593 -0.53711,-0.60547 -1.43067,-0.60547 -0.89355,0 -1.44043,0.61523 -0.54687,0.61035 -0.54687,1.84571 z M 139.90967,212 v -7.1582 h 1.40625 l 2.92969,4.78027 v -4.78027 h 1.34277 V 212 h -1.4502 l -2.88574,-4.66797 V 212 Z m 7.20703,0 v -7.1582 h 5.30762 v 1.21093 h -3.86231 v 1.58692 h 3.59375 v 1.20605 h -3.59375 v 1.94825 h 3.99903 V 212 Z m 9.08203,-2.3291 1.40625,-0.13672 q 0.12695,0.70801 0.5127,1.04004 0.39062,0.33203 1.0498,0.33203 0.69824,0 1.04981,-0.29297 0.35644,-0.29785 0.35644,-0.69336 0,-0.2539 -0.15137,-0.42969 -0.14648,-0.18066 -0.51757,-0.3125 -0.25391,-0.0879 -1.15723,-0.3125 -1.16211,-0.28808 -1.63086,-0.708 -0.65918,-0.59082 -0.65918,-1.44043 0,-0.54688 0.30762,-1.02051 0.3125,-0.47852 0.89355,-0.72754 0.58594,-0.24902 1.41113,-0.24902 1.34766,0 2.02637,0.59082 0.6836,0.59082 0.71777,1.57715 l -1.44531,0.0635 q -0.0928,-0.55176 -0.40039,-0.79101 -0.30273,-0.24414 -0.91308,-0.24414 -0.62989,0 -0.98633,0.25878 -0.22949,0.16602 -0.22949,0.44434 0,0.25391 0.21484,0.43457 0.27344,0.22949 1.32812,0.47852 1.05469,0.24902 1.55762,0.51757 0.50781,0.26368 0.79102,0.72754 0.28808,0.45899 0.28808,1.1377 0,0.61523 -0.34179,1.15234 -0.3418,0.53711 -0.9668,0.80078 -0.625,0.25879 -1.55762,0.25879 -1.35742,0 -2.08496,-0.625 -0.72754,-0.62988 -0.86914,-1.83105 z M 164.84619,212 v -5.94727 h -2.12402 v -1.21093 h 5.68847 v 1.21093 H 166.2915 V 212 Z m 10.20996,0 h -1.57226 l -0.625,-1.62598 h -2.86133 L 169.40674,212 h -1.5332 l 2.78808,-7.1582 h 1.52832 z m -2.66113,-2.83203 -0.98633,-2.65625 -0.9668,2.65625 z m 8.00781,0.20019 1.40137,0.44434 q -0.32227,1.17187 -1.07422,1.74316 -0.74707,0.56641 -1.89941,0.56641 -1.42578,0 -2.34375,-0.97168 -0.91797,-0.97656 -0.91797,-2.66602 0,-1.7871 0.92285,-2.77343 0.92285,-0.99121 2.42676,-0.99121 1.31347,0 2.13379,0.77636 0.48828,0.45899 0.73242,1.31836 l -1.43067,0.3418 q -0.12695,-0.55664 -0.53222,-0.87891 -0.40039,-0.32226 -0.97657,-0.32226 -0.79589,0 -1.29394,0.57129 -0.49316,0.57129 -0.49316,1.85058 0,1.35742 0.48828,1.9336 0.48828,0.57617 1.26953,0.57617 0.57617,0 0.99121,-0.36621 0.41504,-0.36621 0.5957,-1.15235 z M 183.06396,212 v -7.1582 h 1.44532 v 3.17871 l 2.91992,-3.17871 h 1.94336 l -2.69531,2.78808 2.84179,4.37012 h -1.87011 l -1.96778,-3.35938 -1.17187,1.19629 V 212 Z"
     id="text15"
     style="font-weight:bold;font-size:10px;font-family:Arial, Helvetica, sans-serif;text-anchor:middle;fill:#aaaaaa"
     aria-label="TONE STACK" />
  <!-- Tone Stack Knob Labels -->
  <path
     d="m 35.174805,242 v -5.01074 h 1.879882 q 0.574219,0 0.919434,0.15381 0.348633,0.15039 0.543457,0.46826 0.198242,0.31445 0.198242,0.65967 0,0.32129 -0.174316,0.60498 -0.174317,0.28369 -0.526367,0.458 0.45459,0.13331 0.697265,0.45459 0.246094,0.32129 0.246094,0.75879 0,0.35205 -0.150391,0.65625 -0.146972,0.30078 -0.365722,0.46485 -0.21875,0.16406 -0.550293,0.24951 Q 37.563965,242 37.085449,242 Z m 0.663086,-2.90527 h 1.083496 q 0.440918,0 0.632324,-0.0581 0.25293,-0.0752 0.379394,-0.24951 0.129883,-0.17432 0.129883,-0.4375 0,-0.24951 -0.119629,-0.4375 -0.119629,-0.19141 -0.341797,-0.25977 -0.222167,-0.0718 -0.762207,-0.0718 h -1.001464 z m 0,2.31396 h 1.247558 q 0.321289,0 0.451172,-0.0239 0.229004,-0.041 0.382813,-0.13672 0.153808,-0.0957 0.252929,-0.27686 0.09912,-0.18457 0.09912,-0.42383 0,-0.28027 -0.143554,-0.48535 -0.143555,-0.20849 -0.399903,-0.29053 -0.252929,-0.0854 -0.731445,-0.0854 h -1.158691 z m 3.48291,0.59131 1.924316,-5.01074 h 0.714356 L 44.010254,242 H 43.254883 L 42.67041,240.48242 H 40.575195 L 40.024902,242 Z m 1.445801,-2.05762 h 1.69873 l -0.522949,-1.38769 q -0.239258,-0.63233 -0.355469,-1.03907 -0.0957,0.48194 -0.270019,0.95704 z m 3.547851,0.44776 0.625488,-0.0547 q 0.04443,0.37598 0.205079,0.61865 0.164062,0.23926 0.505859,0.38965 0.341797,0.14697 0.769043,0.14697 0.379394,0 0.669922,-0.11279 0.290527,-0.11279 0.430664,-0.30762 0.143554,-0.19824 0.143554,-0.43066 0,-0.23584 -0.136718,-0.41016 -0.136719,-0.17773 -0.451172,-0.29736 -0.20166,-0.0786 -0.89209,-0.24268 -0.69043,-0.16748 -0.967285,-0.31445 -0.358887,-0.18799 -0.536621,-0.46484 -0.174317,-0.28028 -0.174317,-0.62549 0,-0.3794 0.215332,-0.70752 0.215332,-0.33154 0.628907,-0.50244 0.413574,-0.1709 0.919433,-0.1709 0.557129,0 0.980957,0.18115 0.427246,0.17774 0.65625,0.52637 0.229004,0.34863 0.246094,0.78955 l -0.635742,0.0479 q -0.05127,-0.4751 -0.348633,-0.71777 -0.293945,-0.24268 -0.871582,-0.24268 -0.601563,0 -0.878418,0.22217 -0.273437,0.21875 -0.273437,0.52978 0,0.27002 0.194824,0.44434 0.191406,0.17432 0.998047,0.35889 0.810058,0.18115 1.110839,0.31787 0.4375,0.20166 0.645997,0.51269 0.208496,0.30762 0.208496,0.71094 0,0.3999 -0.229004,0.75537 -0.229004,0.35205 -0.659668,0.55029 -0.427246,0.19483 -0.963867,0.19483 -0.680176,0 -1.141602,-0.19824 -0.458008,-0.19825 -0.721191,-0.59473 -0.259766,-0.3999 -0.273438,-0.90234 z m 4.668945,0 0.625489,-0.0547 q 0.04443,0.37598 0.205078,0.61865 0.164062,0.23926 0.505859,0.38965 0.341797,0.14697 0.769043,0.14697 0.379395,0 0.669922,-0.11279 0.290527,-0.11279 0.430664,-0.30762 0.143555,-0.19824 0.143555,-0.43066 0,-0.23584 -0.136719,-0.41016 -0.136719,-0.17773 -0.451172,-0.29736 -0.20166,-0.0786 -0.89209,-0.24268 -0.690429,-0.16748 -0.967285,-0.31445 -0.358887,-0.18799 -0.536621,-0.46484 -0.174316,-0.28028 -0.174316,-0.62549 0,-0.3794 0.215332,-0.70752 0.215332,-0.33154 0.628906,-0.50244 0.413574,-0.1709 0.919434,-0.1709 0.557128,0 0.980957,0.18115 0.427246,0.17774 0.65625,0.52637 0.229003,0.34863 0.246093,0.78955 l -0.635742,0.0479 q -0.05127,-0.4751 -0.348633,-0.71777 -0.293945,-0.24268 -0.871582,-0.24268 -0.601562,0 -0.878418,0.22217 -0.273437,0.21875 -0.273437,0.52978 0,0.27002 0.194824,0.44434 0.191406,0.17432 0.998047,0.35889 0.810059,0.18115 1.11084,0.31787 0.4375,0.20166 0.645996,0.51269 0.208496,0.30762 0.208496,0.71094 0,0.3999 -0.229004,0.75537 -0.229004,0.35205 -0.659668,0.55029 -0.427246,0.19483 -0.963867,0.19483 -0.680176,0 -1.141602,-0.19824 -0.458007,-0.19825 -0.721191,-0.59473 -0.259766,-0.3999 -0.273438,-0.90234 z"
     id="text16"
     style="font-size:7px;font-family:Arial, Helvetica, sans-serif;text-anchor:middle;fill:#888888"
     aria-label="BASS" />
  <path
     d="m 95.104004,242 v -5.01074 h 0.998047 l 1.186035,3.54785 q 0.164062,0.4956 0.239258,0.7417 0.08545,-0.27344 0.266601,-0.80322 l 1.199707,-3.48633 h 0.89209 V 242 h -0.63916 v -4.19385 L 97.790527,242 h -0.598144 l -1.449219,-4.26563 V 242 Z m 5.964356,0 v -5.01074 h 0.66309 V 242 Z m 1.83203,0 v -5.01074 h 1.72607 q 0.58448,0 0.89209,0.0718 0.43067,0.0991 0.73487,0.35888 0.39648,0.33496 0.59131,0.85791 0.19824,0.51953 0.19824,1.18946 0,0.5708 -0.1333,1.01171 -0.1333,0.44092 -0.3418,0.73145 -0.20849,0.28711 -0.45801,0.45459 -0.24609,0.16406 -0.59814,0.24951 Q 105.16309,242 104.7085,242 Z m 0.66309,-0.59131 h 1.06982 q 0.49561,0 0.77588,-0.0923 0.28369,-0.0923 0.45117,-0.25977 0.23584,-0.23584 0.36572,-0.63232 0.13331,-0.39991 0.13331,-0.96729 0,-0.78613 -0.25977,-1.20654 -0.25635,-0.42383 -0.62549,-0.56738 -0.2666,-0.10254 -0.85791,-0.10254 h -1.05273 z"
     id="text17"
     style="font-size:7px;font-family:Arial, Helvetica, sans-serif;text-anchor:middle;fill:#888888"
     aria-label="MID" />
  <path
     d="m 149.48047,242 v -4.41943 h -1.65088 v -0.59131 h 3.97168 v 0.59131 h -1.65772 V 242 Z m 3.01123,0 v -5.01074 h 2.22168 q 0.66992,0 1.01855,0.13672 0.34864,0.1333 0.55713,0.47509 0.2085,0.3418 0.2085,0.75538 0,0.5332 -0.34522,0.89892 -0.34521,0.36572 -1.0664,0.46484 0.26318,0.12647 0.3999,0.24952 0.29053,0.2666 0.55029,0.6665 L 156.90771,242 h -0.83398 l -0.66309,-1.04248 q -0.29052,-0.45117 -0.47851,-0.69043 -0.18799,-0.23926 -0.33838,-0.33496 -0.14697,-0.0957 -0.30078,-0.1333 -0.11279,-0.0239 -0.36914,-0.0239 h -0.76904 V 242 Z m 0.66309,-2.79932 h 1.42529 q 0.45459,0 0.71094,-0.0923 0.25634,-0.0957 0.38964,-0.30078 0.1333,-0.2085 0.1333,-0.45117 0,-0.35547 -0.25976,-0.58448 -0.25635,-0.229 -0.81348,-0.229 h -1.58593 z M 157.55029,242 v -5.01074 h 3.62305 v 0.59131 h -2.95996 v 1.53466 h 2.77197 v 0.58789 h -2.77197 v 1.70557 h 3.07617 V 242 Z m 4.62793,0 v -5.01074 h 1.87989 q 0.57421,0 0.91943,0.15381 0.34863,0.15039 0.54346,0.46826 0.19824,0.31445 0.19824,0.65967 0,0.32129 -0.17432,0.60498 -0.17431,0.28369 -0.52637,0.458 0.45459,0.13331 0.69727,0.45459 0.24609,0.32129 0.24609,0.75879 0,0.35205 -0.15039,0.65625 -0.14697,0.30078 -0.36572,0.46485 -0.21875,0.16406 -0.55029,0.24951 -0.32813,0.082 -0.80664,0.082 z m 0.66309,-2.90527 h 1.08349 q 0.44092,0 0.63233,-0.0581 0.25293,-0.0752 0.37939,-0.24951 0.12989,-0.17432 0.12989,-0.4375 0,-0.24951 -0.11963,-0.4375 -0.11963,-0.19141 -0.3418,-0.25977 -0.22217,-0.0718 -0.76221,-0.0718 h -1.00146 z m 0,2.31396 h 1.24756 q 0.32129,0 0.45117,-0.0239 0.229,-0.041 0.38281,-0.13672 0.15381,-0.0957 0.25293,-0.27686 0.0991,-0.18457 0.0991,-0.42383 0,-0.28027 -0.14355,-0.48535 -0.14356,-0.20849 -0.3999,-0.29053 -0.25293,-0.0854 -0.73145,-0.0854 h -1.15869 z"
     id="text18"
     style="font-size:7px;font-family:Arial, Helvetica, sans-serif;text-anchor:middle;fill:#888888"
     aria-label="TREB" />
  <path
     d="m 205.00903,242 v -5.01074 h 1.89014 q 0.49902,0 0.76221,0.0479 0.36914,0.0615 0.61865,0.23584 0.24951,0.1709 0.3999,0.48193 0.15381,0.31104 0.15381,0.6836 0,0.63916 -0.40674,1.08349 -0.40674,0.44092 -1.46972,0.44092 h -1.28516 V 242 Z m 0.66309,-2.62842 h 1.29541 q 0.64258,0 0.9126,-0.23926 0.27002,-0.23925 0.27002,-0.67334 0,-0.31445 -0.16065,-0.53662 -0.15722,-0.22558 -0.41699,-0.29736 -0.16748,-0.0444 -0.61865,-0.0444 h -1.28174 z M 209.68823,242 v -5.01074 h 2.22168 q 0.66992,0 1.01856,0.13672 0.34863,0.1333 0.55713,0.47509 0.20849,0.3418 0.20849,0.75538 0,0.5332 -0.34521,0.89892 -0.34522,0.36572 -1.06641,0.46484 0.26318,0.12647 0.3999,0.24952 0.29053,0.2666 0.5503,0.6665 L 214.10425,242 h -0.83399 l -0.66308,-1.04248 q -0.29053,-0.45117 -0.47852,-0.69043 -0.18799,-0.23926 -0.33838,-0.33496 -0.14697,-0.0957 -0.30078,-0.1333 -0.11279,-0.0239 -0.36914,-0.0239 h -0.76904 V 242 Z m 0.66309,-2.79932 h 1.42529 q 0.45459,0 0.71094,-0.0923 0.25635,-0.0957 0.38965,-0.30078 0.1333,-0.2085 0.1333,-0.45117 0,-0.35547 -0.25977,-0.58448 -0.25635,-0.229 -0.81347,-0.229 h -1.58594 z M 214.74683,242 v -5.01074 h 3.62304 v 0.59131 h -2.95996 v 1.53466 h 2.77197 v 0.58789 h -2.77197 v 1.70557 h 3.07617 V 242 Z m 4.42968,-1.60986 0.62549,-0.0547 q 0.0444,0.37598 0.20508,0.61865 0.16406,0.23926 0.50586,0.38965 0.3418,0.14697 0.76904,0.14697 0.3794,0 0.66992,-0.11279 0.29053,-0.11279 0.43067,-0.30762 0.14355,-0.19824 0.14355,-0.43066 0,-0.23584 -0.13672,-0.41016 -0.13671,-0.17773 -0.45117,-0.29736 -0.20166,-0.0786 -0.89209,-0.24268 -0.69043,-0.16748 -0.96728,-0.31445 -0.35889,-0.18799 -0.53662,-0.46484 -0.17432,-0.28028 -0.17432,-0.62549 0,-0.3794 0.21533,-0.70752 0.21533,-0.33154 0.62891,-0.50244 0.41357,-0.1709 0.91943,-0.1709 0.55713,0 0.98096,0.18115 0.42724,0.17774 0.65625,0.52637 0.229,0.34863 0.24609,0.78955 l -0.63574,0.0479 q -0.0513,-0.4751 -0.34863,-0.71777 -0.29395,-0.24268 -0.87158,-0.24268 -0.60157,0 -0.87842,0.22217 -0.27344,0.21875 -0.27344,0.52978 0,0.27002 0.19482,0.44434 0.19141,0.17432 0.99805,0.35889 0.81006,0.18115 1.11084,0.31787 0.4375,0.20166 0.646,0.51269 0.20849,0.30762 0.20849,0.71094 0,0.3999 -0.229,0.75537 -0.229,0.35205 -0.65967,0.55029 -0.42724,0.19483 -0.96387,0.19483 -0.68017,0 -1.1416,-0.19824 -0.45801,-0.19825 -0.72119,-0.59473 -0.25976,-0.3999 -0.27344,-0.90234 z"
     id="text19"
     style="font-size:7px;font-family:Arial, Helvetica, sans-serif;text-anchor:middle;fill:#888888"
     aria-label="PRES" />
  <path
     d="m 259.67798,242 v -5.01074 h 1.72607 q 0.58448,0 0.89209,0.0718 0.43067,0.0991 0.73487,0.35888 0.39648,0.33496 0.5913,0.85791 0.19825,0.51953 0.19825,1.18946 0,0.5708 -0.1333,1.01171 -0.1333,0.44092 -0.3418,0.73145 -0.2085,0.28711 -0.45801,0.45459 -0.24609,0.16406 -0.59814,0.24951 Q 261.94067,242 261.48608,242 Z m 0.66308,-0.59131 h 1.06983 q 0.4956,0 0.77588,-0.0923 0.28369,-0.0923 0.45117,-0.25977 0.23584,-0.23584 0.36572,-0.63232 0.1333,-0.39991 0.1333,-0.96729 0,-0.78613 -0.25976,-1.20654 -0.25635,-0.42383 -0.62549,-0.56738 -0.2666,-0.10254 -0.85791,-0.10254 h -1.05274 z M 264.74683,242 v -5.01074 h 3.62304 v 0.59131 h -2.95996 v 1.53466 h 2.77197 v 0.58789 h -2.77197 v 1.70557 h 3.07617 V 242 Z m 4.65527,0 v -5.01074 h 1.89014 q 0.49902,0 0.7622,0.0479 0.36914,0.0615 0.61866,0.23584 0.24951,0.1709 0.3999,0.48193 0.15381,0.31104 0.15381,0.6836 0,0.63916 -0.40674,1.08349 -0.40674,0.44092 -1.46973,0.44092 h -1.28515 V 242 Z m 0.66309,-2.62842 h 1.29541 q 0.64257,0 0.91259,-0.23926 0.27002,-0.23925 0.27002,-0.67334 0,-0.31445 -0.16064,-0.53662 -0.15723,-0.22558 -0.41699,-0.29736 -0.16748,-0.0444 -0.61866,-0.0444 h -1.28173 z M 275.34595,242 v -4.41943 h -1.65088 v -0.59131 h 3.97168 v 0.59131 h -1.65772 V 242 Z m 3.02148,0 v -5.01074 h 0.66309 v 2.05761 h 2.60449 v -2.05761 h 0.66309 V 242 h -0.66309 v -2.36182 h -2.60449 V 242 Z"
     id="text20"
     style="font-size:7px;font-family:Arial, Helvetica, sans-serif;text-anchor:middle;fill:#888888"
     aria-label="DEPTH" />
  <!-- I/O Section -->
  <rect
     x="20"
     y="278"
     width="275"
     height="1"
     fill="#444"
     id="rect20" />
  <!-- Port Labels -->
  <path
     d="m 40.339355,310 v -6.44238 h 0.85254 V 310 Z m 2.34668,0 v -6.44238 h 0.874512 l 3.383789,5.0581 v -5.0581 h 0.817383 V 310 h -0.874512 l -3.383789,-5.0625 V 310 Z"
     id="text21"
     style="font-size:9px;font-family:Arial, Helvetica, sans-serif;text-anchor:middle;fill:#888888"
     aria-label="IN" />
  <path
     d="m 261.93628,306.8623 q 0,-1.604 0.86133,-2.50927 0.86133,-0.90967 2.22363,-0.90967 0.89209,0 1.6084,0.42627 0.71631,0.42627 1.08984,1.19092 0.37793,0.76025 0.37793,1.72705 0,0.97998 -0.39551,1.75342 -0.3955,0.77343 -1.1206,1.17334 -0.7251,0.3955 -1.56445,0.3955 -0.90967,0 -1.62598,-0.43945 -0.71631,-0.43945 -1.08545,-1.19971 -0.36914,-0.76025 -0.36914,-1.6084 z m 0.87891,0.0132 q 0,1.16455 0.62402,1.83691 0.62842,0.66797 1.57324,0.66797 0.9624,0 1.58203,-0.67676 0.62403,-0.67675 0.62403,-1.92041 0,-0.78662 -0.26807,-1.37109 -0.26367,-0.58887 -0.77783,-0.90967 -0.50977,-0.32519 -1.14698,-0.32519 -0.90527,0 -1.56005,0.62402 -0.65039,0.61963 -0.65039,2.07422 z m 10.60839,-3.31787 h 0.85254 v 3.72217 q 0,0.97119 -0.21972,1.54248 -0.21973,0.57128 -0.79541,0.93164 -0.57129,0.35595 -1.50293,0.35595 -0.90528,0 -1.48096,-0.31201 -0.57568,-0.31201 -0.82178,-0.90088 -0.24609,-0.59326 -0.24609,-1.61718 v -3.72217 h 0.85254 v 3.71777 q 0,0.83936 0.15381,1.23926 0.1582,0.39551 0.53613,0.61084 0.38232,0.21533 0.93164,0.21533 0.94043,0 1.34033,-0.42627 0.3999,-0.42627 0.3999,-1.63916 z M 277.33472,310 v -5.68213 h -2.12256 v -0.76025 h 5.10644 v 0.76025 h -2.13134 V 310 Z"
     id="text22"
     style="font-size:9px;font-family:Arial, Helvetica, sans-serif;text-anchor:middle;fill:#888888"
     aria-label="OUT" />
  <!-- Brand -->
  <path
     d="m 123.92578,363.16016 0.71485,-0.0625 q 0.0508,0.42968 0.23437,0.70703 0.1875,0.27343 0.57813,0.44531 0.39062,0.16797 0.8789,0.16797 0.4336,0 0.76563,-0.12891 0.33203,-0.1289 0.49218,-0.35156 0.16407,-0.22656 0.16407,-0.49219 0,-0.26953 -0.15625,-0.46875 -0.15625,-0.20312 -0.51563,-0.33984 -0.23047,-0.0899 -1.01953,-0.27735 -0.78906,-0.1914 -1.10547,-0.35937 -0.41015,-0.21484 -0.61328,-0.53125 -0.19922,-0.32031 -0.19922,-0.71484 0,-0.4336 0.2461,-0.8086 0.24609,-0.3789 0.71875,-0.57422 0.47265,-0.19531 1.05078,-0.19531 0.63672,0 1.12109,0.20703 0.48828,0.20313 0.75,0.60156 0.26172,0.39844 0.28125,0.90235 l -0.72656,0.0547 q -0.0586,-0.54297 -0.39844,-0.82032 -0.33594,-0.27734 -0.99609,-0.27734 -0.6875,0 -1.00391,0.25391 -0.3125,0.25 -0.3125,0.60546 0,0.3086 0.22266,0.50782 0.21875,0.19922 1.14062,0.41015 0.92578,0.20703 1.26953,0.36328 0.5,0.23047 0.73828,0.58594 0.23828,0.35156 0.23828,0.8125 0,0.45703 -0.26171,0.86328 -0.26172,0.40235 -0.75391,0.62891 -0.48828,0.22266 -1.10156,0.22266 -0.77735,0 -1.30469,-0.22657 -0.52344,-0.22656 -0.82422,-0.67968 -0.29687,-0.45704 -0.3125,-1.03125 z M 129.54297,365 v -5.72656 h 0.75781 v 2.35156 h 2.97656 v -2.35156 h 0.75782 V 365 h -0.75782 v -2.69922 h -2.97656 V 365 Z m 5.52344,-2.78906 q 0,-1.42578 0.76562,-2.23047 0.76563,-0.8086 1.97656,-0.8086 0.79297,0 1.42969,0.37891 0.63672,0.37891 0.96875,1.05859 0.33594,0.67579 0.33594,1.53516 0,0.87109 -0.35156,1.55859 -0.35157,0.6875 -0.9961,1.04297 -0.64453,0.35157 -1.39062,0.35157 -0.8086,0 -1.44532,-0.39063 -0.63671,-0.39062 -0.96484,-1.06641 -0.32812,-0.67578 -0.32812,-1.42968 z m 0.78125,0.0117 q 0,1.03515 0.55468,1.63281 0.5586,0.59375 1.39844,0.59375 0.85547,0 1.40625,-0.60156 0.55469,-0.60157 0.55469,-1.70704 0,-0.69921 -0.23828,-1.21875 -0.23438,-0.52343 -0.69141,-0.80859 -0.45312,-0.28906 -1.01953,-0.28906 -0.80469,0 -1.38672,0.55469 -0.57812,0.55078 -0.57812,1.84375 z M 141.53125,365 v -5.72656 h 2.53906 q 0.76563,0 1.16406,0.15625 0.39844,0.15234 0.63672,0.54297 0.23828,0.39062 0.23828,0.86328 0,0.60937 -0.39453,1.02734 -0.39453,0.41797 -1.21875,0.53125 0.30078,0.14453 0.45703,0.28516 0.33204,0.30468 0.62891,0.76172 L 146.57812,365 H 145.625 l -0.75781,-1.19141 q -0.33203,-0.51562 -0.54688,-0.78906 -0.21484,-0.27344 -0.38672,-0.38281 -0.16797,-0.10938 -0.34375,-0.15235 -0.1289,-0.0273 -0.42187,-0.0273 h -0.87891 V 365 Z m 0.75781,-3.19922 h 1.62891 q 0.51953,0 0.8125,-0.10547 0.29297,-0.10937 0.44531,-0.34375 0.15234,-0.23828 0.15234,-0.51562 0,-0.40625 -0.29687,-0.66797 -0.29297,-0.26172 -0.92969,-0.26172 h -1.8125 z M 148.60937,365 v -5.05078 h -1.88671 v -0.67578 h 4.53906 v 0.67578 h -1.89453 V 365 Z m 4.42969,0 -1.51953,-5.72656 h 0.77734 l 0.8711,3.7539 q 0.14062,0.58985 0.24219,1.17188 0.21875,-0.91797 0.25781,-1.0586 l 1.08984,-3.86718 h 0.91406 l 0.82032,2.89843 q 0.30859,1.07813 0.44531,2.02735 0.10937,-0.54297 0.28516,-1.2461 l 0.89843,-3.67968 h 0.76172 L 157.3125,365 h -0.73047 l -1.20703,-4.36328 q -0.15234,-0.54688 -0.17969,-0.67188 -0.0898,0.39453 -0.16797,0.67188 L 153.8125,365 Z m 5.625,0 2.19922,-5.72656 h 0.81641 L 164.02344,365 h -0.86328 l -0.66797,-1.73438 h -2.39453 L 159.46875,365 Z m 1.65235,-2.35156 h 1.9414 l -0.59765,-1.58594 q -0.27344,-0.72266 -0.40625,-1.1875 -0.10938,0.55078 -0.3086,1.09375 z m 5.35546,2.35156 -2.21875,-5.72656 h 0.82032 l 1.48828,4.16015 q 0.17969,0.5 0.30078,0.9375 0.13281,-0.46875 0.30859,-0.9375 l 1.54688,-4.16015 h 0.77344 L 166.44922,365 Z m 5.89063,0 v -5.72656 h 0.75781 v 5.05078 h 2.82031 V 365 Z m 3.85156,0 2.19922,-5.72656 h 0.81641 L 180.77344,365 h -0.86328 l -0.66797,-1.73438 h -2.39453 L 176.21875,365 Z m 1.65235,-2.35156 h 1.9414 l -0.59765,-1.58594 q -0.27344,-0.72266 -0.40625,-1.1875 -0.10938,0.55078 -0.3086,1.09375 z M 181.34766,365 v -5.72656 h 2.14843 q 0.65625,0 1.05078,0.17578 0.39844,0.17187 0.6211,0.53515 0.22656,0.35938 0.22656,0.75391 0,0.36719 -0.19922,0.69141 -0.19922,0.32422 -0.60156,0.52343 0.51953,0.15235 0.79687,0.51954 0.28125,0.36718 0.28125,0.86718 0,0.40235 -0.17187,0.75 -0.16797,0.34375 -0.41797,0.53125 -0.25,0.1875 -0.62891,0.28516 -0.375,0.0937 -0.92187,0.0937 z m 0.75781,-3.32031 h 1.23828 q 0.50391,0 0.72266,-0.0664 0.28906,-0.0859 0.43359,-0.28516 0.14844,-0.19921 0.14844,-0.5 0,-0.28515 -0.13672,-0.5 -0.13672,-0.21875 -0.39063,-0.29687 -0.2539,-0.082 -0.87109,-0.082 h -1.14453 z m 0,2.64453 h 1.42578 q 0.36719,0 0.51562,-0.0274 0.26172,-0.0469 0.4375,-0.15625 0.17579,-0.10937 0.28907,-0.3164 0.11328,-0.21094 0.11328,-0.48438 0,-0.32031 -0.16406,-0.55468 -0.16407,-0.23829 -0.45704,-0.33204 -0.28906,-0.0976 -0.83593,-0.0976 h -1.32422 z m 4.35156,-1.16406 0.71484,-0.0625 q 0.0508,0.42968 0.23438,0.70703 0.1875,0.27343 0.57812,0.44531 0.39063,0.16797 0.87891,0.16797 0.43359,0 0.76563,-0.12891 0.33203,-0.1289 0.49218,-0.35156 0.16407,-0.22656 0.16407,-0.49219 0,-0.26953 -0.15625,-0.46875 -0.15625,-0.20312 -0.51563,-0.33984 -0.23047,-0.0899 -1.01953,-0.27735 -0.78906,-0.1914 -1.10547,-0.35937 -0.41016,-0.21484 -0.61328,-0.53125 -0.19922,-0.32031 -0.19922,-0.71484 0,-0.4336 0.24609,-0.8086 0.2461,-0.3789 0.71875,-0.57422 0.47266,-0.19531 1.05079,-0.19531 0.63671,0 1.12109,0.20703 0.48828,0.20313 0.75,0.60156 0.26172,0.39844 0.28125,0.90235 l -0.72656,0.0547 q -0.0586,-0.54297 -0.39844,-0.82032 -0.33594,-0.27734 -0.99609,-0.27734 -0.6875,0 -1.00391,0.25391 -0.3125,0.25 -0.3125,0.60546 0,0.3086 0.22266,0.50782 0.21875,0.19922 1.14062,0.41015 0.92578,0.20703 1.26953,0.36328 0.5,0.23047 0.73828,0.58594 0.23828,0.35156 0.23828,0.8125 0,0.45703 -0.26171,0.86328 -0.26172,0.40235 -0.75391,0.62891 -0.48828,0.22266 -1.10156,0.22266 -0.77735,0 -1.30469,-0.22657 -0.52344,-0.22656 -0.82422,-0.67968 -0.29687,-0.45704 -0.3125,-1.03125 z"
     id="text23"
     style="font-size:8px;font-family:Arial, Helvetica, sans-serif;text-anchor:middle;fill:#666666"
     aria-label="SHORTWAV LABS" />
</svg>
