<?xml version="1.0" encoding="UTF-8"?>
<!-- Generated by Pixelmator Pro 3.7.1 -->
<svg width="270" height="380" viewBox="0 0 270 380" xmlns="http://www.w3.org/2000/svg">
    <g id="Group">
        <path id="Rectangle" fill="#929292" fill-rule="evenodd" stroke="none" d="M 0 380 L 270 380 L 270 0 L 0 0 Z"/>
        <path id="Path-copy" fill="#d5d5d5" stroke="none" d="M 129.972977 407.297028 L 295 468.618683 L 295 349.714233 L 130.016541 288.409576 L 129.972977 407.297028 Z M -25 189.330673 L -25 230.807938 L 79.557838 269.383728 L 294.998138 189.330673 L 294.998138 70.426239 L -25 189.330673 Z M -25 31.714874 L -25 150.618011 L 294.998138 31.714874 L 294.998138 -87.189575 L -25 31.714874 Z"/>
        <g id="Group-copy">
            <path id="Path" fill="#151515" stroke="none" d="M 130.873291 373.961487 L 126.61779 373.961487 L 122.362228 362.580414 L 126.61779 362.580414 L 130.873291 373.961487 Z"/>
            <path id="path1" fill="#151515" stroke="none" d="M 133.743271 373.961487 L 132.25882 373.961487 L 128.00325 362.580414 L 132.25882 362.580414 L 135.123886 370.242767 L 133.743271 373.961487 Z"/>
            <path id="path2" fill="#151515" stroke="none" d="M 140.059769 368.449707 L 142.254456 362.580353 L 137.998901 362.580353 L 135.804825 368.448151 L 140.059769 368.449707 Z"/>
            <path id="path3" fill="#151515" stroke="none" d="M 136.466431 361.037872 L 132.411819 361.037872 C 132.411819 361.037872 132.381638 358.849365 129.310928 358.849365 C 126.240273 358.849365 126.309319 361.530212 126.309319 361.530212 L 122.2547 361.530212 C 122.2547 361.530212 122.102936 355 129.278564 355 C 136.454254 355 136.466431 361.037872 136.466431 361.037872 Z"/>
        </g>
    </g>
</svg>
